<?xml version="1.0" standalone="no"?>
<!DOCTYPE svg PUBLIC "-//W3C//DTD SVG 1.1//EN" "http://www.w3.org/Graphics/SVG/1.1/DTD/svg11.dtd" >
<svg xmlns="http://www.w3.org/2000/svg">
<metadata>
This is a custom SVG webfont generated by Font Squirrel.
Copyright   : Yew Basturd 2005 Edgar Tadeo
</metadata>
<defs>
<font id="webfontAWKTVeln" horiz-adv-x="1538" >
<font-face units-per-em="2048" ascent="1638" descent="-410" />
<missing-glyph horiz-adv-x="1384" />
<glyph unicode=" "  horiz-adv-x="1384" />
<glyph unicode="&#x09;" horiz-adv-x="1384" />
<glyph unicode="&#xa0;" horiz-adv-x="1384" />
<glyph unicode="!" horiz-adv-x="821" d="M264 625q0 -12 0 104q2 188 6 612q0 61 13 113q14 66 102 138.5t147 72.5q18 0 42 -15.5t24 -33.5v-942q0 -35 -60.5 -116t-97.5 -95q-86 -35 -98 -35q-29 0 -44 13.5t-26 88.5q-8 58 -8 95zM287 20q0 111 84 228t186 117q61 0 61 -76t-47 -160t-114 -127 q-76 -47 -115 -47q-55 -1 -55 65z" />
<glyph unicode="&#x22;" horiz-adv-x="1193" d="M256 1124q0 25 20 324q6 68 88 147.5t150 79.5q45 0 55 -35q2 -10 2 -67l-8 -107l-12 -178q0 -4 4 -18.5t4 -22.5q2 -76 -79 -162t-156 -86q-53 0 -66 48q-2 9 -2 77zM696 1087v154q0 98 13 227q6 68 87 148t148 80q57 0 57 -41v-383q0 -41 -60 -119t-120 -102 q-43 -16 -63 -17q-29 0 -49 21q-11 12 -13 32z" />
<glyph unicode="#" horiz-adv-x="1712" d="M270 256q0 63 72 150q66 78 147 124v146l-4 4q-18 -18 -65 -40t-76 -22q-31 0 -52.5 25t-21.5 51q0 63 72 148.5t147 115.5v392q0 41 76 130t124 101t61 12q55 0 63 -51l4 -430q76 25 193 53q-39 254 -39 221q0 82 91 180.5t177 98.5q59 0 64 -57q18 -98 40 -365 q135 16 132 17q78 0 77 -66q0 -66 -60 -141.5t-138 -108.5q0 -16 3 -65.5t3 -79.5h108q72 -4 72 -64q0 -63 -67 -147q-4 -4 -48 -37q-35 -25 -36 -45q10 -104 12 -285q-6 -72 -96.5 -156.5t-161.5 -84.5h-37q-18 6 -25 34q-12 76 -22 207q-10 166 -17 213q-4 4 -10 4 q-43 0 -209 -63q-2 -39 2 -64q4 -10 13 -28q14 -84 -86.5 -193.5t-188.5 -109.5q-49 0 -63 51l-4 221q-86 -59 -152 -59q-74 0 -74 63zM819 827q0 -92 3 -135t3 -28l100.5 29.5t100.5 31.5q-4 53 -12 145q-129 -33 -195 -43z" />
<glyph unicode="$" horiz-adv-x="1392" d="M236 217q0 86 94 192.5t182 106.5q55 0 55 -57q0 -14 -4 -39q66 -41 158 -41q41 0 106 24q59 25 70.5 41.5t11.5 67.5q0 61 -43 127q-49 68 -102 68q-6 0 -172 -85t-221 -85q-59 0 -92 63q-29 49 -29 98q0 51 17.5 109.5t35.5 105.5q41 106 82 174q49 82 109 150 q39 27 92 86q6 43 14 127q8 70 90 151.5t152 81.5q57 0 57 -69q0 -18 -5 -49t-5 -37v-76q47 10 158 -31q129 -49 129 -127q0 -76 -83 -163t-159 -87q-23 0 -77 45.5t-134 45.5q-51 0 -70 -17q-29 -27 -62.5 -107.5t-33.5 -117.5q0 -18 8 -33l221 113q90 45 164 45 q76 0 153 -61.5t101 -155.5q8 -27 8 -96q0 -125 -53 -232q-14 -23 -41 -72q-41 -78 -188 -188q-33 -16 -101 -63l-12 -46q-14 -43 -65 -100q-57 -61 -109 -84q-29 -12 -57 -12q-59 0 -60 72q0 55 21 83l-170 31q-141 37 -141 123z" />
<glyph unicode="%" horiz-adv-x="1970" d="M213 991q0 154 123 340q135 205 303 256q8 6 27 19q59 29 94 28q35 0 103.5 -37.5t84.5 -64.5q98 -160 99 -254q0 -201 -220 -342q-184 -119 -360 -119q-80 0 -158 39q-96 51 -96 135zM420 47q0 59 76 174q27 29 71 84l244 346q215 315 434 754q35 70 103 129 q76 63 137 63t61 -65q0 -43 -47 -131l-69 -125q-100 -209 -318 -539l-364 -540q-143 -213 -267 -213q-61 0 -61 63zM532 1204q0 -10 27 -31.5t43 -25.5q29 -6 60 -6q33 0 45 6q-63 154 -127 153q-14 0 -33 -45q-15 -37 -15 -51zM989 174q0 33 25 131q31 129 133 264 q109 145 231 203q49 23 109 23q154 0 229 -123q57 -94 58 -236q0 -88 -75 -198.5t-186 -167.5q-63 -31 -169.5 -58.5t-172.5 -27.5q-82 0 -132 57t-50 133zM1307 377q0 -29 18 -49.5t45 -20.5q33 0 74 12v17q-31 111 -109 131q-28 -72 -28 -90z" />
<glyph unicode="&#x26;" horiz-adv-x="1308" d="M190 737q0 88 77 194.5t182 174.5q150 98 307 139q12 2 71 25v164q0 33 60.5 102.5t98.5 80.5t48 11q49 0 53 -55v-92l7 -205q0 -2 4 -15.5t4 -19.5q0 -47 -47 -107.5t-103 -89.5q-35 -18 -78 -18q-61 -2 -75 -4q-233 -45 -342 -121q25 -59 125 -59q4 0 156.5 15 t158.5 15q84 0 84 -49t-55 -116q-57 -76 -121 -95q-125 -35 -256 -116q10 -6 35 -7q2 0 319 46q39 4 74 20q55 25 82 25q51 0 51 -68q0 -29 -16 -113q-8 -47 -9 -88q0 -20 3.5 -50t3.5 -42q0 -20 -5 -39q-10 -51 -79.5 -115.5t-120.5 -64.5q-45 0 -58 57q-6 25 -6 99 q0 33 19 125q-86 -10 -244 -37q-115 -20 -174 -21q-70 0 -123 23q-72 31 -72 88q0 47 45 121.5t105 117.5q-72 6 -127 52q-62 49 -62 112z" />
<glyph unicode="'" horiz-adv-x="921" d="M322 1124q0 25 20 324q6 68 88 147.5t150 79.5q45 0 55 -35q2 -10 2 -67l-8 -107l-13 -178q0 -4 4.5 -18.5t4.5 -22.5q2 -76 -79 -162t-157 -86q-53 0 -65 48q-2 9 -2 77z" />
<glyph unicode="(" horiz-adv-x="995" d="M262 639q0 291 115 641q37 111 125 229q115 152 217 152q61 0 61 -53q0 -39 -23 -75l-67 -106q-125 -270 -125 -610q0 -72 27 -293q6 -49 26 -92q31 -70 56 -113l49 -38q16 -16 16 -43q0 -80 -96 -171.5t-166 -91.5q-55 0 -108 111q-33 66 -47 98q-29 68 -33 107 q-27 285 -27 348z" />
<glyph unicode=")" horiz-adv-x="974" d="M250 1427q0 76 86 163t160 87q37 0 47 -22q57 -102 151 -305q41 -109 76 -297q37 -197 37 -328q0 -170 -82 -420q-63 -188 -176 -285q-80 -68 -141 -67q-57 0 -58 57q0 31 35 90q45 78 53 101l43 170q25 74 25 168q0 207 -53 397q-4 27 -60 197q-8 23 -80 155 q-63 116 -63 139z" />
<glyph unicode="*" horiz-adv-x="1368" d="M266 707q0 59 119 186l160 166l-117 104q-109 100 -109 135q0 59 67 122t118 63q20 0 47 -31q39 -47 43 -53q-4 72 59.5 143.5t122.5 71.5q43 0 43 -66q0 -6 -9 -97t-9 -93v-31l112 107q78 72 127 88q35 14 56 14q51 0 51 -47q0 -31 -26.5 -75t-53.5 -62q-33 -16 -82 -47 q-41 -31 -123 -121q35 -35 85 -62.5t161 -101.5q6 -6 6 -31q0 -59 -66.5 -121.5t-115.5 -62.5q4 0 -135 76q-2 -35 6 -146q4 -55 -61.5 -124.5t-123.5 -69.5q-61 0 -43 82l-2 262q-25 -23 -69 -76q-37 -59 -94.5 -103t-98.5 -44q-45 0 -45 45z" />
<glyph unicode="+" horiz-adv-x="1607" d="M260 651q0 70 81 157t146 93l179 17q2 0 8 6v231q0 41 71.5 124t117.5 95t59 12q59 0 59 -36v-394h37q6 0 93 5.5t95 5.5h109q66 -10 65 -62q0 -59 -69.5 -141t-128.5 -100q-41 -12 -99 -13q-109 0 -102 0v-289q0 -4 -39 -81q-14 -31 -66.5 -78t-84 -58.5t-56.5 -11.5 q-18 0 -37 10q-25 12 -22 29v449q-74 -6 -207 -19q-117 -12 -121 -12q-88 0 -88 61z" />
<glyph unicode="," horiz-adv-x="1032" d="M377 -182q0 35 35 88q49 78 59 99.5t10 74.5q0 45 -26 102q-33 76 -33 88q0 63 74.5 141t140.5 78q27 0 35 -6q41 -43 76 -157q6 -23 6 -78q0 -61 -21 -137q-23 -86 -106 -201q-104 -141 -195 -141q-55 0 -55 49z" />
<glyph unicode="-" horiz-adv-x="1476" d="M352 709q0 61 75 144t146 91h115q72 0 227 -8q172 -8 187 -16q29 -18 28 -52q0 -53 -64.5 -129.5t-123.5 -93.5q-39 -10 -68 -10q-4 0 -130 9t-132 9h-215q-18 0 -31.5 20t-13.5 36z" />
<glyph unicode="." horiz-adv-x="1249" d="M487 139q0 61 71 138t136 77q20 0 35 -12l19 -47q8 -14 40 -53q27 -31 27 -49q0 -61 -74.5 -135t-138.5 -74q-25 0 -37 10q-12 20 -41 59q-37 43 -37 86z" />
<glyph unicode="/" horiz-adv-x="1400" d="M197 12q0 53 34 109q33 43 101 141l229 391l144 277q72 147 157 356q29 74 109 242q31 55 103.5 107.5t125.5 52.5q29 0 49.5 -19.5t20.5 -44.5q0 -29 -25 -74q-37 -63 -41 -73q-207 -528 -616 -1217q-186 -313 -328 -313q-63 -1 -63 65z" />
<glyph unicode="0" horiz-adv-x="1476" d="M246 610q0 205 69.5 436.5t184 411.5t231.5 180q6 0 24.5 -9t25.5 -11t48 -4q55 -2 125 -21q186 -45 269 -237q59 -137 59 -332q0 -260 -72 -492q-96 -311 -301 -452q-158 -109 -272 -109q-205 0 -313 256q-78 184 -78 383zM541 791q0 -129 57 -287q82 -221 221 -221 q51 0 66 24q96 182 96 524q0 143 -25 205l-36 101q-29 68 -70 104q-29 25 -58 34l-63 19q-27 4 -76 13q-41 -82 -75 -240q-37 -163 -37 -276z" />
<glyph unicode="1" horiz-adv-x="1050" d="M268 1157q0 74 129 234q96 119 140 153q98 82 163 82q51 0 64 -47v-70q0 -8 -5 -76.5t-5 -76.5v-838q0 -4 -6.5 -27.5t-6.5 -31.5v-223q0 -27 -41 -97q-37 -61 -107.5 -114.5t-123.5 -53.5q-68 0 -68 64q0 6 6.5 19.5t6.5 19.5v233q0 29 10 84l-4 723q-43 -29 -84 -29 q-68 0 -68 72z" />
<glyph unicode="2" horiz-adv-x="1384" d="M233 61q0 63 107 226q53 86 203 307q25 35 252 328q166 213 166 235q0 31 -39 74q-33 37 -68 55q-41 23 -100 19q-2 -2 -9 -11q-12 -82 -101 -164.5t-157 -82.5q-82 0 -81 90q0 66 47 149q84 154 237 254q147 98 279 98q113 0 211 -82q102 -88 102 -202q0 -129 -174 -371 l-207 -258l-270 -375q41 0 136 6t93 6q145 0 260 -22q20 -14 64 -41q55 -29 55 -80q0 -80 -87 -173t-165 -93q-29 0 -54.5 26.5t-62.5 36.5q-63 18 -208 19q-72 0 -223.5 -19.5t-139.5 -19.5q-66 -1 -66 65z" />
<glyph unicode="3" horiz-adv-x="1531" d="M203 -197q0 45 44 111t97 104q8 6 129 74q86 45 254 146l236 155q129 94 190 213q41 80 41 105q0 66 -84 114q-14 14 -123 62q-106 35 -237 35q-41 0 -166 -15q-16 0 -61.5 -9t-49.5 -9q-29 0 -47 21.5t-18 41.5q0 172 360 342q-137 10 -315 4q-8 0 -43 -5t-39 -5 q-72 0 -72 64q0 78 84 164t156 98l82 12h542q8 0 64.5 6t64.5 6q102 0 103 -65q0 -41 -48.5 -114t-99.5 -105q-27 -14 -69 -41q-29 -25 -86 -70q426 -92 426 -336q0 -86 -76 -235q-59 -123 -131 -219q-109 -145 -242 -242q-166 -121 -313 -215q-51 -33 -193 -113l-164 -95 q-84 -48 -131 -48q-65 0 -65 63z" />
<glyph unicode="4" horiz-adv-x="1675" d="M246 840q0 76 61 149l213 221q197 203 244 279q31 47 98.5 93t116.5 46q70 0 70 -69q0 -59 -45 -117q-111 -137 -381 -418q53 -31 163 -82q70 -25 195 -55q111 -31 125 -31h33q-12 119 0 524q2 74 88 163t166 89q33 0 46 -15t13 -87v-205v-258q-37 -598 -66 -975 q-4 -68 -90 -151q-88 -90 -159 -91q-61 0 -62 103q0 2 12 201q14 225 21 358q-106 8 -301 37q-371 82 -528 213q-33 29 -33 78z" />
<glyph unicode="5" horiz-adv-x="1398" d="M143 -80q0 82 95.5 172t164.5 90q29 0 50 -22q31 -31 53 -41q92 -45 168 -45q143 0 209 174q41 111 41 227q0 244 -172 344q-61 37 -80 37q-47 0 -145.5 -70.5t-151.5 -70.5q-63 0 -64 82q0 6 5.5 35.5t5.5 37.5v252q0 39 34 269q12 86 109.5 176t173.5 90q23 0 45 -12 q10 -6 23 -31l407 12q109 0 117 -2q68 -12 67 -72q0 -72 -90 -168t-168 -96q20 0 -75 4q-82 2 -158 0q-14 0 -70.5 -4t-89.5 -4q0 -178 -2 -168q20 16 105.5 46t121.5 30q90 0 222 -111q80 -68 120 -194q35 -102 35 -207q0 -219 -78 -377q-125 -250 -303 -399 q-190 -160 -387 -160q-96 0 -207 45q-131 53 -131 131z" />
<glyph unicode="6" horiz-adv-x="1474" d="M238 424q0 299 135 610q129 303 323 473q176 154 295 154q113 0 113 -72q0 -63 -68.5 -146t-132.5 -106q-35 -4 -104 -20q-25 -10 -68 -90q-59 -119 -88 -189q-55 -143 -74 -301l2 -47q160 184 263 268q154 129 276 129q117 0 158 -67q29 -45 28 -143q0 -289 -245 -601 q-252 -315 -502 -315q-311 0 -311 463zM684 309q51 -12 64 -12q82 0 153 141q66 127 66 232q0 41 -4 51q-8 29 -43 29q-31 0 -122 -115t-91 -135q0 -8 13 -29.5t13 -30.5q0 -27 -20 -71z" />
<glyph unicode="7" horiz-adv-x="1384" d="M238 1343q0 92 106.5 187.5t200.5 95.5h676q4 0 35.5 6t41.5 6q80 0 80 -65q0 -33 -41 -111q-31 -57 -176 -174q-90 -74 -149 -158q-2 -2 -101 -157q-119 -184 -172 -383q-39 -137 -63 -365q-8 -72 -99.5 -161t-162.5 -89q-47 0 -60 29q-6 12 -6 53q0 4 9.5 47t11.5 66 q16 250 123 489q-63 6 -127 15q-104 20 -105 78q0 57 65.5 138t133.5 111q41 20 116 21q82 0 95 -16q82 125 200 280q-141 14 -503 4q-10 0 -34 -5t-30 -5q-65 0 -65 63z" />
<glyph unicode="8" horiz-adv-x="1443" d="M211 250q0 127 39 215q43 96 168 233q-90 76 -90 211q0 68 41 189q70 213 248 376.5t350 163.5q57 0 79.5 -21.5t22.5 -53.5q205 -68 205 -277q0 -193 -234 -418q121 -35 187 -112q57 -70 57 -152q0 -76 -90 -203q-117 -168 -348 -309q-223 -135 -363 -135q-68 0 -147 43 q-90 47 -113 117q-12 37 -12 133zM522 446q0 -55 8 -75q12 -37 64 -64q45 -23 84 -22q53 0 123 39q8 4 123 75q39 25 39 39q0 12 -36 46t-53 42q-47 18 -90 31q-35 10 -71.5 14t-46.5 52h-19q-70 -33 -97.5 -70t-27.5 -107zM645 1104q0 -133 127 -133q27 0 35 2 q29 6 79 36.5t68 53.5q2 2 2 33q0 68 -58 114.5t-132 46.5q-6 0 -35 -4t-41 -4q-45 -61 -45 -145z" />
<glyph unicode="9" horiz-adv-x="1435" d="M207 991q0 178 119 342q127 172 350 271q72 31 207 30q168 0 235 -41q94 -57 94 -215q0 -8 -11 -90t-11 -88t5 -57t5 -60v-223q0 -8 6 -121.5t6 -120.5q0 -133 -2 -151q-18 -152 -106 -293q-106 -170 -260 -205q-55 -14 -314 -14q-215 0 -243.5 2t-46 28.5t-17.5 47.5 q0 90 109.5 194.5t193.5 104.5q35 0 62 -29h276q10 16 10 90q0 -10 -5 120t-5 210q0 8 -10 27l-160 -78q-90 -43 -153 -43q-154 0 -248 116q-86 105 -86 246zM543 1204q0 -63 37.5 -122.5t107.5 -88.5q37 -16 53 -16q104 35 105 61q0 -16 -3 39.5t-3 177.5q-39 31 -162 31 q-78 0 -94 -6q-41 -17 -41 -76z" />
<glyph unicode=":" horiz-adv-x="929" d="M324 406q0 61 70.5 138t135.5 77q20 0 35 -13l19 -47q8 -14 41 -53q27 -31 26 -49q0 -63 -74.5 -136t-138.5 -73q-25 0 -37 10q-12 20 -41 59q-36 44 -36 87zM324 1135q0 61 70.5 138t135.5 77q20 0 35 -13l19 -47q8 -14 41 -53q27 -31 26 -49q0 -61 -74.5 -135 t-138.5 -74q-25 0 -37 10q-12 20 -41 60q-36 43 -36 86z" />
<glyph unicode=";" horiz-adv-x="903" d="M270 1079q0 63 74 140t139 77q37 0 45 -18q43 -92 43 -143q0 -70 -81.5 -145t-137.5 -75q-35 0 -45 19q-37 75 -37 145zM285 -129q0 39 30 86q43 68 47 80q16 35 17 76q0 10 -8 49l-23 80q-14 49 -14 55q0 61 70.5 141t142.5 80q27 0 33 -6t32 -76q31 -76 31 -155 q0 -72 -18 -142q-25 -86 -105 -190q-98 -127 -184 -127q-51 0 -51 49z" />
<glyph unicode="&#x3c;" horiz-adv-x="1486" d="M238 692q0 147 247 314q127 86 326 282q270 274 324 322q72 66 151 65q66 0 66 -59q0 -66 -41 -115q-188 -213 -453 -469l-194 -162q96 -76 284 -239l164 -185q63 -66 176 -200q8 -12 8 -39q0 -82 -91 -178.5t-175 -96.5q-33 0 -41 9l-233 262q-174 193 -305 289l-115 81 q-98 78 -98 119z" />
<glyph unicode="=" horiz-adv-x="1562" d="M244 403q0 78 95 185.5t185 111.5q66 4 215 17q133 10 140 10q2 0 114.5 -7t170 -9t73.5 -4q49 -8 60.5 -30t11.5 -48q0 -96 -105.5 -195.5t-199.5 -99.5q-4 0 -167 12t-173 12q-6 0 -144.5 -12t-148.5 -12q-61 0 -80 6q-47 14 -47 63zM315 965q0 82 101.5 186t187.5 106 q68 2 152 3q98 0 434 -13q88 -2 88 -80q0 -88 -98.5 -191.5t-188.5 -103.5q-6 0 -167.5 9.5t-166.5 9.5h-276q-66 0 -66 74z" />
<glyph unicode="&#x3e;" horiz-adv-x="1398" d="M346 1380q0 72 80 162t162 90q20 0 29.5 -3t39.5 -48q47 -72 52 -76l241 -297q217 -272 217 -315q0 -80 -88 -184l-268 -324l-180 -254q-106 -141 -203 -141q-61 0 -61 61t141 250q29 43 90 127q29 39 147 178q90 109 91 117q0 2 -91 115l-100 129l-151 184 q-148 186 -148 229z" />
<glyph unicode="?" horiz-adv-x="1398" d="M270 1065q0 55 27 111q6 12 53 92q104 176 243.5 273t283.5 97q80 0 167 -55q102 -66 103 -153q0 -150 -326 -584q41 6 92 33q45 25 78 24q63 0 64 -57q0 -31 -37 -98q-53 -94 -211 -166q-137 -63 -238 -64q-92 0 -92 107q0 61 49 141l97 137l114 156q100 145 101 174 q0 35 -64 67q-55 29 -84 29q-74 0 -100 -63q0 -4 8 -35q2 -8 -6 -41q-14 -74 -95 -144.5t-145 -70.5q-82 0 -82 90zM524 53q0 84 135 205q131 113 201 113q63 0 64 -60q0 -86 -134.5 -202.5t-205.5 -116.5q-25 0 -42.5 20.5t-17.5 40.5z" />
<glyph unicode="@" horiz-adv-x="1896" d="M270 662q0 240 107 458q14 43 51 129q74 145 293 316q94 74 172 98q57 16 158 16q205 0 315 -120q57 -61 57 -173q0 -80 -24 -165q-27 -98 -76 -174q-37 -59 -59 -86q-6 -10 -34 -37t-28 -31q0 -6 30 -82t30 -82q0 -53 -62.5 -114.5t-109.5 -61.5q-33 0 -43 22 q-18 49 -60 146q-53 -35 -172 -105q-12 -8 -53 -53q-12 -12 -51 -32.5t-54 -20.5q-18 0 -73 37q0 43 8 63q16 23 45 70q18 70 57 201q29 100 103 293q20 41 69 71l60 33q66 51 106 51q8 0 17 -2q18 -18 20 -41q16 -133 82 -242q14 25 33 70q23 102 22 139q0 106 -114 162 q-84 41 -174 41q-121 0 -195 -57q-57 -43 -127 -164q-2 -16 -14 -47q-100 -168 -101 -400q0 -121 29 -188q61 -150 154 -248q113 -119 237 -119q86 0 242 60q27 10 65 33q66 39 101 90q43 66 65 139q16 59 31 121q0 25 5 73t65.5 102t99.5 54q49 0 49 -96q0 -4 -20 -76 l-27 -108q-41 -195 -244 -379q-186 -168 -340 -189q-4 0 -59 -16q-127 -35 -166 -35q-68 0 -147.5 34t-133.5 87q-121 121 -194 313q-23 62 -23 222zM866 823q27 16 70 39q-6 14 -17.5 43t-17.5 43q-6 -20 -17.5 -63.5t-17.5 -61.5z" />
<glyph unicode="A" d="M219 57q0 57 17 115q53 176 186 573q84 246 168 447q82 195 121 256q115 190 243 190q27 0 43.5 -11t19.5 -38.5t5 -50.5q14 -37 37 -108q168 -559 338 -1027q33 -90 33 -159q0 -78 -80 -172q-86 -100 -170 -101q-18 0 -39 15.5t-21 40.5q-2 80 -49 198l-74 191 q-266 -160 -432 -281l-98 -100q-80 -70 -166 -70q-82 0 -82 92zM561 385l373 240l-143 434z" />
<glyph unicode="B" horiz-adv-x="1558" d="M197 1214q0 4 18 46.5t23 64.5q18 94 104 177t160 83q35 0 53 -27.5t20 -27.5q6 0 107 41q162 68 352 67q117 0 242 -47q182 -66 182 -192q0 -82 -63.5 -197t-145.5 -188q295 -121 295 -299q0 -131 -110.5 -277.5t-276.5 -253.5q-78 -49 -199 -98q-135 -51 -227 -63 q-74 -2 -235 -15q-16 -10 -50 -28q-41 -16 -67 -17q-57 0 -64 39q0 14 -2 37q-70 25 -84 35q-27 20 -26 65q0 35 14 64q10 20 49 80q33 49 33 55q0 -2 -6 207q0 119 -2 237q-2 133 -27 342q-2 14 -18 23q-25 12 -27 16q-22 20 -22 51zM594 1268q6 -92 16 -269q63 23 226 54 q135 25 218 65.5t83 77.5q0 29 -88 68q-66 29 -97 34q-43 6 -118 7q-109 0 -240 -37zM610 702q10 -236 23 -352q82 -12 125 -12q41 0 182 18q41 4 145 52q137 59 138 110q0 55 -78 100q-104 61 -176 84q-78 23 -191 23t-168 -23z" />
<glyph unicode="C" horiz-adv-x="1353" d="M201 502q0 258 116 549q135 332 359 508q94 74 170 73q111 0 244 -162l48 -53q26 -29 25 -53q0 -70 -82 -156t-155 -86q-31 0 -56 25q-4 4 -63 70.5t-115 99.5q-193 -285 -192 -629q0 -403 258 -403q41 0 49 2q33 4 119 41q33 10 86 41q10 25 39 75q31 45 86 86 q63 49 110 50q55 0 56 -64q0 -4 -8.5 -32.5t-10.5 -41.5q-12 -76 -61 -151q-53 -84 -131 -129q-162 -96 -355 -160q-78 -27 -159 -27q-213 0 -310 191q-67 135 -67 336z" />
<glyph unicode="D" horiz-adv-x="1601" d="M207 1425q0 80 93 173.5t175 93.5q49 0 61.5 -35t22.5 -68q35 18 164 39q123 20 195 21q164 0 352 -39q250 -51 301 -140q8 -14 20 -38q18 -57 19 -111q0 -57 -27 -135l-47 -127q-82 -238 -391 -529q-256 -242 -537 -407q-45 -18 -129 -57l-63 -43q-31 -20 -70 -21 q-41 0 -51 18q-20 35 -27 119q-20 227 -28 447v700q0 12 -3.5 40t-7.5 38t-16 22q0 4 -3 17.5t-3 21.5zM557 893q-2 -57 27 -502q35 10 90 33q170 102 321 242q203 180 250 323l28.5 70t14.5 63q0 43 -18 68q-49 68 -252 100q-145 25 -293 25q-125 0 -168 -23v-399z" />
<glyph unicode="E" horiz-adv-x="1536" d="M250 696v703q0 51 72.5 135t121 97.5t62.5 13.5q35 0 46 -16.5t26 -16.5q4 0 84 14q88 14 122 16q332 29 482 29h106q72 -12 72 -72q0 -84 -91 -173t-167 -89q-6 0 -56.5 3t-56.5 3q-172 0 -506 -30v-234q39 -10 68 -10q-4 0 -4 1q0 5 191 42q218 43 392 43q63 0 86 -4 q51 -14 52 -59q0 -55 -61.5 -132t-123.5 -110q-41 -20 -104 -23q-53 0 -107 -2q-88 -8 -262 -32q-12 -2 -112 -29q4 -76 8 -107q6 -55 22 -116l21 -95q16 -70 34.5 -105.5t61.5 -35.5q10 0 98 22.5t134 39.5q88 31 145 63q4 4 102 94q18 18 62.5 37t64.5 19q27 0 43.5 -21.5 t16.5 -44.5q0 -70 -70 -158q-78 -102 -238 -198q-80 -47 -264 -111q-203 -70 -293 -70q-117 0 -155 68q-47 84 -74 231q-14 49 -33 150q-18 149 -18 270z" />
<glyph unicode="F" horiz-adv-x="1329" d="M254 889v557q0 51 72.5 135t122 98.5t63.5 14.5q49 0 52 -28t28 -28q8 0 147.5 19.5t147.5 19.5h297q4 0 36.5 5.5t39.5 5.5q78 0 77 -66q0 -66 -75 -156q-82 -94 -170 -108q-78 -12 -93 -12h-292q-4 0 -48 -5q-49 -6 -75 -8q-2 -2 -11 -6q0 -195 15 -360 q258 125 526 125q74 0 88 -5q49 -12 49 -61q0 -66 -72.5 -154t-136.5 -100q-8 -2 -208 -18q-150 -10 -238 -52v-497q0 -10 -10 -23q-14 -51 -66 -112q-57 -68 -110 -88q-45 -18 -72 -19q-61 0 -62 41v590q0 6 -11 146.5t-11 148.5z" />
<glyph unicode="G" horiz-adv-x="1648" d="M238 520q0 94 41 262q90 379 409 627q291 225 598 225q127 0 197 -73q14 -14 14 -66q0 -76 -87 -170t-165 -94q-41 0 -58.5 42t-88.5 42q-164 0 -305.5 -91t-184.5 -233l-37 -121q-18 -72 -18 -157q0 -125 43 -230q57 -131 170 -186q12 -4 90 -18.5t76 -14.5q61 0 174 45 q102 41 156 80v213h-187q-66 0 -119 -19.5t-82 -19.5q-96 0 -96 74q0 70 82 163t162 97q51 4 154 16q59 8 198 9q12 0 53 2q33 4 56 2q37 -4 76 -19q18 -6 20 -37q1 -7 1 -16q0 -27 -5 -70q-4 -63 -4 -59v-254q0 -6 7 -61.5t7 -63.5q0 -74 -85 -164t-161 -90q-43 0 -71 47 q-53 -47 -234 -121q-197 -78 -293 -77q4 0 -125 24q-39 4 -104 23q-152 82 -223 254q-51 128 -51 278z" />
<glyph unicode="H" horiz-adv-x="1783" d="M221 1120q0 -3 0 -2q1 0 6 250q0 80 95.5 175t175.5 95q55 0 55 -65q0 -16 -2 -41q-3 -19 -3 -77q0 -77 5 -224q2 -109 2 -111q4 -61 20 -114q10 0 34 -3.5t30 -3.5t131 10.5t133 10.5h287v58q0 138 -8 208q-2 12 -14.5 44t-12.5 40q0 78 91 176.5t171 98.5q39 0 53 -23 q31 -49 39 -127q12 -127 13 -278v-271q0 -41 14 -258q18 -252 31 -326l18 -79q14 -53 14 -60q0 -80 -90 -174t-170 -94q-47 0 -65 43l-23 96q-27 125 -37 303l-18 297l-598 -16q16 -205 16 -195v-280q0 -76 -94 -175.5t-174 -99.5q-45 0 -59 27q-6 11 -6 37q0 20 4 49 q5 48 5 105q0 28 -1 59q-12 182 -41 567z" />
<glyph unicode="I" horiz-adv-x="1388" d="M242 31q0 84 94 172t166 88h-2q0 -1 100 -10q0 8 -3 29.5t-3 27.5v285l-12 192q-14 209 -17 309q-5 111 -5 168q0 28 1 43q-41 0 -125 -8t-82 -8q-70 0 -69 63q0 76 84 164q80 82 151 94q127 25 373 25q-8 0 43 2q23 1 43 1t39 -1q49 -2 77.5 -10t28.5 -60 q0 -80 -88 -166q-86 -85 -154 -86q-2 0 -3 1l28 -412v-354q0 -6 4 -24.5t4 -27.5q12 -145 13 -227q179 11 179 12h-1q70 0 86 -6q39 -12 39 -61q0 -61 -62.5 -138t-140.5 -108q-30 -13 -77 -13q-7 0 -13 1h-82q-332 -33 -442 -33q-172 0 -172 76z" />
<glyph unicode="J" horiz-adv-x="1531" d="M221 334q0 141 147.5 327.5t262.5 186.5q59 0 59 -64q0 -37 -35 -100q-16 -29 -71 -82q-43 -43 -43 -67q0 -74 153 -158q113 -59 164 -70q109 -25 178 -24q14 39 15 100q0 39 -55.5 465t-55.5 512h-88q-4 0 -164 -27.5t-170 -27.5q-74 0 -74 65q0 88 109 184 q100 92 176 93q6 0 23.5 -3.5t23.5 -3.5t105 17q109 18 151 24q16 2 133 2t166 -10q31 -4 90 -24q23 -12 23 -54q0 -51 -51.5 -120.5t-118.5 -108.5q20 -176 63 -475q27 -178 27 -303q0 -248 -129 -424q-152 -205 -410 -205q-184 0 -379 100q-225 117 -225 275z" />
<glyph unicode="K" horiz-adv-x="1628" d="M252 1133q0 156 6 278q2 74 87 163t163 89q61 0 61 -45v-381q0 -98 19 -262q100 115 309 332q49 47 132 149.5t124 136.5q68 59 129 60q59 0 59 -60q0 -66 -59 -147q-72 -94 -405 -453q170 -104 362.5 -310t278.5 -372q10 -18 43 -61q20 -25 20 -57q0 -76 -91 -168.5 t-163 -92.5q-43 0 -69.5 42l-51.5 85q-16 41 -155 230q-72 86 -201 207q-152 143 -246 198q-1 -12 -1 -26q0 -29 3 -70q4 -82 4 -113q0 -27 -8 -100q-10 -80 -10 -100l10 -37q-4 -76 -95 -169t-165 -93q-39 0 -52 19q-10 15 -10 96q0 25 1 57l6 30q3 50 2 111q0 81 -4 180 q-4 129 -21 404q-12 248 -12 250z" />
<glyph unicode="L" horiz-adv-x="1441" d="M217 1204q0 205 2 232q4 76 97.5 167t170.5 91q66 0 66 -47v-316q0 -231 22 -586q10 -88 27 -262q2 -74 19 -209q51 10 139 31q207 61 409 62q256 0 256 -88q0 -82 -95 -179.5t-179 -97.5q-6 0 -93 8t-95 8q-102 0 -189 -16l-266 -57q-131 -29 -139 -29q-43 0 -59.5 14.5 t-26 69.5t-13.5 119q-12 117 -28 348q-25 391 -25 737z" />
<glyph unicode="M" horiz-adv-x="2142" d="M229 68q0 14 17 133q18 133 30 188q29 131 136 508q57 201 84 279q55 164 120 286q29 51 101 115q18 18 129 65q74 33 96 33q59 0 66 -67q2 -51 2 -103q4 -74 20 -207q25 -141 158 -544q10 31 37 94q57 100 153 295q61 143 172 284q150 193 271 193q68 0 67 -47v-336 q0 -6 4 -45t4 -55q0 -78 11 -234q10 -92 39 -330l18 -84q25 -178 25 -274q0 -84 -86 -180q-88 -102 -181 -103q-55 0 -61 41q-6 88 -25 265q-12 51 -32 168q-10 76 -27 239q-4 123 -23 332q-72 -135 -135 -350l-102 -396q-20 -72 -105.5 -143.5t-146.5 -71.5q-43 0 -39 0 q-18 4 -31 35q-70 186 -147 459l-129 461q-125 -395 -139 -623q-4 -8 -9 -26q-4 -115 -99 -221.5t-179 -106.5q-64 0 -64 74z" />
<glyph unicode="N" horiz-adv-x="1699" d="M254 737q0 4 8 215t8 217v281l15 39q25 70 104.5 139.5t142.5 69.5q31 0 43 -10q17 -17 17 -48q0 -8 -4.5 -28t-4.5 -32q0 -20 13 -54q135 -346 557 -928q10 78 10 164v684q0 2 15 43q25 76 103.5 142.5t141.5 66.5q43 0 52 -37q3 -8 2 -37v-35q-12 -338 -12.5 -659.5 t12.5 -626.5q0 -6 10 -26.5t10 -34.5q0 -84 -82 -185q-90 -109 -180 -108q-33 0 -50.5 19.5t-13.5 19.5q-8 0 -17 -3t-15 -3q-47 0 -77 48l-61 97q-94 117 -215 291l-204 297q0 -176 14 -402q0 -16 12.5 -69.5t12.5 -59.5q0 -82 -86 -169t-162 -87q-57 0 -76 49 q-6 16 -14 103q-29 288 -29 657z" />
<glyph unicode="O" horiz-adv-x="1765" d="M238 406q0 406 235 786q248 403 578 457q193 31 180 30q160 0 285.5 -118.5t152.5 -309.5q12 -90 12 -164q0 -279 -153 -530q-170 -276 -492 -465q-98 -57 -223 -97t-211 -40q-203 0 -295 158q-69 117 -69 293zM559 604q0 -115 41 -198q59 -123 197 -123q94 0 245 73 q172 84 240 201q84 145 84 330q0 295 -184 418q-72 47 -144 47q-37 0 -63 -9q-33 -8 -92 -32l-74 -39q-20 -6 -49 -25q-96 -125 -150 -315q-51 -170 -51 -328z" />
<glyph unicode="P" horiz-adv-x="1443" d="M217 1337q0 8 9.5 34t11.5 36q14 90 99 174t161 84q37 0 48 -16.5t17 -16.5q-2 0 70 21q188 51 321 51q303 0 461 -162q57 -59 58 -135q0 -186 -213 -397q-193 -190 -418 -275q-63 -25 -254 -71q2 -82 16 -252q10 -158 10 -160q0 -86 -84 -184.5t-172 -98.5q-35 0 -47 13 q-23 23 -26 77q-35 326 -35 535v293q0 6 -5 63.5t-5 63.5v272q0 4 -11.5 23.5t-11.5 27.5zM561 1343q10 -233 10 -342q29 -2 46.5 -12t21.5 -10q16 0 109 16q104 20 159 39q33 10 144 74q94 53 94 96q0 33 -80 84q-66 43 -96 53q-59 16 -101 21q-122 7 -122 8h4 q-33 0 -189 -27z" />
<glyph unicode="Q" horiz-adv-x="1804" d="M190 575q0 76 35 232q14 41 33 113q55 238 295 477q229 231 428 270q127 27 139 27q8 0 60 -27q14 -2 37 -4q68 -6 112 -27q403 -176 404 -675q0 -109 -25 -252q-31 -180 -84 -269l-41 -67q0 -18 84 -76q25 -14 25 -51q0 -84 -96.5 -173t-172.5 -89q-41 0 -87 45t-44 45 q6 0 -59 -35q-176 -98 -346 -98q-303 0 -500 186t-197 448zM512 774q0 -201 156 -346q164 -156 409 -156q33 0 68 2l-105 132l-73 82q-37 42 -37 71q0 82 95 176t181 94q25 0 37 -7t19 -31l8 -29q18 -31 67 -81t62 -71q12 113 12 166q0 197 -45 279q-164 289 -436 288 q-6 0 -53.5 -13t-53.5 -13q-8 0 -18 6t-17 6q-14 0 -71 -53q-51 -45 -58 -55q-41 -53 -71 -119q-39 -88 -64 -215q-12 -62 -12 -113z" />
<glyph unicode="R" horiz-adv-x="1632" d="M184 1235q0 33 29 90q14 18 35 53q16 86 41 125q37 59 100.5 105.5t116.5 46.5q47 0 69 -49q143 66 332 65q160 0 307 -39q193 -49 283 -151q29 -33 29 -115q0 -141 -118 -296t-296 -259l131 -113q90 -80 129 -133q47 -63 100.5 -164.5t77.5 -132.5q8 -8 9 -35 q0 -80 -88.5 -172t-167.5 -92q-59 0 -134 146q-23 51 -75 141q-53 70 -131 143q-96 94 -162 117t-209 55q-4 -2 -4 -303q12 -33 12 -49q0 -80 -88 -178q-92 -104 -176 -104q-20 0 -43 11t-23 29v785q0 6 -5 95t-5 95v219q-76 1 -76 64zM580 1276q0 3 0 2q1 0 10 -160v-200 q61 35 129 40l115 9q92 18 233 88l80 37q55 33 55 75q0 55 -139 111q-88 33 -160 47q-92 18 -196 18q-6 0 -52 -4q-51 -4 -67 -4l-8 6v-65z" />
<glyph unicode="S" horiz-adv-x="1462" d="M193 752q0 203 188 475q195 283 426 391l108 51q49 18 187 19q258 0 258 -185q0 -43 -2 -57q-12 -80 -99.5 -161t-156.5 -81q-53 0 -62 39q1 8 1 17q0 20 -3 49q-10 37 -63 45q-10 2 -74 2q-78 0 -102 -8q-96 -27 -191.5 -165.5t-95.5 -230.5q0 -6 3 -19t3 -24l5 -2 q5 -2 14 -2q8 0 230 57.5t228 57.5q121 0 246 -76q137 -84 193 -215q18 -43 18 -123q0 -129 -102 -287q-39 -59 -115 -131.5t-131 -99.5q-106 -53 -268 -94q-168 -43 -279 -43q-233 0 -233 147q0 88 104 226q113 147 215 147q59 0 59 -68q0 -41 -36 -102q25 -20 92 -20 q84 0 215 34q121 33 153 56q2 14 2 26q0 109 -120 205q-111 86 -205 86q-4 0 -129 -39q-141 -43 -207 -57q-76 -18 -133 -19q-141 1 -141 179z" />
<glyph unicode="T" horiz-adv-x="1748" d="M70 1303q0 72 84 166t165 106q123 20 373 55q166 16 490 35q274 16 303 16q102 0 139 -6q86 -16 86 -73q0 -82 -94 -176.5t-174 -94.5q-6 0 -36 6l-40 9q-20 2 -76 2q-37 0 -192 -9q-31 -2 -90 -12q2 -82 12 -258q10 -160 10 -164v-225q0 -8 5 -151.5t5 -149.5 q0 -76 -2 -166q-2 -78 -96 -177t-170 -99q-27 0 -49 12q-12 8 -16 43q-4 29 0 47q10 39 10 125q0 8 -5 100t-5 98v224q0 6 -11.5 197.5t-11.5 199.5v326h-61q-8 0 -243 -36t-243 -36q-27 0 -47 19.5t-20 46.5z" />
<glyph unicode="U" horiz-adv-x="1648" d="M248 510q0 4 8 192q10 199 10 248q8 231 8 256q8 160 26.5 226.5t98.5 139.5t144 73q61 0 61 -78q0 -6 -21.5 -432t-21.5 -433q0 -348 94 -417q29 -23 129 -23q135 0 240 64q12 18 41 55q43 53 104 84q-27 664 -26 780v193q4 66 88 151.5t160 85.5q61 0 61 -45v-256 q0 -4 4 -73.5t4 -88.5q2 -158 13 -413q6 -100 24 -320q16 -197 16 -200q0 -88 -73 -183q-80 -100 -172 -100q-25 0 -42.5 10t-19.5 43v43q-6 33 -14 103q-117 -109 -290 -182.5t-312 -73.5q-137 0 -205 49q-137 98 -137 522z" />
<glyph unicode="V" horiz-adv-x="1376" d="M164 1386q0 82 93 172.5t171 90.5q31 0 43 -9.5t21 -70.5q6 -39 20 -92q45 -158 297 -824q72 274 131 475q23 63 68 203q25 84 43 121q37 80 102.5 138.5t124.5 58.5q63 0 63 -68q0 -27 -36 -131l-45 -131q-45 -143 -123 -436l-74 -334q-41 -197 -55 -334 q-10 -82 -95.5 -172t-160.5 -90q-31 0 -37 8q-14 16 -62 113q-98 203 -149 342l-172 454q-94 254 -144 459q-2 6 -13 28.5t-11 28.5z" />
<glyph unicode="W" horiz-adv-x="1892" d="M231 1362q0 47 2 55q10 76 97.5 156t150.5 80q57 0 68 -66q0 -51 2 -100q16 -199 67 -451l91 -399q2 -2 6 4q47 125 96 340l80 365q16 66 97 138t147 72q39 0 47 -16q14 -29 30 -110l25 -138q74 -424 143 -651q78 238 103 373q16 156 59 467q10 57 70 135q63 88 127 113 q45 18 65 18q63 0 64 -72q0 -4 -13.5 -54t-17.5 -73q-10 -129 -45 -383q-4 -27 -92 -338q-31 -111 -170 -573q-27 -82 -113 -166t-157 -84q-45 0 -72 37l-49 92q-6 29 -21 84q-4 16 -37 137l-84 340l-118 -383q-76 -221 -174 -293q-80 -55 -125 -55q-35 0 -48 12l-24 74 q-88 227 -111 352l-92 426q-74 351 -74 535z" />
<glyph unicode="X" horiz-adv-x="1722" d="M158 18q0 41 26 103q18 45 39 88q66 158 107 221q55 86 200 272q125 162 125 168q0 18 -108 158l-268 322q-18 25 -19 53q0 80 98.5 180t186.5 100q35 0 76 -13t49 -21q9 -9 9 -38q0 -22 -5 -55l262 -331q94 115 231 235q186 162 277 162q68 0 67 -70q0 -127 -239 -284 q-55 -37 -135 -129q-72 -84 -72 -99q0 -2 217 -292q66 -88 229 -328q4 -6 117 -119q8 -8 8 -33q0 -88 -99 -186t-183 -98q-37 0 -45 8q-57 51 -168 215q-37 55 -353 475q-61 -74 -176 -231q-59 -88 -123 -261q-33 -86 -108 -159q-84 -80 -158 -80q-65 -1 -65 67z" />
<glyph unicode="Y" horiz-adv-x="1415" d="M197 1135q0 6 22 284q6 78 95 169t163 91q72 0 72 -65q0 -6 -11.5 -40t-13.5 -46q-12 -70 -12 -197q0 -451 352 -450q160 0 203 67q18 29 29 103q14 100 14 159q0 51 -41 160v33q0 78 82 172t164 94q43 0 51 -18q35 -74 53 -164q6 -37 6 -90q0 -530 -452 -766l22 -330 q0 -16 7.5 -52t7.5 -40q0 -78 -90.5 -173t-165.5 -95q-39 0 -52.5 18t-17.5 74q-2 39 -2 78q-2 61 -8 178q-18 215 -19 203q0 33 4 63q-16 6 -51 8q-229 14 -334 211q-77 146 -77 361z" />
<glyph unicode="Z" horiz-adv-x="1849" d="M156 33q0 59 88 225q39 47 110 141q217 305 779 947h-47q-115 0 -205 -9l-238 -26q-145 -16 -151 -17q-57 0 -76 9q-33 14 -33 57q0 80 94 178t174 98q6 0 28.5 -5t29.5 -5q-8 0 79 8q135 16 271.5 30.5t302.5 14.5t295 -22q45 -8 45 -64q0 -45 -48 -113.5t-93 -101.5 q-29 -20 -78 -39q-41 -14 -80 -30q-20 -6 -53 -31q-545 -586 -793 -956q72 6 246 26q238 31 467 31q211 0 233 -2l154 -29q8 0 45 -29q14 -4 43 -20q29 -23 29 -61q0 -82 -93.5 -172.5t-164.5 -90.5q-37 0 -78 25q-10 10 -33 23q-47 16 -113 22q-23 2 -219 2h-215 q-59 -4 -379 -45q-41 -6 -147 -25q-94 -16 -101 -16q-75 0 -75 72z" />
<glyph unicode="[" horiz-adv-x="1218" d="M270 877q0 285 13 489q2 45 64.5 123t121.5 100q72 29 106 29h293q8 0 33 7t31 7q59 0 59 -61q0 -72 -76.5 -158t-152.5 -100q-61 -12 -180 -13q-4 -59 -4 -215q0 -291 51 -602l4 -190q160 33 356 37q8 0 35 7t33 7q59 0 59 -65q0 -61 -58.5 -140.5t-129.5 -107.5 q-35 -16 -58 -17q-70 -2 -206 -8l-158 -20q-98 -14 -103 -15q-20 0 -50.5 16.5t-30.5 39.5v231q0 4 -18.5 111.5t-20.5 148.5q-13 140 -13 359z" />
<glyph unicode="\" horiz-adv-x="1550" d="M238 1376q0 74 86 164t163 90q39 0 50 -14q35 -45 79 -125q68 -123 72 -129l123 -201q227 -369 229 -370q143 -229 273 -410q23 -33 86 -98q29 -29 28 -68q0 -76 -86 -166t-159 -90q-37 0 -47 12q-129 152 -217 297l-228 340l-377 619q-75 124 -75 149z" />
<glyph unicode="]" horiz-adv-x="1271" d="M270 59q0 82 101 174q94 90 166 91h211v213q0 4 -5.5 67.5t-5.5 69.5v649q-10 -10 -26 -10q-8 0 -30 5t-32 5h-211q-53 0 -53 61q0 72 86 161t160 91q61 2 112 2q309 0 310 -69v-1186q0 -6 -5.5 -16.5t-5.5 -14.5q2 -43 -2 -125q-12 -82 -100 -160.5t-166 -78.5 q-6 0 -144 10t-145 10q-6 0 -75.5 -5t-73.5 -5q-66 0 -66 61z" />
<glyph unicode="^" horiz-adv-x="1314" d="M250 1102q0 59 84 153l145 160q25 39 72 103q102 117 192 116q31 0 37 -8l103 -141q43 -57 145 -164l51 -45q18 -20 19 -51q0 -66 -77 -145t-144 -79q-10 0 -64 41q-61 45 -215 242l-135 -145q-88 -90 -156 -90q-57 0 -57 53z" />
<glyph unicode="_" horiz-adv-x="1333" d="M39 33q0 68 82 150.5t151 82.5h506q6 0 43 -5t43 -5h434q23 0 39.5 -26.5t16.5 -39.5q0 -63 -83 -149t-149 -86q-4 0 -13 5t-15 5h-426q-4 0 -42 4t-44 4h-498q-45 1 -45 60z" />
<glyph unicode="`" horiz-adv-x="1087" d="M332 1438q0 68 76.5 148.5t146.5 80.5q29 0 35 -8q20 -18 30.5 -56t36.5 -112q12 -25 111 -145q6 -10 6 -35q0 -68 -81 -149t-146 -81q-29 0 -84 68q-31 35 -74 104q-57 146 -57 185z" />
<glyph unicode="a" d="M219 57q0 57 17 115q53 176 186 573q84 246 168 447q82 195 121 256q115 190 243 190q27 0 43.5 -11t19.5 -38.5t5 -50.5q14 -37 37 -108q168 -559 338 -1027q33 -90 33 -159q0 -78 -80 -172q-86 -100 -170 -101q-18 0 -39 15.5t-21 40.5q-2 80 -49 198l-74 191 q-266 -160 -432 -281l-98 -100q-80 -70 -166 -70q-82 0 -82 92zM561 385l373 240l-143 434z" />
<glyph unicode="b" horiz-adv-x="1558" d="M197 1214q0 4 18 46.5t23 64.5q18 94 104 177t160 83q35 0 53 -27.5t20 -27.5q6 0 107 41q162 68 352 67q117 0 242 -47q182 -66 182 -192q0 -82 -63.5 -197t-145.5 -188q295 -121 295 -299q0 -131 -110.5 -277.5t-276.5 -253.5q-78 -49 -199 -98q-135 -51 -227 -63 q-74 -2 -235 -15q-16 -10 -50 -28q-41 -16 -67 -17q-57 0 -64 39q0 14 -2 37q-70 25 -84 35q-27 20 -26 65q0 35 14 64q10 20 49 80q33 49 33 55q0 -2 -6 207q0 119 -2 237q-2 133 -27 342q-2 14 -18 23q-25 12 -27 16q-22 20 -22 51zM594 1268q6 -92 16 -269q63 23 226 54 q135 25 218 65.5t83 77.5q0 29 -88 68q-66 29 -97 34q-43 6 -118 7q-109 0 -240 -37zM610 702q10 -236 23 -352q82 -12 125 -12q41 0 182 18q41 4 145 52q137 59 138 110q0 55 -78 100q-104 61 -176 84q-78 23 -191 23t-168 -23z" />
<glyph unicode="c" horiz-adv-x="1353" d="M201 502q0 258 116 549q135 332 359 508q94 74 170 73q111 0 244 -162l48 -53q26 -29 25 -53q0 -70 -82 -156t-155 -86q-31 0 -56 25q-4 4 -63 70.5t-115 99.5q-193 -285 -192 -629q0 -403 258 -403q41 0 49 2q33 4 119 41q33 10 86 41q10 25 39 75q31 45 86 86 q63 49 110 50q55 0 56 -64q0 -4 -8.5 -32.5t-10.5 -41.5q-12 -76 -61 -151q-53 -84 -131 -129q-162 -96 -355 -160q-78 -27 -159 -27q-213 0 -310 191q-67 135 -67 336z" />
<glyph unicode="d" horiz-adv-x="1601" d="M207 1425q0 80 93 173.5t175 93.5q49 0 61.5 -35t22.5 -68q35 18 164 39q123 20 195 21q164 0 352 -39q250 -51 301 -140q8 -14 20 -38q18 -57 19 -111q0 -57 -27 -135l-47 -127q-82 -238 -391 -529q-256 -242 -537 -407q-45 -18 -129 -57l-63 -43q-31 -20 -70 -21 q-41 0 -51 18q-20 35 -27 119q-20 227 -28 447v700q0 12 -3.5 40t-7.5 38t-16 22q0 4 -3 17.5t-3 21.5zM557 893q-2 -57 27 -502q35 10 90 33q170 102 321 242q203 180 250 323l28.5 70t14.5 63q0 43 -18 68q-49 68 -252 100q-145 25 -293 25q-125 0 -168 -23v-399z" />
<glyph unicode="e" horiz-adv-x="1536" d="M250 696v703q0 51 72.5 135t121 97.5t62.5 13.5q35 0 46 -16.5t26 -16.5q4 0 84 14q88 14 122 16q332 29 482 29h106q72 -12 72 -72q0 -84 -91 -173t-167 -89q-6 0 -56.5 3t-56.5 3q-172 0 -506 -30v-234q39 -10 68 -10q-4 0 -4 1q0 5 191 42q218 43 392 43q63 0 86 -4 q51 -14 52 -59q0 -55 -61.5 -132t-123.5 -110q-41 -20 -104 -23q-53 0 -107 -2q-88 -8 -262 -32q-12 -2 -112 -29q4 -76 8 -107q6 -55 22 -116l21 -95q16 -70 34.5 -105.5t61.5 -35.5q10 0 98 22.5t134 39.5q88 31 145 63q4 4 102 94q18 18 62.5 37t64.5 19q27 0 43.5 -21.5 t16.5 -44.5q0 -70 -70 -158q-78 -102 -238 -198q-80 -47 -264 -111q-203 -70 -293 -70q-117 0 -155 68q-47 84 -74 231q-14 49 -33 150q-18 149 -18 270z" />
<glyph unicode="f" horiz-adv-x="1329" d="M254 889v557q0 51 72.5 135t122 98.5t63.5 14.5q49 0 52 -28t28 -28q8 0 147.5 19.5t147.5 19.5h297q4 0 36.5 5.5t39.5 5.5q78 0 77 -66q0 -66 -75 -156q-82 -94 -170 -108q-78 -12 -93 -12h-292q-4 0 -48 -5q-49 -6 -75 -8q-2 -2 -11 -6q0 -195 15 -360 q258 125 526 125q74 0 88 -5q49 -12 49 -61q0 -66 -72.5 -154t-136.5 -100q-8 -2 -208 -18q-150 -10 -238 -52v-497q0 -10 -10 -23q-14 -51 -66 -112q-57 -68 -110 -88q-45 -18 -72 -19q-61 0 -62 41v590q0 6 -11 146.5t-11 148.5z" />
<glyph unicode="g" horiz-adv-x="1648" d="M238 520q0 94 41 262q90 379 409 627q291 225 598 225q127 0 197 -73q14 -14 14 -66q0 -76 -87 -170t-165 -94q-41 0 -58.5 42t-88.5 42q-164 0 -305.5 -91t-184.5 -233l-37 -121q-18 -72 -18 -157q0 -125 43 -230q57 -131 170 -186q12 -4 90 -18.5t76 -14.5q61 0 174 45 q102 41 156 80v213h-187q-66 0 -119 -19.5t-82 -19.5q-96 0 -96 74q0 70 82 163t162 97q51 4 154 16q59 8 198 9q12 0 53 2q33 4 56 2q37 -4 76 -19q18 -6 20 -37q1 -7 1 -16q0 -27 -5 -70q-4 -63 -4 -59v-254q0 -6 7 -61.5t7 -63.5q0 -74 -85 -164t-161 -90q-43 0 -71 47 q-53 -47 -234 -121q-197 -78 -293 -77q4 0 -125 24q-39 4 -104 23q-152 82 -223 254q-51 128 -51 278z" />
<glyph unicode="h" horiz-adv-x="1783" d="M221 1120q0 -3 0 -2q1 0 6 250q0 80 95.5 175t175.5 95q55 0 55 -65q0 -16 -2 -41q-3 -19 -3 -77q0 -77 5 -224q2 -109 2 -111q4 -61 20 -114q10 0 34 -3.5t30 -3.5t131 10.5t133 10.5h287v58q0 138 -8 208q-2 12 -14.5 44t-12.5 40q0 78 91 176.5t171 98.5q39 0 53 -23 q31 -49 39 -127q12 -127 13 -278v-271q0 -41 14 -258q18 -252 31 -326l18 -79q14 -53 14 -60q0 -80 -90 -174t-170 -94q-47 0 -65 43l-23 96q-27 125 -37 303l-18 297l-598 -16q16 -205 16 -195v-280q0 -76 -94 -175.5t-174 -99.5q-45 0 -59 27q-6 11 -6 37q0 20 4 49 q5 48 5 105q0 28 -1 59q-12 182 -41 567z" />
<glyph unicode="i" horiz-adv-x="1024" d="M293 1374q0 86 113.5 191.5t195.5 105.5q41 0 53 -24q15 -29 15 -76v-12q-1 -25 -1 -43q0 -37 3 -50q2 -25 5 -76t19 -516q10 -158 27 -452q2 -29 11 -96.5t9 -71.5q0 -78 -90 -184.5t-176 -106.5q-31 0 -47 12.5t-18 32.5q-2 55 -9 164l-34 522v260q0 -12 -23 349 q-10 4 -31 16q-22 20 -22 55z" />
<glyph unicode="j" horiz-adv-x="1576" d="M225 334q0 139 146.5 324.5t261.5 185.5q57 0 57 -64q0 -35 -33 -98q-16 -29 -71 -82q-43 -43 -43 -68q0 -74 153 -155q111 -59 162 -70q109 -23 176 -22q16 37 17 98q0 59 -27 248q-90 682 -90 764t83 181t173 99q37 0 49 -28q6 -20 21 -164q10 -111 34 -324l45 -291 q23 -166 23 -282q0 -246 -131 -422q-147 -203 -406 -203q-184 0 -376 100q-224 115 -224 273z" />
<glyph unicode="k" horiz-adv-x="1628" d="M252 1133q0 156 6 278q2 74 87 163t163 89q61 0 61 -45v-381q0 -98 19 -262q100 115 309 332q49 47 132 149.5t124 136.5q68 59 129 60q59 0 59 -60q0 -66 -59 -147q-72 -94 -405 -453q170 -104 362.5 -310t278.5 -372q10 -18 43 -61q20 -25 20 -57q0 -76 -91 -168.5 t-163 -92.5q-43 0 -69.5 42l-51.5 85q-16 41 -155 230q-72 86 -201 207q-152 143 -246 198q-1 -12 -1 -26q0 -29 3 -70q4 -82 4 -113q0 -27 -8 -100q-10 -80 -10 -100l10 -37q-4 -76 -95 -169t-165 -93q-39 0 -52 19q-10 15 -10 96q0 25 1 57l6 30q3 50 2 111q0 81 -4 180 q-4 129 -21 404q-12 248 -12 250z" />
<glyph unicode="l" horiz-adv-x="1441" d="M217 1204q0 205 2 232q4 76 97.5 167t170.5 91q66 0 66 -47v-316q0 -231 22 -586q10 -88 27 -262q2 -74 19 -209q51 10 139 31q207 61 409 62q256 0 256 -88q0 -82 -95 -179.5t-179 -97.5q-6 0 -93 8t-95 8q-102 0 -189 -16l-266 -57q-131 -29 -139 -29q-43 0 -59.5 14.5 t-26 69.5t-13.5 119q-12 117 -28 348q-25 391 -25 737z" />
<glyph unicode="m" horiz-adv-x="2142" d="M229 68q0 14 17 133q18 133 30 188q29 131 136 508q57 201 84 279q55 164 120 286q29 51 101 115q18 18 129 65q74 33 96 33q59 0 66 -67q2 -51 2 -103q4 -74 20 -207q25 -141 158 -544q10 31 37 94q57 100 153 295q61 143 172 284q150 193 271 193q68 0 67 -47v-336 q0 -6 4 -45t4 -55q0 -78 11 -234q10 -92 39 -330l18 -84q25 -178 25 -274q0 -84 -86 -180q-88 -102 -181 -103q-55 0 -61 41q-6 88 -25 265q-12 51 -32 168q-10 76 -27 239q-4 123 -23 332q-72 -135 -135 -350l-102 -396q-20 -72 -105.5 -143.5t-146.5 -71.5q-43 0 -39 0 q-18 4 -31 35q-70 186 -147 459l-129 461q-125 -395 -139 -623q-4 -8 -9 -26q-4 -115 -99 -221.5t-179 -106.5q-64 0 -64 74z" />
<glyph unicode="n" horiz-adv-x="1699" d="M254 737q0 4 8 215t8 217v281l15 39q25 70 104.5 139.5t142.5 69.5q31 0 43 -10q17 -17 17 -48q0 -8 -4.5 -28t-4.5 -32q0 -20 13 -54q135 -346 557 -928q10 78 10 164v684q0 2 15 43q25 76 103.5 142.5t141.5 66.5q43 0 52 -37q3 -8 2 -37v-35q-12 -338 -12.5 -659.5 t12.5 -626.5q0 -6 10 -26.5t10 -34.5q0 -84 -82 -185q-90 -109 -180 -108q-33 0 -50.5 19.5t-13.5 19.5q-8 0 -17 -3t-15 -3q-47 0 -77 48l-61 97q-94 117 -215 291l-204 297q0 -176 14 -402q0 -16 12.5 -69.5t12.5 -59.5q0 -82 -86 -169t-162 -87q-57 0 -76 49 q-6 16 -14 103q-29 288 -29 657z" />
<glyph unicode="o" horiz-adv-x="1765" d="M238 406q0 406 235 786q248 403 578 457q193 31 180 30q160 0 285.5 -118.5t152.5 -309.5q12 -90 12 -164q0 -279 -153 -530q-170 -276 -492 -465q-98 -57 -223 -97t-211 -40q-203 0 -295 158q-69 117 -69 293zM559 604q0 -115 41 -198q59 -123 197 -123q94 0 245 73 q172 84 240 201q84 145 84 330q0 295 -184 418q-72 47 -144 47q-37 0 -63 -9q-33 -8 -92 -32l-74 -39q-20 -6 -49 -25q-96 -125 -150 -315q-51 -170 -51 -328z" />
<glyph unicode="p" horiz-adv-x="1443" d="M217 1337q0 8 9.5 34t11.5 36q14 90 99 174t161 84q37 0 48 -16.5t17 -16.5q-2 0 70 21q188 51 321 51q303 0 461 -162q57 -59 58 -135q0 -186 -213 -397q-193 -190 -418 -275q-63 -25 -254 -71q2 -82 16 -252q10 -158 10 -160q0 -86 -84 -184.5t-172 -98.5q-35 0 -47 13 q-23 23 -26 77q-35 326 -35 535v293q0 6 -5 63.5t-5 63.5v272q0 4 -11.5 23.5t-11.5 27.5zM561 1343q10 -233 10 -342q29 -2 46.5 -12t21.5 -10q16 0 109 16q104 20 159 39q33 10 144 74q94 53 94 96q0 33 -80 84q-66 43 -96 53q-59 16 -101 21q-122 7 -122 8h4 q-33 0 -189 -27z" />
<glyph unicode="q" horiz-adv-x="1804" d="M190 575q0 76 35 232q14 41 33 113q55 238 295 477q229 231 428 270q127 27 139 27q8 0 60 -27q14 -2 37 -4q68 -6 112 -27q403 -176 404 -675q0 -109 -25 -252q-31 -180 -84 -269l-41 -67q0 -18 84 -76q25 -14 25 -51q0 -84 -96.5 -173t-172.5 -89q-41 0 -87 45t-44 45 q6 0 -59 -35q-176 -98 -346 -98q-303 0 -500 186t-197 448zM512 774q0 -201 156 -346q164 -156 409 -156q33 0 68 2l-105 132l-73 82q-37 42 -37 71q0 82 95 176t181 94q25 0 37 -7t19 -31l8 -29q18 -31 67 -81t62 -71q12 113 12 166q0 197 -45 279q-164 289 -436 288 q-6 0 -53.5 -13t-53.5 -13q-8 0 -18 6t-17 6q-14 0 -71 -53q-51 -45 -58 -55q-41 -53 -71 -119q-39 -88 -64 -215q-12 -62 -12 -113z" />
<glyph unicode="r" horiz-adv-x="1632" d="M184 1235q0 33 29 90q14 18 35 53q16 86 41 125q37 59 100.5 105.5t116.5 46.5q47 0 69 -49q143 66 332 65q160 0 307 -39q193 -49 283 -151q29 -33 29 -115q0 -141 -118 -296t-296 -259l131 -113q90 -80 129 -133q47 -63 100.5 -164.5t77.5 -132.5q8 -8 9 -35 q0 -80 -88.5 -172t-167.5 -92q-59 0 -134 146q-23 51 -75 141q-53 70 -131 143q-96 94 -162 117t-209 55q-4 -2 -4 -303q12 -33 12 -49q0 -80 -88 -178q-92 -104 -176 -104q-20 0 -43 11t-23 29v785q0 6 -5 95t-5 95v219q-76 1 -76 64zM580 1276q0 3 0 2q1 0 10 -160v-200 q61 35 129 40l115 9q92 18 233 88l80 37q55 33 55 75q0 55 -139 111q-88 33 -160 47q-92 18 -196 18q-6 0 -52 -4q-51 -4 -67 -4l-8 6v-65z" />
<glyph unicode="s" horiz-adv-x="1462" d="M193 752q0 203 188 475q195 283 426 391l108 51q49 18 187 19q258 0 258 -185q0 -43 -2 -57q-12 -80 -99.5 -161t-156.5 -81q-53 0 -62 39q1 8 1 17q0 20 -3 49q-10 37 -63 45q-10 2 -74 2q-78 0 -102 -8q-96 -27 -191.5 -165.5t-95.5 -230.5q0 -6 3 -19t3 -24l5 -2 q5 -2 14 -2q8 0 230 57.5t228 57.5q121 0 246 -76q137 -84 193 -215q18 -43 18 -123q0 -129 -102 -287q-39 -59 -115 -131.5t-131 -99.5q-106 -53 -268 -94q-168 -43 -279 -43q-233 0 -233 147q0 88 104 226q113 147 215 147q59 0 59 -68q0 -41 -36 -102q25 -20 92 -20 q84 0 215 34q121 33 153 56q2 14 2 26q0 109 -120 205q-111 86 -205 86q-4 0 -129 -39q-141 -43 -207 -57q-76 -18 -133 -19q-141 1 -141 179z" />
<glyph unicode="t" horiz-adv-x="1748" d="M70 1303q0 72 84 166t165 106q123 20 373 55q166 16 490 35q274 16 303 16q102 0 139 -6q86 -16 86 -73q0 -82 -94 -176.5t-174 -94.5q-6 0 -36 6l-40 9q-20 2 -76 2q-37 0 -192 -9q-31 -2 -90 -12q2 -82 12 -258q10 -160 10 -164v-225q0 -8 5 -151.5t5 -149.5 q0 -76 -2 -166q-2 -78 -96 -177t-170 -99q-27 0 -49 12q-12 8 -16 43q-4 29 0 47q10 39 10 125q0 8 -5 100t-5 98v224q0 6 -11.5 197.5t-11.5 199.5v326h-61q-8 0 -243 -36t-243 -36q-27 0 -47 19.5t-20 46.5z" />
<glyph unicode="u" horiz-adv-x="1648" d="M248 510q0 4 8 192q10 199 10 248q8 231 8 256q8 160 26.5 226.5t98.5 139.5t144 73q61 0 61 -78q0 -6 -21.5 -432t-21.5 -433q0 -348 94 -417q29 -23 129 -23q135 0 240 64q12 18 41 55q43 53 104 84q-27 664 -26 780v193q4 66 88 151.5t160 85.5q61 0 61 -45v-256 q0 -4 4 -73.5t4 -88.5q2 -158 13 -413q6 -100 24 -320q16 -197 16 -200q0 -88 -73 -183q-80 -100 -172 -100q-25 0 -42.5 10t-19.5 43v43q-6 33 -14 103q-117 -109 -290 -182.5t-312 -73.5q-137 0 -205 49q-137 98 -137 522z" />
<glyph unicode="v" horiz-adv-x="1376" d="M164 1386q0 82 93 172.5t171 90.5q31 0 43 -9.5t21 -70.5q6 -39 20 -92q45 -158 297 -824q72 274 131 475q23 63 68 203q25 84 43 121q37 80 102.5 138.5t124.5 58.5q63 0 63 -68q0 -27 -36 -131l-45 -131q-45 -143 -123 -436l-74 -334q-41 -197 -55 -334 q-10 -82 -95.5 -172t-160.5 -90q-31 0 -37 8q-14 16 -62 113q-98 203 -149 342l-172 454q-94 254 -144 459q-2 6 -13 28.5t-11 28.5z" />
<glyph unicode="w" horiz-adv-x="1892" d="M231 1362q0 47 2 55q10 76 97.5 156t150.5 80q57 0 68 -66q0 -51 2 -100q16 -199 67 -451l91 -399q2 -2 6 4q47 125 96 340l80 365q16 66 97 138t147 72q39 0 47 -16q14 -29 30 -110l25 -138q74 -424 143 -651q78 238 103 373q16 156 59 467q10 57 70 135q63 88 127 113 q45 18 65 18q63 0 64 -72q0 -4 -13.5 -54t-17.5 -73q-10 -129 -45 -383q-4 -27 -92 -338q-31 -111 -170 -573q-27 -82 -113 -166t-157 -84q-45 0 -72 37l-49 92q-6 29 -21 84q-4 16 -37 137l-84 340l-118 -383q-76 -221 -174 -293q-80 -55 -125 -55q-35 0 -48 12l-24 74 q-88 227 -111 352l-92 426q-74 351 -74 535z" />
<glyph unicode="x" horiz-adv-x="1722" d="M158 18q0 41 26 103q18 45 39 88q66 158 107 221q55 86 200 272q125 162 125 168q0 18 -108 158l-268 322q-18 25 -19 53q0 80 98.5 180t186.5 100q35 0 76 -13t49 -21q9 -9 9 -38q0 -22 -5 -55l262 -331q94 115 231 235q186 162 277 162q68 0 67 -70q0 -127 -239 -284 q-55 -37 -135 -129q-72 -84 -72 -99q0 -2 217 -292q66 -88 229 -328q4 -6 117 -119q8 -8 8 -33q0 -88 -99 -186t-183 -98q-37 0 -45 8q-57 51 -168 215q-37 55 -353 475q-61 -74 -176 -231q-59 -88 -123 -261q-33 -86 -108 -159q-84 -80 -158 -80q-65 -1 -65 67z" />
<glyph unicode="y" horiz-adv-x="1415" d="M197 1135q0 6 22 284q6 78 95 169t163 91q72 0 72 -65q0 -6 -11.5 -40t-13.5 -46q-12 -70 -12 -197q0 -451 352 -450q160 0 203 67q18 29 29 103q14 100 14 159q0 51 -41 160v33q0 78 82 172t164 94q43 0 51 -18q35 -74 53 -164q6 -37 6 -90q0 -530 -452 -766l22 -330 q0 -16 7.5 -52t7.5 -40q0 -78 -90.5 -173t-165.5 -95q-39 0 -52.5 18t-17.5 74q-2 39 -2 78q-2 61 -8 178q-18 215 -19 203q0 33 4 63q-16 6 -51 8q-229 14 -334 211q-77 146 -77 361z" />
<glyph unicode="z" horiz-adv-x="1849" d="M156 33q0 59 88 225q39 47 110 141q217 305 779 947h-47q-115 0 -205 -9l-238 -26q-145 -16 -151 -17q-57 0 -76 9q-33 14 -33 57q0 80 94 178t174 98q6 0 28.5 -5t29.5 -5q-8 0 79 8q135 16 271.5 30.5t302.5 14.5t295 -22q45 -8 45 -64q0 -45 -48 -113.5t-93 -101.5 q-29 -20 -78 -39q-41 -14 -80 -30q-20 -6 -53 -31q-545 -586 -793 -956q72 6 246 26q238 31 467 31q211 0 233 -2l154 -29q8 0 45 -29q14 -4 43 -20q29 -23 29 -61q0 -82 -93.5 -172.5t-164.5 -90.5q-37 0 -78 25q-10 10 -33 23q-47 16 -113 22q-23 2 -219 2h-215 q-59 -4 -379 -45q-41 -6 -147 -25q-94 -16 -101 -16q-75 0 -75 72z" />
<glyph unicode="{" horiz-adv-x="1286" d="M336 602q0 84 92 180.5t176 96.5q6 0 18.5 -3.5t16.5 -3.5q8 0 150.5 29t148.5 29q74 0 74 -66q0 -57 -55.5 -132t-114.5 -111q-49 -29 -133 -46l-127 -20q-137 -27 -158 -27q-88 0 -88 74zM426 1360q0 80 92 176t176 96q25 0 29 -2q203 -123 315 -209q29 -23 29 -61 q0 -80 -92 -176.5t-174 -96.5q-20 0 -164 93l-164 106q-47 27 -47 74zM471 84q0 78 79 166t159 108q20 0 57 4q20 4 84 27l104 45q66 27 95 27q63 0 63 -64q0 -121 -160 -229q-123 -84 -247 -115q-2 0 -64 -24q-45 -18 -88 -19q-82 0 -82 74z" />
<glyph unicode="|" horiz-adv-x="985" d="M369 129q0 8 11 164t11 162v460q0 4 5 50.5t5 52.5v201q0 117 29 227q16 70 100 144.5t150 74.5q61 0 61 -80q0 -8 -15 -288.5t-15 -288.5v-402q0 10 -12.5 -118t-8.5 -191q0 -4 4 -43q6 -31 2 -49q-10 -74 -98 -160t-160 -86q-69 0 -69 170z" />
<glyph unicode="}" horiz-adv-x="1198" d="M270 233q0 74 88 166.5t168 92.5q25 0 49 -21q45 -41 93 -70q74 -37 213 -114q14 -10 14 -45q0 -72 -89 -167t-167 -95q-49 0 -190 83q-117 70 -148 97.5t-31 72.5zM293 690q0 80 88 172t166 92q-6 0 59 -2q88 -2 271 -4q68 0 67 -63q0 -68 -76.5 -155t-152.5 -103 q-35 -6 -197 -6q-152 0 -170 2q-25 2 -35 10q-20 22 -20 57zM379 1137q0 66 59 139q98 119 232 227q162 129 252 129q66 0 65 -55q0 -53 -41 -111q-49 -68 -106 -110q-37 -20 -103 -64l-151 -142q-78 -71 -144 -71q-63 1 -63 58z" />
<glyph unicode="~" horiz-adv-x="1697" d="M313 1276q0 70 108.5 187.5t190.5 135.5q12 6 38 13.5t79 7.5q86 0 64 2q29 -2 84 -27q6 -2 120 -73q90 -57 136 -58q76 0 144.5 66.5t125.5 66.5q49 0 49 -49q0 -37 -47 -108q-14 -23 -49 -66q-193 -174 -379 -174q-88 0 -201.5 80t-193.5 80q-18 0 -37 -2 q-27 -49 -80 -90q-59 -45 -103 -45q-49 0 -49 53z" />
<glyph unicode="&#xa3;" horiz-adv-x="2095" d="M305 197q0 4 17 149q16 131 124 268q119 154 250 154q14 0 138 -27v275q0 201 172 416q188 236 411 235q96 0 244 -86q12 -8 55 -74q8 -6 22.5 -22.5t14.5 -40.5q0 -82 -95 -171t-167 -89q-39 0 -59 30q-35 51 -56 68q-33 25 -106 53q-18 8 -47 8q-35 0 -56 -47 q-16 -35 -16 -67v-158q104 31 147 37h101q76 0 90 -2q55 -12 55 -62q0 -70 -79 -158.5t-162 -99.5q-49 -2 -154 -4q-2 0 -6 -8q-8 -39 -8 -141q102 -53 227 -137l213 -148q20 -12 113 -24q111 -14 147 -27q25 -6 25 -53q0 -59 -58.5 -135t-130.5 -105q-41 -18 -100 -18 q-27 0 -110 14t-131 37.5t-124 91.5l-184 117q-33 -68 -113 -140q-86 -76 -153 -88q-184 -33 -254 -32q-197 0 -197 211zM625 362q0 -51 73 -51q100 0 101 35q-80 37 -174 66v-50z" />
<glyph unicode="&#xa5;" horiz-adv-x="2324" d="M193 883q0 88 104 185t203 99q0 12 -6.5 37t-6.5 31q0 4 9.5 43t11.5 57q4 53 24 154q18 66 102.5 137.5t145.5 71.5q37 0 51 -23q6 -12 15 -59q109 33 198 33q281 0 594 -138q63 -29 129 -100q59 -66 88 -133q37 6 150 6q104 0 115 -2q76 -10 75 -63q0 -68 -82.5 -161 t-148.5 -102q-16 -2 -96 5q-57 4 -94 -13q-53 -55 -162 -153q-78 -59 -215 -131q-201 -106 -350 -107h-216q-2 -109 3 -143q14 -145 14 -135q0 -90 -84 -189q-86 -106 -178 -106q-35 0 -51.5 16t-16.5 59q-2 68 -2 70l-12 98l-4 621q-51 0 -152 -6q-12 -2 -44 -12.5 t-40 -10.5q-71 1 -71 64zM831 930q197 -39 297 -39q131 0 201 16q96 25 207 99q-31 121 -190 194q-96 47 -293 92q-82 18 -115 19h-107v-381z" />
<glyph unicode="&#xa9;" horiz-adv-x="2076" d="M268 532q0 186 62 355q39 102 180 310t321.5 324.5t354.5 116.5q57 0 71 -4q37 -8 74 -45q49 0 144 -14q387 -119 387 -660q0 -403 -254 -671q-260 -270 -662 -271q-154 0 -328 64q-350 128 -350 495zM489 670q0 -152 64 -248q78 -115 262 -176q143 -47 264 -47 q281 0 418 133q143 143 143 450q0 176 -55 314q-82 197 -260 254q-41 12 -156 12q-6 0 -36.5 -3t-36.5 -3q-14 0 -36 13t-22 32q0 4 2 10h-30q-4 0 -84 -20q-113 -29 -240 -197q-92 -121 -151 -252q-46 -100 -46 -272zM731 766q0 244 217 371q100 59 187 59q53 0 119.5 -39 t66.5 -92q0 -57 -60.5 -116.5t-113.5 -59.5q-20 0 -64.5 41t-83.5 41q-37 0 -45 -21q-2 -6 -2 -49q0 -86 23 -125q29 -53 108 -53q6 0 106.5 24.5t106.5 24.5q47 0 47 -41q0 -33 -34 -84q-39 -57 -88 -82q-16 -10 -111 -33q-152 -37 -160 -36q-219 0 -219 270z" />
<glyph unicode="&#xaa;" d="M219 57q0 57 17 115q53 176 186 573q84 246 168 447q82 195 121 256q115 190 243 190q27 0 43.5 -11t19.5 -38.5t5 -50.5q14 -37 37 -108q168 -559 338 -1027q33 -90 33 -159q0 -78 -80 -172q-86 -100 -170 -101q-18 0 -39 15.5t-21 40.5q-2 80 -49 198l-74 191 q-266 -160 -432 -281l-98 -100q-80 -70 -166 -70q-82 0 -82 92zM561 385l373 240l-143 434z" />
<glyph unicode="&#xad;" horiz-adv-x="1476" d="M352 709q0 61 75 144t146 91h115q72 0 227 -8q172 -8 187 -16q29 -18 28 -52q0 -53 -64.5 -129.5t-123.5 -93.5q-39 -10 -68 -10q-4 0 -130 9t-132 9h-215q-18 0 -31.5 20t-13.5 36z" />
<glyph unicode="&#xae;" horiz-adv-x="2111" d="M272 664q0 117 29 219q18 72 76 211q98 236 309 389q43 31 176 88q154 68 303 67q82 0 127 -10q37 -14 109 -35q37 -2 112 -20q8 -16 35 -41q211 -98 248 -223q57 -205 57 -348q0 -41 -16 -127q-23 -117 -27 -144q-27 -190 -217 -379q-174 -176 -323 -207 q-41 -18 -129 -53q-123 -47 -228 -47q-104 0 -272 62q-193 70 -289 260q-80 152 -80 338zM498 805q0 -150 65 -281q84 -174 254 -233q156 -53 238 -53q88 0 288 86q219 98 207 172q-76 2 -223 8q-117 8 -323 65q-12 -49 -74 -108.5t-107 -59.5q-12 0 -20 5q-18 18 -21 26 q-14 55 -20 150q-2 59 -6 120q-4 43 -19 134q-12 84 -12 88q0 55 6 71q27 59 80 107.5t107 48.5q6 0 9 -2t9 -2q121 33 139 33q66 0 142 -31q106 -45 106 -121q0 -104 -141 -235q268 -59 309 -58h131q0 16 3 50t3 38q0 78 -20.5 182.5t-42.5 149.5q-35 72 -109 115l-129 61 q-23 12 -67 17q-53 6 -64 8q-6 10 -22 30q-39 20 -148 21q-78 0 -106 -8q-119 -31 -211 -86q-53 -31 -78 -78q-82 -147 -107.5 -231t-25.5 -199zM969 942q12 -90 10 -94q72 35 102 53q-69 33 -112 41z" />
<glyph unicode="&#xb2;" horiz-adv-x="1384" d="M233 61q0 63 107 226q53 86 203 307q25 35 252 328q166 213 166 235q0 31 -39 74q-33 37 -68 55q-41 23 -100 19q-2 -2 -9 -11q-12 -82 -101 -164.5t-157 -82.5q-82 0 -81 90q0 66 47 149q84 154 237 254q147 98 279 98q113 0 211 -82q102 -88 102 -202q0 -129 -174 -371 l-207 -258l-270 -375q41 0 136 6t93 6q145 0 260 -22q20 -14 64 -41q55 -29 55 -80q0 -80 -87 -173t-165 -93q-29 0 -54.5 26.5t-62.5 36.5q-63 18 -208 19q-72 0 -223.5 -19.5t-139.5 -19.5q-66 -1 -66 65z" />
<glyph unicode="&#xb3;" horiz-adv-x="1531" d="M203 -197q0 45 44 111t97 104q8 6 129 74q86 45 254 146l236 155q129 94 190 213q41 80 41 105q0 66 -84 114q-14 14 -123 62q-106 35 -237 35q-41 0 -166 -15q-16 0 -61.5 -9t-49.5 -9q-29 0 -47 21.5t-18 41.5q0 172 360 342q-137 10 -315 4q-8 0 -43 -5t-39 -5 q-72 0 -72 64q0 78 84 164t156 98l82 12h542q8 0 64.5 6t64.5 6q102 0 103 -65q0 -41 -48.5 -114t-99.5 -105q-27 -14 -69 -41q-29 -25 -86 -70q426 -92 426 -336q0 -86 -76 -235q-59 -123 -131 -219q-109 -145 -242 -242q-166 -121 -313 -215q-51 -33 -193 -113l-164 -95 q-84 -48 -131 -48q-65 0 -65 63z" />
<glyph unicode="&#xb9;" horiz-adv-x="1050" d="M268 1157q0 74 129 234q96 119 140 153q98 82 163 82q51 0 64 -47v-70q0 -8 -5 -76.5t-5 -76.5v-838q0 -4 -6.5 -27.5t-6.5 -31.5v-223q0 -27 -41 -97q-37 -61 -107.5 -114.5t-123.5 -53.5q-68 0 -68 64q0 6 6.5 19.5t6.5 19.5v233q0 29 10 84l-4 723q-43 -29 -84 -29 q-68 0 -68 72z" />
<glyph unicode="&#xba;" horiz-adv-x="1765" d="M238 406q0 406 235 786q248 403 578 457q193 31 180 30q160 0 285.5 -118.5t152.5 -309.5q12 -90 12 -164q0 -279 -153 -530q-170 -276 -492 -465q-98 -57 -223 -97t-211 -40q-203 0 -295 158q-69 117 -69 293zM559 604q0 -115 41 -198q59 -123 197 -123q94 0 245 73 q172 84 240 201q84 145 84 330q0 295 -184 418q-72 47 -144 47q-37 0 -63 -9q-33 -8 -92 -32l-74 -39q-20 -6 -49 -25q-96 -125 -150 -315q-51 -170 -51 -328z" />
<glyph unicode="&#xc0;" d="M731 2159q0 68 76.5 148.5t146.5 80.5q29 0 35 -8q20 -18 30.5 -56t36.5 -112q12 -25 111 -145q6 -10 6 -35q0 -68 -81 -149t-146 -81q-29 0 -84 68q-31 35 -74 104q-57 146 -57 185zM219 57q0 57 17 115q53 176 186 573q84 246 168 447q82 195 121 256q115 190 243 190 q27 0 43.5 -11t19.5 -38.5t5 -50.5q14 -37 37 -108q168 -559 338 -1027q33 -90 33 -159q0 -78 -80 -172q-86 -100 -170 -101q-18 0 -39 15.5t-21 40.5q-2 80 -49 198l-74 191q-266 -160 -432 -281l-98 -100q-80 -70 -166 -70q-82 0 -82 92zM561 385l373 240l-143 434z" />
<glyph unicode="&#xc2;" d="M514 1903q0 59 84 153l145 160q25 39 72 103q102 117 192 116q31 0 37 -8l103 -141q43 -57 145 -164l51 -45q18 -20 19 -51q0 -66 -77 -145t-144 -79q-10 0 -64 41q-61 45 -215 242l-135 -145q-88 -90 -156 -90q-57 0 -57 53zM219 57q0 57 17 115q53 176 186 573 q84 246 168 447q82 195 121 256q115 190 243 190q27 0 43.5 -11t19.5 -38.5t5 -50.5q14 -37 37 -108q168 -559 338 -1027q33 -90 33 -159q0 -78 -80 -172q-86 -100 -170 -101q-18 0 -39 15.5t-21 40.5q-2 80 -49 198l-74 191q-266 -160 -432 -281l-98 -100q-80 -70 -166 -70 q-82 0 -82 92zM561 385l373 240l-143 434z" />
<glyph unicode="&#xc3;" d="M366 1878q0 70 108.5 187.5t190.5 135.5q12 6 38 13.5t79 7.5q86 0 64 2q29 -2 84 -27q6 -2 120 -73q90 -57 136 -58q76 0 144.5 66.5t125.5 66.5q49 0 49 -49q0 -37 -47 -108q-14 -23 -49 -66q-193 -174 -379 -174q-88 0 -201.5 80t-193.5 80q-18 0 -37 -2 q-27 -49 -80 -90q-59 -45 -103 -45q-49 0 -49 53zM219 57q0 57 17 115q53 176 186 573q84 246 168 447q82 195 121 256q115 190 243 190q27 0 43.5 -11t19.5 -38.5t5 -50.5q14 -37 37 -108q168 -559 338 -1027q33 -90 33 -159q0 -78 -80 -172q-86 -100 -170 -101 q-18 0 -39 15.5t-21 40.5q-2 80 -49 198l-74 191q-266 -160 -432 -281l-98 -100q-80 -70 -166 -70q-82 0 -82 92zM561 385l373 240l-143 434z" />
<glyph unicode="&#xc8;" horiz-adv-x="1536" d="M1098 2159q0 68 76.5 148.5t146.5 80.5q29 0 35 -8q20 -18 30.5 -56t36.5 -112q12 -25 111 -145q6 -10 6 -35q0 -68 -81 -149t-146 -81q-29 0 -84 68q-31 35 -74 104q-57 146 -57 185zM250 696v703q0 51 72.5 135t121 97.5t62.5 13.5q35 0 46 -16.5t26 -16.5q4 0 84 14 q88 14 122 16q332 29 482 29h106q72 -12 72 -72q0 -84 -91 -173t-167 -89q-6 0 -56.5 3t-56.5 3q-172 0 -506 -30v-234q39 -10 68 -10q-4 0 -4 1q0 5 191 42q218 43 392 43q63 0 86 -4q51 -14 52 -59q0 -55 -61.5 -132t-123.5 -110q-41 -20 -104 -23q-53 0 -107 -2 q-88 -8 -262 -32q-12 -2 -112 -29q4 -76 8 -107q6 -55 22 -116l21 -95q16 -70 34.5 -105.5t61.5 -35.5q10 0 98 22.5t134 39.5q88 31 145 63q4 4 102 94q18 18 62.5 37t64.5 19q27 0 43.5 -21.5t16.5 -44.5q0 -70 -70 -158q-78 -102 -238 -198q-80 -47 -264 -111 q-203 -70 -293 -70q-117 0 -155 68q-47 84 -74 231q-14 49 -33 150q-18 149 -18 270z" />
<glyph unicode="&#xca;" horiz-adv-x="1536" d="M881 1903q0 59 84 153l145 160q25 39 72 103q102 117 192 116q31 0 37 -8l103 -141q43 -57 145 -164l51 -45q18 -20 19 -51q0 -66 -77 -145t-144 -79q-10 0 -64 41q-61 45 -215 242l-135 -145q-88 -90 -156 -90q-57 0 -57 53zM250 696v703q0 51 72.5 135t121 97.5 t62.5 13.5q35 0 46 -16.5t26 -16.5q4 0 84 14q88 14 122 16q332 29 482 29h106q72 -12 72 -72q0 -84 -91 -173t-167 -89q-6 0 -56.5 3t-56.5 3q-172 0 -506 -30v-234q39 -10 68 -10q-4 0 -4 1q0 5 191 42q218 43 392 43q63 0 86 -4q51 -14 52 -59q0 -55 -61.5 -132 t-123.5 -110q-41 -20 -104 -23q-53 0 -107 -2q-88 -8 -262 -32q-12 -2 -112 -29q4 -76 8 -107q6 -55 22 -116l21 -95q16 -70 34.5 -105.5t61.5 -35.5q10 0 98 22.5t134 39.5q88 31 145 63q4 4 102 94q18 18 62.5 37t64.5 19q27 0 43.5 -21.5t16.5 -44.5q0 -70 -70 -158 q-78 -102 -238 -198q-80 -47 -264 -111q-203 -70 -293 -70q-117 0 -155 68q-47 84 -74 231q-14 49 -33 150q-18 149 -18 270z" />
<glyph unicode="&#xcc;" horiz-adv-x="1388" d="M758 2159q0 68 76.5 148.5t146.5 80.5q29 0 35 -8q20 -18 30.5 -56t36.5 -112q12 -25 111 -145q6 -10 6 -35q0 -68 -81 -149t-146 -81q-29 0 -84 68q-31 35 -74 104q-57 146 -57 185zM242 31q0 84 94 172t166 88h-2q0 -1 100 -10q0 8 -3 29.5t-3 27.5v285l-12 192 q-14 209 -17 309q-5 111 -5 168q0 28 1 43q-41 0 -125 -8t-82 -8q-70 0 -69 63q0 76 84 164q80 82 151 94q127 25 373 25q-8 0 43 2q23 1 43 1t39 -1q49 -2 77.5 -10t28.5 -60q0 -80 -88 -166q-86 -85 -154 -86q-2 0 -3 1l28 -412v-354q0 -6 4 -24.5t4 -27.5 q12 -145 13 -227q179 11 179 12h-1q70 0 86 -6q39 -12 39 -61q0 -61 -62.5 -138t-140.5 -108q-30 -13 -77 -13q-7 0 -13 1h-82q-332 -33 -442 -33q-172 0 -172 76z" />
<glyph unicode="&#xce;" horiz-adv-x="1388" d="M541 1903q0 59 84 153l145 160q25 39 72 103q102 117 192 116q31 0 37 -8l103 -141q43 -57 145 -164l51 -45q18 -20 19 -51q0 -66 -77 -145t-144 -79q-10 0 -64 41q-61 45 -215 242l-135 -145q-88 -90 -156 -90q-57 0 -57 53zM242 31q0 84 94 172t166 88h-2q0 -1 100 -10 q0 8 -3 29.5t-3 27.5v285l-12 192q-14 209 -17 309q-5 111 -5 168q0 28 1 43q-41 0 -125 -8t-82 -8q-70 0 -69 63q0 76 84 164q80 82 151 94q127 25 373 25q-8 0 43 2q23 1 43 1t39 -1q49 -2 77.5 -10t28.5 -60q0 -80 -88 -166q-86 -85 -154 -86q-2 0 -3 1l28 -412v-354 q0 -6 4 -24.5t4 -27.5q12 -145 13 -227q179 11 179 12h-1q70 0 86 -6q39 -12 39 -61q0 -61 -62.5 -138t-140.5 -108q-30 -13 -77 -13q-7 0 -13 1h-82q-332 -33 -442 -33q-172 0 -172 76z" />
<glyph unicode="&#xd1;" horiz-adv-x="1699" d="M391 1897q0 70 108.5 187.5t190.5 135.5q12 6 38 13.5t79 7.5q86 0 64 2q29 -2 84 -27q6 -2 120 -73q90 -57 136 -58q76 0 144.5 66.5t125.5 66.5q49 0 49 -49q0 -37 -47 -108q-14 -23 -49 -66q-193 -174 -379 -174q-88 0 -201.5 80t-193.5 80q-18 0 -37 -2 q-27 -49 -80 -90q-59 -45 -103 -45q-49 0 -49 53zM254 737q0 4 8 215t8 217v281l15 39q25 70 104.5 139.5t142.5 69.5q31 0 43 -10q17 -17 17 -48q0 -8 -4.5 -28t-4.5 -32q0 -20 13 -54q135 -346 557 -928q10 78 10 164v684q0 2 15 43q25 76 103.5 142.5t141.5 66.5 q43 0 52 -37q3 -8 2 -37v-35q-12 -338 -12.5 -659.5t12.5 -626.5q0 -6 10 -26.5t10 -34.5q0 -84 -82 -185q-90 -109 -180 -108q-33 0 -50.5 19.5t-13.5 19.5q-8 0 -17 -3t-15 -3q-47 0 -77 48l-61 97q-94 117 -215 291l-204 297q0 -176 14 -402q0 -16 12.5 -69.5t12.5 -59.5 q0 -82 -86 -169t-162 -87q-57 0 -76 49q-6 16 -14 103q-29 288 -29 657z" />
<glyph unicode="&#xd2;" horiz-adv-x="1765" d="M1010 2159q0 68 76.5 148.5t146.5 80.5q29 0 35 -8q20 -18 30.5 -56t36.5 -112q12 -25 111 -145q6 -10 6 -35q0 -68 -81 -149t-146 -81q-29 0 -84 68q-31 35 -74 104q-57 146 -57 185zM238 406q0 406 235 786q248 403 578 457q193 31 180 30q160 0 285.5 -118.5 t152.5 -309.5q12 -90 12 -164q0 -279 -153 -530q-170 -276 -492 -465q-98 -57 -223 -97t-211 -40q-203 0 -295 158q-69 117 -69 293zM559 604q0 -115 41 -198q59 -123 197 -123q94 0 245 73q172 84 240 201q84 145 84 330q0 295 -184 418q-72 47 -144 47q-37 0 -63 -9 q-33 -8 -92 -32l-74 -39q-20 -6 -49 -25q-96 -125 -150 -315q-51 -170 -51 -328z" />
<glyph unicode="&#xd4;" horiz-adv-x="1765" d="M793 1903q0 59 84 153l145 160q25 39 72 103q102 117 192 116q31 0 37 -8l103 -141q43 -57 145 -164l51 -45q18 -20 19 -51q0 -66 -77 -145t-144 -79q-10 0 -64 41q-61 45 -215 242l-135 -145q-88 -90 -156 -90q-57 0 -57 53zM238 406q0 406 235 786q248 403 578 457 q193 31 180 30q160 0 285.5 -118.5t152.5 -309.5q12 -90 12 -164q0 -279 -153 -530q-170 -276 -492 -465q-98 -57 -223 -97t-211 -40q-203 0 -295 158q-69 117 -69 293zM559 604q0 -115 41 -198q59 -123 197 -123q94 0 245 73q172 84 240 201q84 145 84 330q0 295 -184 418 q-72 47 -144 47q-37 0 -63 -9q-33 -8 -92 -32l-74 -39q-20 -6 -49 -25q-96 -125 -150 -315q-51 -170 -51 -328z" />
<glyph unicode="&#xd5;" horiz-adv-x="1765" d="M645 1878q0 70 108.5 187.5t190.5 135.5q12 6 38 13.5t79 7.5q86 0 64 2q29 -2 84 -27q6 -2 120 -73q90 -57 136 -58q76 0 144.5 66.5t125.5 66.5q49 0 49 -49q0 -37 -47 -108q-14 -23 -49 -66q-193 -174 -379 -174q-88 0 -201.5 80t-193.5 80q-18 0 -37 -2 q-27 -49 -80 -90q-59 -45 -103 -45q-49 0 -49 53zM238 406q0 406 235 786q248 403 578 457q193 31 180 30q160 0 285.5 -118.5t152.5 -309.5q12 -90 12 -164q0 -279 -153 -530q-170 -276 -492 -465q-98 -57 -223 -97t-211 -40q-203 0 -295 158q-69 117 -69 293zM559 604 q0 -115 41 -198q59 -123 197 -123q94 0 245 73q172 84 240 201q84 145 84 330q0 295 -184 418q-72 47 -144 47q-37 0 -63 -9q-33 -8 -92 -32l-74 -39q-20 -6 -49 -25q-96 -125 -150 -315q-51 -170 -51 -328z" />
<glyph unicode="&#xd9;" horiz-adv-x="1648" d="M1170 2159q0 68 76.5 148.5t146.5 80.5q29 0 35 -8q20 -18 30.5 -56t36.5 -112q12 -25 111 -145q6 -10 6 -35q0 -68 -81 -149t-146 -81q-29 0 -84 68q-31 35 -74 104q-57 146 -57 185zM248 510q0 4 8 192q10 199 10 248q8 231 8 256q8 160 26.5 226.5t98.5 139.5t144 73 q61 0 61 -78q0 -6 -21.5 -432t-21.5 -433q0 -348 94 -417q29 -23 129 -23q135 0 240 64q12 18 41 55q43 53 104 84q-27 664 -26 780v193q4 66 88 151.5t160 85.5q61 0 61 -45v-256q0 -4 4 -73.5t4 -88.5q2 -158 13 -413q6 -100 24 -320q16 -197 16 -200q0 -88 -73 -183 q-80 -100 -172 -100q-25 0 -42.5 10t-19.5 43v43q-6 33 -14 103q-117 -109 -290 -182.5t-312 -73.5q-137 0 -205 49q-137 98 -137 522z" />
<glyph unicode="&#xdb;" horiz-adv-x="1648" d="M952 1903q0 59 84 153l145 160q25 39 72 103q102 117 192 116q31 0 37 -8l103 -141q43 -57 145 -164l51 -45q18 -20 19 -51q0 -66 -77 -145t-144 -79q-10 0 -64 41q-61 45 -215 242l-135 -145q-88 -90 -156 -90q-57 0 -57 53zM248 510q0 4 8 192q10 199 10 248 q8 231 8 256q8 160 26.5 226.5t98.5 139.5t144 73q61 0 61 -78q0 -6 -21.5 -432t-21.5 -433q0 -348 94 -417q29 -23 129 -23q135 0 240 64q12 18 41 55q43 53 104 84q-27 664 -26 780v193q4 66 88 151.5t160 85.5q61 0 61 -45v-256q0 -4 4 -73.5t4 -88.5q2 -158 13 -413 q6 -100 24 -320q16 -197 16 -200q0 -88 -73 -183q-80 -100 -172 -100q-25 0 -42.5 10t-19.5 43v43q-6 33 -14 103q-117 -109 -290 -182.5t-312 -73.5q-137 0 -205 49q-137 98 -137 522z" />
<glyph unicode="&#xe0;" d="M731 2159q0 68 76.5 148.5t146.5 80.5q29 0 35 -8q20 -18 30.5 -56t36.5 -112q12 -25 111 -145q6 -10 6 -35q0 -68 -81 -149t-146 -81q-29 0 -84 68q-31 35 -74 104q-57 146 -57 185zM219 57q0 57 17 115q53 176 186 573q84 246 168 447q82 195 121 256q115 190 243 190 q27 0 43.5 -11t19.5 -38.5t5 -50.5q14 -37 37 -108q168 -559 338 -1027q33 -90 33 -159q0 -78 -80 -172q-86 -100 -170 -101q-18 0 -39 15.5t-21 40.5q-2 80 -49 198l-74 191q-266 -160 -432 -281l-98 -100q-80 -70 -166 -70q-82 0 -82 92zM561 385l373 240l-143 434z" />
<glyph unicode="&#xe2;" d="M514 1903q0 59 84 153l145 160q25 39 72 103q102 117 192 116q31 0 37 -8l103 -141q43 -57 145 -164l51 -45q18 -20 19 -51q0 -66 -77 -145t-144 -79q-10 0 -64 41q-61 45 -215 242l-135 -145q-88 -90 -156 -90q-57 0 -57 53zM219 57q0 57 17 115q53 176 186 573 q84 246 168 447q82 195 121 256q115 190 243 190q27 0 43.5 -11t19.5 -38.5t5 -50.5q14 -37 37 -108q168 -559 338 -1027q33 -90 33 -159q0 -78 -80 -172q-86 -100 -170 -101q-18 0 -39 15.5t-21 40.5q-2 80 -49 198l-74 191q-266 -160 -432 -281l-98 -100q-80 -70 -166 -70 q-82 0 -82 92zM561 385l373 240l-143 434z" />
<glyph unicode="&#xe3;" d="M366 1878q0 70 108.5 187.5t190.5 135.5q12 6 38 13.5t79 7.5q86 0 64 2q29 -2 84 -27q6 -2 120 -73q90 -57 136 -58q76 0 144.5 66.5t125.5 66.5q49 0 49 -49q0 -37 -47 -108q-14 -23 -49 -66q-193 -174 -379 -174q-88 0 -201.5 80t-193.5 80q-18 0 -37 -2 q-27 -49 -80 -90q-59 -45 -103 -45q-49 0 -49 53zM219 57q0 57 17 115q53 176 186 573q84 246 168 447q82 195 121 256q115 190 243 190q27 0 43.5 -11t19.5 -38.5t5 -50.5q14 -37 37 -108q168 -559 338 -1027q33 -90 33 -159q0 -78 -80 -172q-86 -100 -170 -101 q-18 0 -39 15.5t-21 40.5q-2 80 -49 198l-74 191q-266 -160 -432 -281l-98 -100q-80 -70 -166 -70q-82 0 -82 92zM561 385l373 240l-143 434z" />
<glyph unicode="&#xe8;" horiz-adv-x="1536" d="M1098 2159q0 68 76.5 148.5t146.5 80.5q29 0 35 -8q20 -18 30.5 -56t36.5 -112q12 -25 111 -145q6 -10 6 -35q0 -68 -81 -149t-146 -81q-29 0 -84 68q-31 35 -74 104q-57 146 -57 185zM250 696v703q0 51 72.5 135t121 97.5t62.5 13.5q35 0 46 -16.5t26 -16.5q4 0 84 14 q88 14 122 16q332 29 482 29h106q72 -12 72 -72q0 -84 -91 -173t-167 -89q-6 0 -56.5 3t-56.5 3q-172 0 -506 -30v-234q39 -10 68 -10q-4 0 -4 1q0 5 191 42q218 43 392 43q63 0 86 -4q51 -14 52 -59q0 -55 -61.5 -132t-123.5 -110q-41 -20 -104 -23q-53 0 -107 -2 q-88 -8 -262 -32q-12 -2 -112 -29q4 -76 8 -107q6 -55 22 -116l21 -95q16 -70 34.5 -105.5t61.5 -35.5q10 0 98 22.5t134 39.5q88 31 145 63q4 4 102 94q18 18 62.5 37t64.5 19q27 0 43.5 -21.5t16.5 -44.5q0 -70 -70 -158q-78 -102 -238 -198q-80 -47 -264 -111 q-203 -70 -293 -70q-117 0 -155 68q-47 84 -74 231q-14 49 -33 150q-18 149 -18 270z" />
<glyph unicode="&#xea;" horiz-adv-x="1536" d="M881 1903q0 59 84 153l145 160q25 39 72 103q102 117 192 116q31 0 37 -8l103 -141q43 -57 145 -164l51 -45q18 -20 19 -51q0 -66 -77 -145t-144 -79q-10 0 -64 41q-61 45 -215 242l-135 -145q-88 -90 -156 -90q-57 0 -57 53zM250 696v703q0 51 72.5 135t121 97.5 t62.5 13.5q35 0 46 -16.5t26 -16.5q4 0 84 14q88 14 122 16q332 29 482 29h106q72 -12 72 -72q0 -84 -91 -173t-167 -89q-6 0 -56.5 3t-56.5 3q-172 0 -506 -30v-234q39 -10 68 -10q-4 0 -4 1q0 5 191 42q218 43 392 43q63 0 86 -4q51 -14 52 -59q0 -55 -61.5 -132 t-123.5 -110q-41 -20 -104 -23q-53 0 -107 -2q-88 -8 -262 -32q-12 -2 -112 -29q4 -76 8 -107q6 -55 22 -116l21 -95q16 -70 34.5 -105.5t61.5 -35.5q10 0 98 22.5t134 39.5q88 31 145 63q4 4 102 94q18 18 62.5 37t64.5 19q27 0 43.5 -21.5t16.5 -44.5q0 -70 -70 -158 q-78 -102 -238 -198q-80 -47 -264 -111q-203 -70 -293 -70q-117 0 -155 68q-47 84 -74 231q-14 49 -33 150q-18 149 -18 270z" />
<glyph unicode="&#xec;" horiz-adv-x="1024" d="M381 2159q0 68 76.5 148.5t146.5 80.5q29 0 35 -8q20 -18 30.5 -56t36.5 -112q12 -25 111 -145q6 -10 6 -35q0 -68 -81 -149t-146 -81q-29 0 -84 68q-31 35 -74 104q-57 146 -57 185zM293 1374q0 86 113.5 191.5t195.5 105.5q41 0 53 -24q15 -29 15 -76v-12 q-1 -25 -1 -43q0 -37 3 -50q2 -25 5 -76t19 -516q10 -158 27 -452q2 -29 11 -96.5t9 -71.5q0 -78 -90 -184.5t-176 -106.5q-31 0 -47 12.5t-18 32.5q-2 55 -9 164l-34 522v260q0 -12 -23 349q-10 4 -31 16q-22 20 -22 55z" />
<glyph unicode="&#xee;" horiz-adv-x="1024" d="M164 1903q0 59 84 153l145 160q25 39 72 103q102 117 192 116q31 0 37 -8l103 -141q43 -57 145 -164l51 -45q18 -20 19 -51q0 -66 -77 -145t-144 -79q-10 0 -64 41q-61 45 -215 242l-135 -145q-88 -90 -156 -90q-57 0 -57 53zM293 1374q0 86 113.5 191.5t195.5 105.5 q41 0 53 -24q15 -29 15 -76v-12q-1 -25 -1 -43q0 -37 3 -50q2 -25 5 -76t19 -516q10 -158 27 -452q2 -29 11 -96.5t9 -71.5q0 -78 -90 -184.5t-176 -106.5q-31 0 -47 12.5t-18 32.5q-2 55 -9 164l-34 522v260q0 -12 -23 349q-10 4 -31 16q-22 20 -22 55z" />
<glyph unicode="&#xf1;" horiz-adv-x="1699" d="M252 1897q0 70 108.5 187.5t190.5 135.5q12 6 38 13.5t79 7.5q86 0 64 2q29 -2 84 -27q6 -2 120 -73q90 -57 136 -58q76 0 144.5 66.5t125.5 66.5q49 0 49 -49q0 -37 -47 -108q-14 -23 -49 -66q-193 -174 -379 -174q-88 0 -201.5 80t-193.5 80q-18 0 -37 -2 q-27 -49 -80 -90q-59 -45 -103 -45q-49 0 -49 53zM254 737q0 4 8 215t8 217v281l15 39q25 70 104.5 139.5t142.5 69.5q31 0 43 -10q17 -17 17 -48q0 -8 -4.5 -28t-4.5 -32q0 -20 13 -54q135 -346 557 -928q10 78 10 164v684q0 2 15 43q25 76 103.5 142.5t141.5 66.5 q43 0 52 -37q3 -8 2 -37v-35q-12 -338 -12.5 -659.5t12.5 -626.5q0 -6 10 -26.5t10 -34.5q0 -84 -82 -185q-90 -109 -180 -108q-33 0 -50.5 19.5t-13.5 19.5q-8 0 -17 -3t-15 -3q-47 0 -77 48l-61 97q-94 117 -215 291l-204 297q0 -176 14 -402q0 -16 12.5 -69.5t12.5 -59.5 q0 -82 -86 -169t-162 -87q-57 0 -76 49q-6 16 -14 103q-29 288 -29 657z" />
<glyph unicode="&#xf2;" horiz-adv-x="1765" d="M1010 2159q0 68 76.5 148.5t146.5 80.5q29 0 35 -8q20 -18 30.5 -56t36.5 -112q12 -25 111 -145q6 -10 6 -35q0 -68 -81 -149t-146 -81q-29 0 -84 68q-31 35 -74 104q-57 146 -57 185zM238 406q0 406 235 786q248 403 578 457q193 31 180 30q160 0 285.5 -118.5 t152.5 -309.5q12 -90 12 -164q0 -279 -153 -530q-170 -276 -492 -465q-98 -57 -223 -97t-211 -40q-203 0 -295 158q-69 117 -69 293zM559 604q0 -115 41 -198q59 -123 197 -123q94 0 245 73q172 84 240 201q84 145 84 330q0 295 -184 418q-72 47 -144 47q-37 0 -63 -9 q-33 -8 -92 -32l-74 -39q-20 -6 -49 -25q-96 -125 -150 -315q-51 -170 -51 -328z" />
<glyph unicode="&#xf4;" horiz-adv-x="1765" d="M793 1903q0 59 84 153l145 160q25 39 72 103q102 117 192 116q31 0 37 -8l103 -141q43 -57 145 -164l51 -45q18 -20 19 -51q0 -66 -77 -145t-144 -79q-10 0 -64 41q-61 45 -215 242l-135 -145q-88 -90 -156 -90q-57 0 -57 53zM238 406q0 406 235 786q248 403 578 457 q193 31 180 30q160 0 285.5 -118.5t152.5 -309.5q12 -90 12 -164q0 -279 -153 -530q-170 -276 -492 -465q-98 -57 -223 -97t-211 -40q-203 0 -295 158q-69 117 -69 293zM559 604q0 -115 41 -198q59 -123 197 -123q94 0 245 73q172 84 240 201q84 145 84 330q0 295 -184 418 q-72 47 -144 47q-37 0 -63 -9q-33 -8 -92 -32l-74 -39q-20 -6 -49 -25q-96 -125 -150 -315q-51 -170 -51 -328z" />
<glyph unicode="&#xf5;" horiz-adv-x="1765" d="M645 1878q0 70 108.5 187.5t190.5 135.5q12 6 38 13.5t79 7.5q86 0 64 2q29 -2 84 -27q6 -2 120 -73q90 -57 136 -58q76 0 144.5 66.5t125.5 66.5q49 0 49 -49q0 -37 -47 -108q-14 -23 -49 -66q-193 -174 -379 -174q-88 0 -201.5 80t-193.5 80q-18 0 -37 -2 q-27 -49 -80 -90q-59 -45 -103 -45q-49 0 -49 53zM238 406q0 406 235 786q248 403 578 457q193 31 180 30q160 0 285.5 -118.5t152.5 -309.5q12 -90 12 -164q0 -279 -153 -530q-170 -276 -492 -465q-98 -57 -223 -97t-211 -40q-203 0 -295 158q-69 117 -69 293zM559 604 q0 -115 41 -198q59 -123 197 -123q94 0 245 73q172 84 240 201q84 145 84 330q0 295 -184 418q-72 47 -144 47q-37 0 -63 -9q-33 -8 -92 -32l-74 -39q-20 -6 -49 -25q-96 -125 -150 -315q-51 -170 -51 -328z" />
<glyph unicode="&#xf9;" horiz-adv-x="1648" d="M1170 2159q0 68 76.5 148.5t146.5 80.5q29 0 35 -8q20 -18 30.5 -56t36.5 -112q12 -25 111 -145q6 -10 6 -35q0 -68 -81 -149t-146 -81q-29 0 -84 68q-31 35 -74 104q-57 146 -57 185zM248 510q0 4 8 192q10 199 10 248q8 231 8 256q8 160 26.5 226.5t98.5 139.5t144 73 q61 0 61 -78q0 -6 -21.5 -432t-21.5 -433q0 -348 94 -417q29 -23 129 -23q135 0 240 64q12 18 41 55q43 53 104 84q-27 664 -26 780v193q4 66 88 151.5t160 85.5q61 0 61 -45v-256q0 -4 4 -73.5t4 -88.5q2 -158 13 -413q6 -100 24 -320q16 -197 16 -200q0 -88 -73 -183 q-80 -100 -172 -100q-25 0 -42.5 10t-19.5 43v43q-6 33 -14 103q-117 -109 -290 -182.5t-312 -73.5q-137 0 -205 49q-137 98 -137 522z" />
<glyph unicode="&#xfb;" horiz-adv-x="1648" d="M952 1903q0 59 84 153l145 160q25 39 72 103q102 117 192 116q31 0 37 -8l103 -141q43 -57 145 -164l51 -45q18 -20 19 -51q0 -66 -77 -145t-144 -79q-10 0 -64 41q-61 45 -215 242l-135 -145q-88 -90 -156 -90q-57 0 -57 53zM248 510q0 4 8 192q10 199 10 248 q8 231 8 256q8 160 26.5 226.5t98.5 139.5t144 73q61 0 61 -78q0 -6 -21.5 -432t-21.5 -433q0 -348 94 -417q29 -23 129 -23q135 0 240 64q12 18 41 55q43 53 104 84q-27 664 -26 780v193q4 66 88 151.5t160 85.5q61 0 61 -45v-256q0 -4 4 -73.5t4 -88.5q2 -158 13 -413 q6 -100 24 -320q16 -197 16 -200q0 -88 -73 -183q-80 -100 -172 -100q-25 0 -42.5 10t-19.5 43v43q-6 33 -14 103q-117 -109 -290 -182.5t-312 -73.5q-137 0 -205 49q-137 98 -137 522z" />
<glyph unicode="&#x152;" horiz-adv-x="3301" d="M2015 696v703q0 51 72.5 135t121 97.5t62.5 13.5q35 0 46 -16.5t26 -16.5q4 0 84 14q88 14 122 16q332 29 482 29h106q72 -12 72 -72q0 -84 -91 -173t-167 -89q-6 0 -56.5 3t-56.5 3q-172 0 -506 -30v-234q39 -10 68 -10q-4 0 -4 1q0 5 191 42q218 43 392 43q63 0 86 -4 q51 -14 52 -59q0 -55 -61.5 -132t-123.5 -110q-41 -20 -104 -23q-53 0 -107 -2q-88 -8 -262 -32q-12 -2 -112 -29q4 -76 8 -107q6 -55 22 -116l21 -95q16 -70 34.5 -105.5t61.5 -35.5q10 0 98 22.5t134 39.5q88 31 145 63q4 4 102 94q18 18 62.5 37t64.5 19q27 0 43.5 -21.5 t16.5 -44.5q0 -70 -70 -158q-78 -102 -238 -198q-80 -47 -264 -111q-203 -70 -293 -70q-117 0 -155 68q-47 84 -74 231q-14 49 -33 150q-18 149 -18 270zM238 406q0 406 235 786q248 403 578 457q193 31 180 30q160 0 285.5 -118.5t152.5 -309.5q12 -90 12 -164 q0 -279 -153 -530q-170 -276 -492 -465q-98 -57 -223 -97t-211 -40q-203 0 -295 158q-69 117 -69 293zM559 604q0 -115 41 -198q59 -123 197 -123q94 0 245 73q172 84 240 201q84 145 84 330q0 295 -184 418q-72 47 -144 47q-37 0 -63 -9q-33 -8 -92 -32l-74 -39 q-20 -6 -49 -25q-96 -125 -150 -315q-51 -170 -51 -328z" />
<glyph unicode="&#x153;" horiz-adv-x="3301" d="M2015 696v703q0 51 72.5 135t121 97.5t62.5 13.5q35 0 46 -16.5t26 -16.5q4 0 84 14q88 14 122 16q332 29 482 29h106q72 -12 72 -72q0 -84 -91 -173t-167 -89q-6 0 -56.5 3t-56.5 3q-172 0 -506 -30v-234q39 -10 68 -10q-4 0 -4 1q0 5 191 42q218 43 392 43q63 0 86 -4 q51 -14 52 -59q0 -55 -61.5 -132t-123.5 -110q-41 -20 -104 -23q-53 0 -107 -2q-88 -8 -262 -32q-12 -2 -112 -29q4 -76 8 -107q6 -55 22 -116l21 -95q16 -70 34.5 -105.5t61.5 -35.5q10 0 98 22.5t134 39.5q88 31 145 63q4 4 102 94q18 18 62.5 37t64.5 19q27 0 43.5 -21.5 t16.5 -44.5q0 -70 -70 -158q-78 -102 -238 -198q-80 -47 -264 -111q-203 -70 -293 -70q-117 0 -155 68q-47 84 -74 231q-14 49 -33 150q-18 149 -18 270zM238 406q0 406 235 786q248 403 578 457q193 31 180 30q160 0 285.5 -118.5t152.5 -309.5q12 -90 12 -164 q0 -279 -153 -530q-170 -276 -492 -465q-98 -57 -223 -97t-211 -40q-203 0 -295 158q-69 117 -69 293zM559 604q0 -115 41 -198q59 -123 197 -123q94 0 245 73q172 84 240 201q84 145 84 330q0 295 -184 418q-72 47 -144 47q-37 0 -63 -9q-33 -8 -92 -32l-74 -39 q-20 -6 -49 -25q-96 -125 -150 -315q-51 -170 -51 -328z" />
<glyph unicode="&#x2c6;" horiz-adv-x="1314" d="M250 1102q0 59 84 153l145 160q25 39 72 103q102 117 192 116q31 0 37 -8l103 -141q43 -57 145 -164l51 -45q18 -20 19 -51q0 -66 -77 -145t-144 -79q-10 0 -64 41q-61 45 -215 242l-135 -145q-88 -90 -156 -90q-57 0 -57 53z" />
<glyph unicode="&#x2dc;" horiz-adv-x="1384" d="M-586 199q0 70 108.5 187.5t190.5 135.5q12 6 38 13.5t79 7.5q86 0 64 2q29 -2 84 -27q6 -2 120 -73q90 -57 136 -58q76 0 144.5 66.5t125.5 66.5q49 0 49 -49q0 -37 -47 -108q-14 -23 -49 -66q-193 -174 -379 -174q-88 0 -201.5 80t-193.5 80q-18 0 -37 -2 q-27 -49 -80 -90q-59 -45 -103 -45q-49 0 -49 53z" />
<glyph unicode="&#x2000;" horiz-adv-x="1216" />
<glyph unicode="&#x2001;" horiz-adv-x="2435" />
<glyph unicode="&#x2002;" horiz-adv-x="1216" />
<glyph unicode="&#x2003;" horiz-adv-x="2435" />
<glyph unicode="&#x2004;" horiz-adv-x="811" />
<glyph unicode="&#x2005;" horiz-adv-x="608" />
<glyph unicode="&#x2006;" horiz-adv-x="405" />
<glyph unicode="&#x2007;" horiz-adv-x="405" />
<glyph unicode="&#x2008;" horiz-adv-x="303" />
<glyph unicode="&#x2009;" horiz-adv-x="485" />
<glyph unicode="&#x200a;" horiz-adv-x="135" />
<glyph unicode="&#x2010;" horiz-adv-x="1476" d="M352 709q0 61 75 144t146 91h115q72 0 227 -8q172 -8 187 -16q29 -18 28 -52q0 -53 -64.5 -129.5t-123.5 -93.5q-39 -10 -68 -10q-4 0 -130 9t-132 9h-215q-18 0 -31.5 20t-13.5 36z" />
<glyph unicode="&#x2011;" horiz-adv-x="1476" d="M352 709q0 61 75 144t146 91h115q72 0 227 -8q172 -8 187 -16q29 -18 28 -52q0 -53 -64.5 -129.5t-123.5 -93.5q-39 -10 -68 -10q-4 0 -130 9t-132 9h-215q-18 0 -31.5 20t-13.5 36z" />
<glyph unicode="&#x2012;" horiz-adv-x="1476" d="M352 709q0 61 75 144t146 91h115q72 0 227 -8q172 -8 187 -16q29 -18 28 -52q0 -53 -64.5 -129.5t-123.5 -93.5q-39 -10 -68 -10q-4 0 -130 9t-132 9h-215q-18 0 -31.5 20t-13.5 36z" />
<glyph unicode="&#x2013;" horiz-adv-x="1024" d="M205 512v205h614v-205h-614z" />
<glyph unicode="&#x2014;" horiz-adv-x="2048" d="M205 512v205h1638v-205h-1638z" />
<glyph unicode="&#x2018;" horiz-adv-x="1087" d="M332 1438q0 68 76.5 148.5t146.5 80.5q29 0 35 -8q20 -18 30.5 -56t36.5 -112q12 -25 111 -145q6 -10 6 -35q0 -68 -81 -149t-146 -81q-29 0 -84 68q-31 35 -74 104q-57 146 -57 185z" />
<glyph unicode="&#x2019;" horiz-adv-x="921" d="M322 1124q0 25 20 324q6 68 88 147.5t150 79.5q45 0 55 -35q2 -10 2 -67l-8 -107l-13 -178q0 -4 4.5 -18.5t4.5 -22.5q2 -76 -79 -162t-157 -86q-53 0 -65 48q-2 9 -2 77z" />
<glyph unicode="&#x201c;" horiz-adv-x="1193" d="M256 1124q0 25 20 324q6 68 88 147.5t150 79.5q45 0 55 -35q2 -10 2 -67l-8 -107l-12 -178q0 -4 4 -18.5t4 -22.5q2 -76 -79 -162t-156 -86q-53 0 -66 48q-2 9 -2 77zM696 1087v154q0 98 13 227q6 68 87 148t148 80q57 0 57 -41v-383q0 -41 -60 -119t-120 -102 q-43 -16 -63 -17q-29 0 -49 21q-11 12 -13 32z" />
<glyph unicode="&#x201d;" horiz-adv-x="1193" d="M256 1124q0 25 20 324q6 68 88 147.5t150 79.5q45 0 55 -35q2 -10 2 -67l-8 -107l-12 -178q0 -4 4 -18.5t4 -22.5q2 -76 -79 -162t-156 -86q-53 0 -66 48q-2 9 -2 77zM696 1087v154q0 98 13 227q6 68 87 148t148 80q57 0 57 -41v-383q0 -41 -60 -119t-120 -102 q-43 -16 -63 -17q-29 0 -49 21q-11 12 -13 32z" />
<glyph unicode="&#x2026;" horiz-adv-x="3747" d="M2986 139q0 61 71 138t136 77q20 0 35 -12l19 -47q8 -14 40 -53q27 -31 27 -49q0 -61 -74.5 -135t-138.5 -74q-25 0 -37 10q-12 20 -41 59q-37 43 -37 86zM1736 139q0 61 71 138t136 77q20 0 35 -12l19 -47q8 -14 40 -53q27 -31 27 -49q0 -61 -74.5 -135t-138.5 -74 q-25 0 -37 10q-12 20 -41 59q-37 43 -37 86zM487 139q0 61 71 138t136 77q20 0 35 -12l19 -47q8 -14 40 -53q27 -31 27 -49q0 -61 -74.5 -135t-138.5 -74q-25 0 -37 10q-12 20 -41 59q-37 43 -37 86z" />
<glyph unicode="&#x202f;" horiz-adv-x="485" />
<glyph unicode="&#x2039;" horiz-adv-x="1486" d="M238 692q0 147 247 314q127 86 326 282q270 274 324 322q72 66 151 65q66 0 66 -59q0 -66 -41 -115q-188 -213 -453 -469l-194 -162q96 -76 284 -239l164 -185q63 -66 176 -200q8 -12 8 -39q0 -82 -91 -178.5t-175 -96.5q-33 0 -41 9l-233 262q-174 193 -305 289l-115 81 q-98 78 -98 119z" />
<glyph unicode="&#x203a;" horiz-adv-x="1398" d="M346 1380q0 72 80 162t162 90q20 0 29.5 -3t39.5 -48q47 -72 52 -76l241 -297q217 -272 217 -315q0 -80 -88 -184l-268 -324l-180 -254q-106 -141 -203 -141q-61 0 -61 61t141 250q29 43 90 127q29 39 147 178q90 109 91 117q0 2 -91 115l-100 129l-151 184 q-148 186 -148 229z" />
<glyph unicode="&#x205f;" horiz-adv-x="608" />
<glyph unicode="&#x2122;" horiz-adv-x="2064" d="M246 1384q0 37 36.5 84.5t79.5 53.5q111 18 328 34q178 16 207 17q39 0 39 -37q0 -39 -41 -85t-88 -58q-51 0 -143 -19v-303q0 -45 2 -35q-6 -35 -54.5 -82t-87.5 -47q-8 0 -20 11.5t-12 21.5q0 201 4 414q-6 10 -25 6q-35 -6 -39 -6q-18 -2 -58 -4t-44 -2q-84 -1 -84 36 zM791 961q0 14 2 38q35 74 98 224q70 182 82 204q94 193 186 193q37 0 58 -51q0 -2 16 -64q8 -45 31 -133q16 -61 49 -162q57 131 82 232q16 61 85.5 120.5t118.5 49.5q14 -14 17 -25l57 -227l66 -221q2 -8 20 -43q14 -25 15 -47q0 -45 -49.5 -95.5t-88.5 -50.5 q-20 0 -26 7.5t-18.5 34t-41.5 114.5l-65 213q-29 -84 -72 -197q-6 -20 -24 -65q-16 -31 -59.5 -65t-72.5 -34q-37 0 -47 11q-18 20 -40.5 77.5t-59.5 165.5q-14 49 -39 148l-90 -217q-74 -154 -160 -154q-10 1 -30 19z" />
<glyph unicode="&#xe000;" horiz-adv-x="1685" d="M0 1685h1685v-1685h-1685v1685z" />
<glyph unicode="&#xfb01;" horiz-adv-x="2353" d="M1622 1374q0 86 113.5 191.5t195.5 105.5q41 0 53 -24q15 -29 15 -76v-12q-1 -25 -1 -43q0 -37 3 -50q2 -25 5 -76t19 -516q10 -158 27 -452q2 -29 11 -96.5t9 -71.5q0 -78 -90 -184.5t-176 -106.5q-31 0 -47 12.5t-18 32.5q-2 55 -9 164l-34 522v260q0 -12 -23 349 q-10 4 -31 16q-22 20 -22 55zM254 889v557q0 51 72.5 135t122 98.5t63.5 14.5q49 0 52 -28t28 -28q8 0 147.5 19.5t147.5 19.5h297q4 0 36.5 5.5t39.5 5.5q78 0 77 -66q0 -66 -75 -156q-82 -94 -170 -108q-78 -12 -93 -12h-292q-4 0 -48 -5q-49 -6 -75 -8q-2 -2 -11 -6 q0 -195 15 -360q258 125 526 125q74 0 88 -5q49 -12 49 -61q0 -66 -72.5 -154t-136.5 -100q-8 -2 -208 -18q-150 -10 -238 -52v-497q0 -10 -10 -23q-14 -51 -66 -112q-57 -68 -110 -88q-45 -18 -72 -19q-61 0 -62 41v590q0 6 -11 146.5t-11 148.5z" />
<glyph unicode="&#xfb02;" horiz-adv-x="2770" d="M1546 1204q0 205 2 232q4 76 97.5 167t170.5 91q66 0 66 -47v-316q0 -231 22 -586q10 -88 27 -262q2 -74 19 -209q51 10 139 31q207 61 409 62q256 0 256 -88q0 -82 -95 -179.5t-179 -97.5q-6 0 -93 8t-95 8q-102 0 -189 -16l-266 -57q-131 -29 -139 -29 q-43 0 -59.5 14.5t-26 69.5t-13.5 119q-12 117 -28 348q-25 391 -25 737zM254 889v557q0 51 72.5 135t122 98.5t63.5 14.5q49 0 52 -28t28 -28q8 0 147.5 19.5t147.5 19.5h297q4 0 36.5 5.5t39.5 5.5q78 0 77 -66q0 -66 -75 -156q-82 -94 -170 -108q-78 -12 -93 -12h-292 q-4 0 -48 -5q-49 -6 -75 -8q-2 -2 -11 -6q0 -195 15 -360q258 125 526 125q74 0 88 -5q49 -12 49 -61q0 -66 -72.5 -154t-136.5 -100q-8 -2 -208 -18q-150 -10 -238 -52v-497q0 -10 -10 -23q-14 -51 -66 -112q-57 -68 -110 -88q-45 -18 -72 -19q-61 0 -62 41v590 q0 6 -11 146.5t-11 148.5z" />
<glyph unicode="&#xfb03;" horiz-adv-x="3682" d="M2951 1374q0 86 113.5 191.5t195.5 105.5q41 0 53 -24q15 -29 15 -76v-12q-1 -25 -1 -43q0 -37 3 -50q2 -25 5 -76t19 -516q10 -158 27 -452q2 -29 11 -96.5t9 -71.5q0 -78 -90 -184.5t-176 -106.5q-31 0 -47 12.5t-18 32.5q-2 55 -9 164l-34 522v260q0 -12 -23 349 q-10 4 -31 16q-22 20 -22 55zM1583 889v557q0 51 72.5 135t122 98.5t63.5 14.5q49 0 52 -28t28 -28q8 0 147.5 19.5t147.5 19.5h297q4 0 36.5 5.5t39.5 5.5q78 0 77 -66q0 -66 -75 -156q-82 -94 -170 -108q-78 -12 -93 -12h-292q-4 0 -48 -5q-49 -6 -75 -8q-2 -2 -11 -6 q0 -195 15 -360q258 125 526 125q74 0 88 -5q49 -12 49 -61q0 -66 -72.5 -154t-136.5 -100q-8 -2 -208 -18q-150 -10 -238 -52v-497q0 -10 -10 -23q-14 -51 -66 -112q-57 -68 -110 -88q-45 -18 -72 -19q-61 0 -62 41v590q0 6 -11 146.5t-11 148.5zM254 889v557 q0 51 72.5 135t122 98.5t63.5 14.5q49 0 52 -28t28 -28q8 0 147.5 19.5t147.5 19.5h297q4 0 36.5 5.5t39.5 5.5q78 0 77 -66q0 -66 -75 -156q-82 -94 -170 -108q-78 -12 -93 -12h-292q-4 0 -48 -5q-49 -6 -75 -8q-2 -2 -11 -6q0 -195 15 -360q258 125 526 125q74 0 88 -5 q49 -12 49 -61q0 -66 -72.5 -154t-136.5 -100q-8 -2 -208 -18q-150 -10 -238 -52v-497q0 -10 -10 -23q-14 -51 -66 -112q-57 -68 -110 -88q-45 -18 -72 -19q-61 0 -62 41v590q0 6 -11 146.5t-11 148.5z" />
<glyph unicode="&#xfb04;" horiz-adv-x="4100" d="M2875 1204q0 205 2 232q4 76 97.5 167t170.5 91q66 0 66 -47v-316q0 -231 22 -586q10 -88 27 -262q2 -74 19 -209q51 10 139 31q207 61 409 62q256 0 256 -88q0 -82 -95 -179.5t-179 -97.5q-6 0 -93 8t-95 8q-102 0 -189 -16l-266 -57q-131 -29 -139 -29 q-43 0 -59.5 14.5t-26 69.5t-13.5 119q-12 117 -28 348q-25 391 -25 737zM1583 889v557q0 51 72.5 135t122 98.5t63.5 14.5q49 0 52 -28t28 -28q8 0 147.5 19.5t147.5 19.5h297q4 0 36.5 5.5t39.5 5.5q78 0 77 -66q0 -66 -75 -156q-82 -94 -170 -108q-78 -12 -93 -12h-292 q-4 0 -48 -5q-49 -6 -75 -8q-2 -2 -11 -6q0 -195 15 -360q258 125 526 125q74 0 88 -5q49 -12 49 -61q0 -66 -72.5 -154t-136.5 -100q-8 -2 -208 -18q-150 -10 -238 -52v-497q0 -10 -10 -23q-14 -51 -66 -112q-57 -68 -110 -88q-45 -18 -72 -19q-61 0 -62 41v590 q0 6 -11 146.5t-11 148.5zM254 889v557q0 51 72.5 135t122 98.5t63.5 14.5q49 0 52 -28t28 -28q8 0 147.5 19.5t147.5 19.5h297q4 0 36.5 5.5t39.5 5.5q78 0 77 -66q0 -66 -75 -156q-82 -94 -170 -108q-78 -12 -93 -12h-292q-4 0 -48 -5q-49 -6 -75 -8q-2 -2 -11 -6 q0 -195 15 -360q258 125 526 125q74 0 88 -5q49 -12 49 -61q0 -66 -72.5 -154t-136.5 -100q-8 -2 -208 -18q-150 -10 -238 -52v-497q0 -10 -10 -23q-14 -51 -66 -112q-57 -68 -110 -88q-45 -18 -72 -19q-61 0 -62 41v590q0 6 -11 146.5t-11 148.5z" />
</font>
</defs>
</svg>
