<?xml version="1.0" standalone="no"?>
<!DOCTYPE svg PUBLIC "-//W3C//DTD SVG 1.1//EN" "http://www.w3.org/Graphics/SVG/1.1/DTD/svg11.dtd" >
<svg xmlns="http://www.w3.org/2000/svg">
<metadata>
This is a custom SVG webfont generated by Font Squirrel.
Copyright   : Yew Basturd 2005 Edgar Tadeo
</metadata>
<defs>
<font id="webfonthjd0PKxl" horiz-adv-x="1538" >
<font-face units-per-em="2048" ascent="1638" descent="-410" />
<missing-glyph horiz-adv-x="1384" />
<glyph unicode=" "  horiz-adv-x="1384" />
<glyph unicode="&#x09;" horiz-adv-x="1384" />
<glyph unicode="&#xa0;" horiz-adv-x="1384" />
<glyph unicode="!" horiz-adv-x="821" d="M291 2q0 20 8 45q43 117 162 236q127 127 229 127q55 0 55 -45q0 -20 -14 -58q-29 -80 -104.5 -168t-155.5 -133q-90 -51 -131 -51q-49 0 -49 47zM457 453q0 76 37 178q6 14 256 692q25 61 53 115q41 74 151.5 150.5t171.5 76.5q18 0 35 -12q23 -18 23 -43q0 -10 -4 -23 l-332 -909q-16 -43 -103.5 -128t-132.5 -104q-90 -35 -104 -34q-35 0 -47 20q-4 7 -4 21z" />
<glyph unicode="&#x22;" horiz-adv-x="1193" d="M647 1053q0 20 25 90q8 23 129 299q31 74 144.5 154.5t187.5 80.5q59 0 59 -47q0 -16 -23 -76l-112 -262l-6 -35q-27 -82 -142.5 -170t-197.5 -88q-64 1 -64 54zM1063 1081q0 16 55 168q33 92 88 211q33 74 145.5 155t186.5 81q61 0 61 -47q0 -10 -4 -19l-127 -352 q-18 -47 -109 -126t-161 -103q-51 -16 -76 -17q-37 0 -53 27q-6 8 -6 22z" />
<glyph unicode="#" horiz-adv-x="1712" d="M365 244q0 74 124 182q98 82 193 131l29 76q-80 -37 -123 -37q-70 0 -70 70q0 76 125 182q102 88 191 125l131 358q18 51 130.5 144.5t172.5 107.5q53 14 69 14q66 0 66 -51q0 -12 -4 -26l-133 -377l135 33q12 78 35 190q35 90 167 194.5t228 104.5q63 0 63 -59 q0 -10 -4 -23q-16 -90 -80 -321l43 6q47 6 60 6q78 0 78 -53q0 -78 -113 -179q-90 -82 -178 -120l-31 -95h12q135 8 136 -53q0 -16 -7 -37q-16 -43 -66 -99t-97 -83q-27 -14 -54 -31q-10 -8 -22 -47q-18 -80 -76 -237q-37 -82 -164 -171t-207 -89q-68 0 -67 36q0 8 2 21 q12 72 47 188q51 168 57 193q-90 -23 -172 -49q-8 -18 -12 -33l2 -4q2 -8 2 -19q0 -94 -168 -219q-156 -115 -244 -114q-70 0 -61 73l57 166q-78 -35 -129 -35q-73 1 -73 60zM1112 709q51 12 150 41q10 29 24 81q-86 -18 -141 -28q-23 -59 -33 -94z" />
<glyph unicode="$" horiz-adv-x="1392" d="M313 195q0 20 9 43q25 66 109.5 149.5t174.5 132.5q-14 -4 -26 -4q-88 0 -88 107q0 43 14 79q27 76 119 203q80 109 153 189q121 127 193 172q31 18 78 53l51 113q37 78 153.5 164.5t192.5 86.5q57 0 57 -49q0 -35 -30 -98q-8 -12 -17 -33l-16 -45q70 -10 131 -43 q78 -45 78 -104q0 -70 -105 -166q-88 -80 -168 -117q59 -23 95 -82t28 -137q-4 -31 -31 -102q-45 -127 -139 -236q-166 -197 -377 -291q-35 -16 -55 -30q-4 -10 -14 -31q-33 -47 -111 -109.5t-141 -87.5q-37 -14 -70 -14q-61 0 -61 47q0 20 13 56t26 55l-21 4 q-205 29 -205 125zM723 555l4 2q59 0 59 -45q0 -25 -18 -63q47 -27 106 -27q35 0 99 22q55 20 64.5 28.5t23.5 49.5q8 25 8 53q0 41 -17.5 73t-41.5 32q-6 0 -101 -45q-118 -53 -186 -80zM926 901q104 51 311 129q-35 41 -37 41q-27 23 -78 23q-37 0 -49 -9 q-29 -18 -79 -82.5t-68 -101.5z" />
<glyph unicode="%" horiz-adv-x="1970" d="M432 37q0 18 6 37q37 100 199 229q16 12 47 39l354 332q315 301 678 723q63 72 156 133q106 70 176 69q63 0 63 -49q0 -63 -108 -186l-111 -119q-199 -236 -506 -534l-532 -508q-225 -219 -360 -219q-62 0 -62 53zM561 932q0 156 254 391q236 217 404 264l4 2 q74 45 141 45q41 0 99.5 -40t66.5 -72q20 -80 20 -154q0 -223 -284 -412q-256 -170 -492 -170q-70 0 -131 31q-82 41 -82 115zM1012 1190q-6 -14 37 -27q20 -4 47 -4q-10 94 -45 94q-16 0 -39 -63zM1016 121q0 37 13 73.5t75 135.5q100 164 293 319q217 176 372 176 q203 0 203 -198q0 -80 -34.5 -176.5t-151.5 -206.5q-119 -117 -254 -174q-74 -31 -189.5 -58.5t-183.5 -27.5q-143 0 -143 137zM1466 391q-12 -37 19 -37q10 0 41 4q-2 55 -29 80q-27 -37 -31 -47z" />
<glyph unicode="&#x26;" horiz-adv-x="1308" d="M348 317q0 53 76 138q53 63 117 110q-90 39 -90 123q0 104 155 250q121 115 248 182q109 59 204 91l193 63l49 137q16 43 106.5 118t139.5 87q43 12 58 12q53 0 53 -47q0 -27 -15 -61q-18 -45 -22 -58l-66 -200q0 -12 -6 -35q-20 -57 -93 -122t-140 -95q-41 -18 -84 -19 q-61 -2 -76 -6q-209 -37 -324 -96q10 -18 72 -19q4 0 152.5 15.5t152.5 15.5q86 0 86 -47q0 -14 -6 -31q-20 -57 -104 -131q-90 -82 -166 -100q-84 -23 -148 -49l222 30q25 2 84 25q53 20 81 20q57 0 58 -40q0 -18 -12.5 -52t-59.5 -118q-20 -37 -59 -158q-10 -27 -23 -51 q-35 -59 -129 -127q-100 -72 -160 -72q-55 0 -55 55q0 35 31 125l43 86l-191 -30q-121 -20 -184 -21q-53 0 -100 21q-68 28 -68 81z" />
<glyph unicode="'" horiz-adv-x="921" d="M711 1051q0 20 26 92q8 23 127 299q31 72 136.5 152.5t173.5 80.5q51 0 51 -43q0 -18 -23 -78l-112 -264q0 -10 -7 -35q-27 -80 -134 -168t-181 -88q-57 1 -57 52z" />
<glyph unicode="(" horiz-adv-x="995" d="M387 203q0 66 10 104q31 115 101 338q102 285 331 627q74 113 201 231q168 158 273 158q61 0 61 -47q0 -14 -8 -35q-16 -43 -58 -90q-33 -31 -94 -96q-203 -254 -319 -576q-25 -68 -78 -280q-8 -35 -8 -101q2 -78 18 -94l10 -8q29 -27 11 -76q-33 -90 -163 -186.5 t-202 -96.5q-86 1 -86 228z" />
<glyph unicode=")" horiz-adv-x="974" d="M346 2q0 47 64 121l96 110l98 162q45 68 76 154q104 287 104 549q0 43 -4 73q-23 170 -22 199q0 25 4 37q31 84 150.5 177t195.5 93q51 0 55 -37q29 -242 29 -299q-2 -106 -37 -290q-37 -193 -84 -324q-61 -168 -227 -414q-127 -190 -269 -286q-109 -74 -174 -74 q-55 0 -55 49z" />
<glyph unicode="*" horiz-adv-x="1368" d="M524 696q0 66 158 197l219 164q-121 154 -121 213t111 141q104 78 168 78q35 0 51 -41q47 66 122 116t128 50q49 0 49 -37q0 -18 -14 -53q0 -6 -64 -140q88 63 115 80q72 47 117 61.5t67 14.5q55 0 56 -49q0 -39 -56 -100q-49 -53 -92 -78q-31 -12 -92 -43 q-37 -23 -125 -90q10 -12 92 -76q41 -31 66 -60q12 -12 -2 -51q-25 -68 -119 -135t-152 -67q-12 0 -53 30l-27 21q-4 -12 -26 -86q-18 -63 -115.5 -139t-163.5 -76q-53 0 -53 41q0 27 23 67l63 174q-106 -90 -131 -106q-88 -61 -148 -62q-51 0 -51 41z" />
<glyph unicode="+" horiz-adv-x="1607" d="M492 621q0 14 8 36q29 78 145.5 168t196.5 101q51 4 151 10l74 201q18 49 123.5 136t163.5 101q51 12 67 12q63 0 64 -49q0 -8 -4 -16l-125 -344h8q8 0 92 5t88 5q92 0 107 -2q63 -10 63 -53q0 -72 -123 -176q-109 -92 -188 -117q-41 -10 -174 -10l-88 -246 q-6 -12 -74 -94q-29 -35 -99.5 -82t-110.5 -60.5t-71 -13.5q-20 0 -38 14q-25 16 -25 39q0 6 4 15l143 395q-326 -29 -290 -29q-88 1 -88 54z" />
<glyph unicode="," horiz-adv-x="1032" d="M313 -186q0 43 62 110l94 101q12 16 29 59q12 35 10 84q-4 74 2 90q27 72 127 151.5t168 79.5q35 0 43 -14q20 -35 20 -90q0 -72 -28 -147q-23 -59 -66 -134q-51 -84 -168 -194q-150 -141 -239 -141q-54 0 -54 45z" />
<glyph unicode="-" horiz-adv-x="1476" d="M614 721q23 61 128.5 139t185.5 84h108q63 0 215 -8q162 -8 174.5 -16.5t16.5 -32.5q4 -20 0 -31q-18 -53 -110.5 -125t-162.5 -86q-45 -10 -73 -10q-4 0 -118 8t-120 8h-199q-29 0 -42 21.5t-3 48.5z" />
<glyph unicode="." horiz-adv-x="1249" d="M541 143q23 63 116 137t160 74q47 0 45 -59q-2 -16 12.5 -42t14.5 -42q0 -63 -108.5 -145t-176.5 -82q-37 0 -45 22.5t-14 46.5q-22 43 -4 90z" />
<glyph unicode="/" horiz-adv-x="1400" d="M205 2q0 18 6 37q23 61 82 121q47 41 143 137l355 377l231 266q119 139 272 342q53 72 191 236q53 59 148.5 114.5t156.5 55.5q66 0 65 -62q0 -45 -63 -115l-532 -624q-336 -403 -543 -623q-299 -317 -451 -317q-61 0 -61 55z" />
<glyph unicode="0" horiz-adv-x="1476" d="M410 276q0 174 61 340q74 203 223.5 430.5t323.5 403.5q184 188 311 188q12 0 41 -16q6 -4 45 -6q299 -18 299 -297q0 -127 -61 -301q-94 -258 -246 -483q-207 -311 -459 -453q-197 -111 -315 -111q-223 0 -223 305zM821 510q0 -180 115 -180q31 0 39 10q150 168 268 491 q12 31 33 93q16 53 16 135q0 106 -28.5 144t-114.5 50l-16 4q-66 -84 -146 -225t-117 -241q-49 -136 -49 -281z" />
<glyph unicode="1" horiz-adv-x="1050" d="M403 29q0 16 9.5 33.5t21.5 37.5l82 226q10 27 39 84l233 647q-37 -12 -53 -13q-61 0 -61 52q0 20 10 49q29 74 207 237q135 123 186 158q127 86 195 86q59 0 59 -51q0 -18 -26 -92q-31 -66 -64 -148l-295 -807q-2 -10 -14 -28.5t-17 -28.5l-77 -217q-12 -33 -80 -107 q-59 -63 -146 -118q-92 -57 -149 -58q-60 1 -60 58z" />
<glyph unicode="2" horiz-adv-x="1384" d="M256 45q0 18 8 43q27 70 191 231q82 86 301 297l354 320q111 94 225 207q10 25 -13.5 61.5t-45 44.5t-45.5 8q-53 -88 -171 -168.5t-192 -80.5q-72 0 -71 67q0 25 8 51q27 70 106 158q139 154 323.5 254t317.5 100q94 0 164 -61t70 -154q0 -45 -19 -90 q-47 -133 -307 -372l-284 -250l-338 -314q41 2 104 6q57 4 62 5q139 0 241 -23q14 -4 29 -18l24 -25q39 -25 39 -63q0 -90 -144 -208t-237 -118q-33 0 -54 27.5t-40 33.5q-51 16 -184 17q-68 0 -218.5 -17.5t-137.5 -17.5q-66 0 -66 49z" />
<glyph unicode="3" horiz-adv-x="1531" d="M133 -207q0 63 92 156q74 72 148 114l153 74q96 43 291 139l275 148q152 88 249 199q31 35 68 88q4 12 4 22q0 33 -39 62q-10 10 -28 26q-78 63 -269 64q-39 0 -162 -13q-14 -2 -59 -12q-37 -8 -55 -8q-63 0 -64 66q0 14 4 26q55 152 377 307q-166 2 -231 -6l-25 -4 q-12 -2 -20 -2q-68 0 -68 57q0 86 139 199q131 104 224 119q84 14 88 14h518q6 0 62.5 5t62.5 5q102 0 102 -57q0 -16 -8 -35q-18 -49 -95 -127t-147 -112q-35 -14 -123 -66q268 -74 269 -242q0 -45 -21 -98q-33 -90 -162 -244q-104 -119 -208 -215q-158 -143 -324 -239 q-203 -119 -377 -211q-61 -33 -227 -109l-176 -88q-117 -55 -172 -55q-66 0 -66 53z" />
<glyph unicode="4" horiz-adv-x="1675" d="M551 838q25 70 94 135q33 31 133 106l180 135q256 195 322 265q53 53 141 101t146 48q68 0 67 -55q0 -80 -106 -172q-152 -133 -475 -379q59 -43 98 -57q158 -66 262 -82q31 106 178 477q33 84 157 178t212 94h12q49 2 49 -49q0 -18 -20 -80l-74 -198q-27 -84 -90 -252 l-405 -940q-33 -76 -158 -169.5t-205 -93.5q-59 0 -59 52q0 25 18 78l215 512q-172 16 -250 34q-330 82 -436 213q-29 36 -6 99z" />
<glyph unicode="5" horiz-adv-x="1398" d="M117 -88q0 86 151 205q145 113 236 112q39 0 55 -30l6 -11q16 -29 70 -47q45 -18 88 -18q121 0 231 156q66 94 107 204q29 82 29 152q0 104 -66 156q-41 31 -51 30q-35 0 -154 -68.5t-178 -68.5q-63 0 -63 47q0 23 14 62q4 12 17.5 35.5t19.5 35.5l88 246q14 39 129 262 q47 94 182 189.5t219 95.5q53 0 64 -39l375 8q100 0 112 -2q63 -10 64 -57q0 -18 -9 -41q-29 -82 -157 -180q-133 -104 -219 -105q18 0 -72 2q-78 2 -148 2q-41 -4 -129 -8q-10 -29 -32 -86q143 55 209 55q96 0 186 -114q51 -63 51 -181q0 -113 -43 -231q-80 -219 -215 -377 q-211 -248 -440 -397q-246 -162 -443 -162q-86 0 -178 45q-106 51 -106 123z" />
<glyph unicode="6" horiz-adv-x="1474" d="M338 166q0 109 59 272q106 295 348 600q233 299 484 467q231 156 354 156q106 0 107 -66q0 -78 -136 -192q-127 -106 -208 -119q-70 -10 -78 -14q-18 -10 -72 -72q-195 -223 -299 -424q406 332 596 332q150 0 149 -109q0 -45 -26 -123q-106 -289 -457 -598 q-360 -315 -612 -315q-209 0 -209 205zM858 348q10 -2 16 -2q59 0 164 119q98 115 133 211q18 47 3 47q-12 0 -129 -100.5t-121 -112.5q12 -39 6 -55q-15 -39 -72 -107z" />
<glyph unicode="7" horiz-adv-x="1384" d="M358 23q0 23 15 61q2 8 12 22l14 29q25 41 33 60q100 229 266 444h-6q-166 14 -166 86q0 70 123 174q106 90 189 123q51 20 131 20q53 0 73 -6l222 207q-199 6 -420 0q-10 0 -33 -5t-33 -5q-66 0 -65 59q0 98 170 219q162 117 266 117h643h8l23 4q35 6 47 6q78 0 78 -57 q0 -16 -9 -37q-12 -37 -86 -119q-53 -61 -237 -178q-102 -66 -180 -137q-18 -16 -160 -160q-172 -172 -291 -360q-82 -129 -184 -348q-37 -78 -166 -172.5t-211 -94.5q-66 1 -66 48z" />
<glyph unicode="8" horiz-adv-x="1443" d="M272 131q2 41 37 139q45 123 116 213t224 217q-20 39 -20 91q0 55 20 114q27 70 111 191q147 213 377 374q240 168 413 168q23 0 51.5 -11t34.5 -21q12 -16 9 -47q115 -51 114 -170q0 -53 -22 -119q-68 -186 -338 -391q123 -59 123 -183q0 -43 -15 -86q-31 -82 -168 -211 q-176 -168 -450 -307q-266 -135 -408 -135q-70 0 -135 45q-78 51 -74 129zM713 395q0 -23 29.5 -43t60.5 -20q51 0 256 106q12 4 26 13q2 8 -15 30.5t-28 26.5q-72 35 -133 41q-31 4 -41 47q-104 -45 -137 -137q-18 -50 -18 -64zM1069 1049q0 -53 64 -54h28q66 12 144 74 q12 35 12 51q0 39 -31 64.5t-80 25.5q2 0 -57 -4q-53 -61 -72 -112q-8 -25 -8 -45z" />
<glyph unicode="9" horiz-adv-x="1435" d="M240 27q0 18 6 32q35 98 186.5 209t243.5 111q41 0 59 -29h228q4 8 22 58q27 88 98 303l-157 -68q-92 -37 -156 -37q-117 0 -178 68q-53 61 -53 164q0 72 26 147q66 182 244 346q186 172 440 271q84 33 219 32q129 0 187 -24q80 -33 80 -123q0 -53 -29 -129 q-2 -8 -43 -90l-29 -56q-12 -23 -13 -27.5t-14.5 -55t-15.5 -56.5l-78 -215q-2 -8 -36 -118l-37 -115q-16 -49 -58 -150q-74 -154 -211 -295q-170 -174 -340 -211q-61 -14 -307 -14q-203 0 -233 2q-51 2 -51 70zM1004 1126q0 -80 65 -112q25 -12 35 -13q37 6 80 29 q0 8 65 193q-27 16 -119 16q-68 0 -79 -4q-23 -8 -35 -43t-12 -66z" />
<glyph unicode=":" horiz-adv-x="929" d="M479 326q-18 49 0 100q25 70 121 151.5t164 81.5q49 0 43 -65q-2 -18 11 -46t13 -44q0 -68 -111.5 -161t-182.5 -93q-37 0 -44.5 24.5t-13.5 51.5zM731 1016q-20 49 0 102q25 70 121 151t164 81q47 0 41 -66q-2 -18 11 -46t13 -44q0 -68 -111.5 -161t-181.5 -93 q-37 0 -44 25.5t-13 50.5z" />
<glyph unicode=";" horiz-adv-x="903" d="M238 -135q0 14 8 35q16 45 81.5 113.5t82.5 115.5q10 27 15 94.5t11 83.5q27 72 121 154q102 90 178 90q39 0 45 -31v-67q0 -80 -30 -162q-27 -72 -70 -144q-53 -86 -164 -192q-141 -133 -227 -133q-51 0 -51 43zM635 905q-6 80 20.5 152.5t128 155.5t168.5 83 q47 0 49 -34q4 -94 -14 -150q-31 -80 -138.5 -161t-164.5 -81q-47 0 -49 35z" />
<glyph unicode="&#x3c;" horiz-adv-x="1486" d="M487 674q0 10 5 20q57 160 366 330q158 86 414 276l409 306q102 70 189 69q68 0 67 -55q0 -14 -6 -33q-29 -74 -94 -129q-256 -207 -596 -457l-209 -133q82 -94 117 -141q59 -80 96 -156q20 -41 98 -186q31 -59 46 -104q6 -18 -7 -54q-33 -92 -165 -193.5t-224 -101.5 q-45 0 -53 17l-141 274q-86 164 -172 254l-84 86q-56 66 -56 111z" />
<glyph unicode="=" horiz-adv-x="1562" d="M391 391q0 16 8 37q31 84 164 190q141 113 242 117q61 4 209 17q131 10 137 10q2 0 102 -8q109 -6 158 -9q70 -2 94 -8q45 -14 45 -55q0 -18 -10 -43q-37 -102 -181.5 -203.5t-246.5 -101.5q-4 0 -153.5 11t-157.5 11q-6 0 -141.5 -11t-145.5 -11q-123 0 -123 57z M653 918q0 18 6 36q33 90 175.5 195.5t234.5 107.5q66 2 145 3q96 0 410 -11q80 -4 80 -69q0 -96 -164 -219q-156 -121 -256 -121q-6 0 -154.5 8t-154.5 8h-260q-62 1 -62 62z" />
<glyph unicode="&#x3e;" horiz-adv-x="1398" d="M389 49q0 16 4 31q27 68 232 258l129 123l200 172q55 43 111 92q0 -4 -14 27l-76 190l-80 184q-57 145 -57 207q0 16 4 27q29 80 141 174q121 98 211 98q25 0 33 -2q14 -8 33 -59l20 -74l119 -285q96 -231 96 -301q0 -12 -4 -20q-31 -88 -162 -201l-360 -309l-256 -244 q-162 -147 -267 -147q-57 0 -57 59z" />
<glyph unicode="?" horiz-adv-x="1398" d="M530 53q0 86 195 228q186 137 276 137q63 0 64 -51q0 -92 -195 -238q-188 -137 -280 -137q-60 0 -60 61zM645 1008q0 25 10 49q27 74 154 209q352 373 651 372q68 0 133 -43q76 -53 76 -129q0 -29 -10 -57q-53 -150 -432 -500q49 20 86 21q61 0 61 -53q0 -14 -6 -33 q-12 -37 -78 -109q-90 -98 -272 -172q-158 -63 -258 -63q-78 0 -78 69q0 29 12 62q25 68 105 151l141 133l164 156q133 125 139 148q10 25 -31 45q-33 16 -53 16q-51 0 -82 -41q0 2 2 2q-2 -33 -24 -72q-47 -78 -158 -153.5t-180 -75.5q-72 0 -72 68z" />
<glyph unicode="@" horiz-adv-x="1896" d="M457 444q0 66 57 224q86 238 270 454q29 43 95 125q127 147 403 316q121 76 211 98q63 18 164 18q113 0 194 -45q100 -53 101 -155q0 -51 -23 -113q-29 -80 -84 -168q-117 -180 -282 -301q-10 -2 -19 -6q0 -2 2 -74t-2 -84q-25 -63 -117 -132t-149 -69q-49 0 -53 39 q-2 14 -6 111l-166 -84q-8 -4 -60 -45q-20 -14 -71.5 -37.5t-73.5 -23.5q-16 0 -55 30q47 -238 213 -237q78 0 245.5 57t284.5 231q35 51 82 140q10 31 16 45q29 55 117 114.5t135 59.5t47 -51q0 -29 -14 -70q-4 -10 -51 -84t-62 -100q-117 -205 -360 -369 q-217 -143 -453 -207q-170 -45 -215 -45q-70 0 -139.5 35t-103.5 90q-78 120 -78 313zM780 618l4 -32q16 39 64 82q33 33 86 114q90 145 127 199q76 113 143 195q45 51 166 108l76 37q39 18 70 18q14 0 28 -4q20 -29 12 -61q-18 -82 -14 -172q49 63 76 137q8 25 8 47 q0 63 -76 96q-55 23 -120 23q-104 0 -185 -49q-66 -39 -170 -150q-29 -47 -139 -192q-68 -88 -117 -223q-41 -112 -39 -173z" />
<glyph unicode="A" d="M238 27q0 23 12 57q20 59 59 119l381 555q201 287 397 536q274 344 457 344q63 0 64 -51q0 -18 -11 -53q-6 -25 -6 -59v-60q-37 -543 -39 -987q0 -90 -26 -166q-31 -84 -152 -184q-129 -106 -223 -107q-59 0 -59 58q0 10 4 24q16 49 20 113q2 22 2 50t-2 63q-2 86 -2 106 q-418 -209 -489 -264q-113 -86 -148 -107q-84 -49 -162 -49q-77 1 -77 62zM801 471l327 172l13 313z" />
<glyph unicode="B" horiz-adv-x="1558" d="M252 117q0 18 10 47q18 51 90 123q35 35 72 67l68 199l79 227q43 129 95 330q-10 4 -29 18q-10 16 -10 37q0 16 6 35q33 41 82 113q55 98 176 186t205 88q53 0 63 -49l92 33q184 68 373 67q96 0 203 -43q147 -57 147 -159q0 -90 -123 -234q-92 -106 -196 -186 q168 -90 168 -211q0 -41 -17 -88q-51 -135 -219 -289q-158 -141 -360 -246q-96 -51 -232 -98q-150 -51 -247 -64q-72 -2 -232 -12q-2 -2 -8 -6q-66 -39 -121 -39q-68 0 -68 49q0 14 7 31q-74 31 -74 74zM813 393q66 -8 90 -8q37 0 176 16q41 4 140 39q135 45 151 88 q3 8 3 16q0 29 -36 56q-80 59 -140 78.5t-159 19.5q-90 0 -137 -12q-59 -191 -88 -293zM1026 1032q37 10 209 43q127 25 211 60q81 34 81 52q0 20 -57 42q-39 16 -72.5 22t-105.5 6q-98 0 -209 -28z" />
<glyph unicode="C" horiz-adv-x="1353" d="M328 227q0 125 59 285q92 256 309 541q250 328 531 501q125 78 209 78q119 0 192 -166q10 -23 23 -43q14 -27 14 -49q0 -82 -135 -187.5t-219 -105.5q-41 0 -66 35q0 2 -35 68q-23 47 -49 73q-256 -260 -366 -565q-51 -137 -52 -219q0 -139 136 -139h7h15q35 0 139 39 q33 8 86 33q20 27 58 67q49 47 123 92q88 51 139 51q55 0 55 -51q0 -29 -16 -57q-82 -133 -139 -197q-86 -96 -199 -151q-190 -94 -397 -158q-90 -27 -172 -27q-250 0 -250 252z" />
<glyph unicode="D" horiz-adv-x="1601" d="M303 63q0 27 21 99q61 221 131 432l245 676q6 20 17 65l-8 23q2 8 2 12l2 8q2 14 6 27q33 90 166 188.5t225 98.5q68 0 68 -58q0 -12 -2 -32q166 49 342 49q170 0 348 -47q242 -64 242 -179q0 -57 -24 -122q-22 -59 -75 -136l-92 -125q-164 -231 -612 -550 q-432 -307 -701 -400q-39 -12 -143 -65q-45 -25 -90 -25q-68 0 -68 61zM788 446l9 5q139 41 407 227q276 193 361 315q35 41 82 119l8 23q14 80 -195 114q-121 20 -264 21q-98 0 -137 -13l-133 -366q-19 -50 -138 -445z" />
<glyph unicode="E" horiz-adv-x="1536" d="M393 57q-6 31 -6 71q0 69 19 163q4 47 20 147q37 145 80 262l246 680q23 59 130 147.5t169 104.5q53 14 69 15q49 0 60 -29v-6q6 2 22 6l58 8q86 14 122 19q328 27 471 26q102 0 121 -6q49 -14 49 -57q0 -16 -8 -35q-33 -94 -163 -188.5t-214 -94.5q-6 0 -53 3t-51 3 q-135 0 -463 -28l-63 -174q23 -2 34 -2q23 4 48 10q311 72 534 72q133 0 133 -58q0 -68 -115 -170q-98 -88 -178 -123q-51 -23 -107.5 -24.5t-111.5 -1.5q-154 -16 -174 -19q-96 -14 -174 -33q-29 -90 -55 -278q-6 -40 -7 -68q0 -17 3 -30q4 -14 24 -15q51 0 234 56 q106 35 151 59q8 4 125 88q31 20 84 40.5t80 20.5q57 0 57 -61q0 -80 -139 -203q-115 -104 -307 -198q-94 -47 -295 -109q-223 -70 -315 -70q-128 0 -144 80z" />
<glyph unicode="F" horiz-adv-x="1329" d="M283 16q0 8 4 17l207 569q2 6 40.5 142.5t43.5 142.5l194 536q23 61 133 152q104 88 168 104q51 14 70 15q61 0 61 -37q0 -8 -2 -17q10 2 139 19l99 12q45 6 51 6h283q2 0 10 2l20 2q37 6 45 7q78 0 78 -56q0 -16 -8 -37q-27 -76 -141 -170q-121 -100 -219 -114 q-82 -12 -99 -13h-276q-4 0 -41 -4q-43 -6 -68 -8l-84 -280q270 106 551 106q92 0 92 -57q0 -14 -6 -35q-29 -74 -138.5 -167t-182.5 -108q-43 -8 -207 -18q-125 -8 -215 -41l-168 -461q-8 -23 -27 -37q-45 -76 -153 -147q-113 -78 -189 -78q-23 0 -44 15t-21 38z" />
<glyph unicode="G" horiz-adv-x="1648" d="M381 270q0 123 49 258q35 96 133 263q225 375 631 620q369 223 672 223q182 0 182 -106q0 -25 -12 -58q-31 -84 -158 -184t-217 -100q-59 0 -62 57q0 23 -49 23q-150 0 -303 -80q-160 -84 -243 -211l-82 -125q-37 -63 -64 -133q-37 -102 -37 -197q0 -162 115 -186 q102 -20 111 -21q49 0 155 37q100 33 166 70l59 158h-149q-35 0 -154 -29q-27 -6 -51 -6q-92 0 -92 61q0 18 8 39q29 78 151 176.5t212 104.5q347 21 347 22h-1q18 0 65 2q33 2 54 0q29 -2 61 -16q20 -8 20 -35q0 -31 -26 -90l-37 -80l-88 -244q-8 -20 -15.5 -60t-13.5 -61 q-31 -84 -155.5 -180t-210.5 -96q-47 0 -64 35q-104 -55 -278 -115q-195 -66 -283 -65q2 0 -115 22q-37 6 -100 27q-131 87 -131 280z" />
<glyph unicode="H" horiz-adv-x="1783" d="M276 -25q0 31 32 96.5t59 149.5l258 887l92 242q35 86 171 187t224 101q59 0 59 -45q0 -31 -28 -90q-20 -43 -103 -286q-23 -63 -55 -191q33 -4 37 -4q8 0 131 10t129 10h246q37 96 74 238q0 25 6 72q31 84 163 188.5t224 104.5q51 0 61 -37q6 -20 6 -45q0 -39 -14 -90 q-31 -123 -86 -273l-94 -258q-14 -41 -76 -250q-72 -240 -84 -309q-4 -53 -20 -141q-33 -88 -163 -187.5t-220 -99.5q-68 0 -68 63l12 93q16 111 66 278l84 279l-518 -15l-45 -159l-99 -271q-31 -86 -168 -190.5t-225 -104.5q-68 0 -68 47z" />
<glyph unicode="I" horiz-adv-x="1388" d="M256 25q0 16 6 32q35 94 170 191q129 90 207 90q2 0 57 -6q2 16 4 22l101 275l149 483q18 57 60 174q-39 -2 -103.5 -8t-68.5 -6q-68 0 -68 57q0 82 137 195q127 102 217 116q131 25 367 25q14 0 68 2q20 1 36.5 1t28.5 -1q37 -2 63.5 -11t26.5 -38q0 -88 -129 -197 q-117 -100 -209 -121l-112 -370l-123 -342q-4 -14 -11 -47q-16 -59 -57 -191l144 8q59 0 79 -4q41 -10 41 -47q0 -18 -8 -41q-27 -72 -121 -152.5t-186 -113.5q-36 -13 -78 -13q-6 0 -12 1h-84q-326 -33 -430 -33q-162 0 -162 70z" />
<glyph unicode="J" horiz-adv-x="1531" d="M334 270q0 39 14 82q53 143 270.5 334t342.5 191q59 0 59 -52q0 -18 -8 -41q-33 -90 -183 -196q-20 -14 -47 -43q-4 -12 -4 -23q0 -57 103 -119q72 -41 110 -51q78 -16 133 -20q23 39 31 65q14 39 105 416q92 395 124 498h-55q-6 0 -51 -8l-111 -17q-164 -27 -174 -26 q-76 0 -75 55q0 16 8 35q35 100 184 200q141 96 223 97q6 0 21.5 -2.5t23.5 -2.5q4 0 29 5l70 10l153 24q18 2 131 2q199 0 246 -36q17 -13 17 -38q0 -17 -9 -40q-20 -55 -93 -124t-153 -114q-39 -154 -102 -446q-37 -168 -82 -289q-90 -248 -285 -428q-227 -209 -489 -209 q-156 0 -303 80q-174 94 -174 231z" />
<glyph unicode="K" horiz-adv-x="1628" d="M297 35q0 70 65 176q47 115 99 278l198 633q0 8 105 271q33 82 156.5 176t212.5 94q63 0 63 -51q0 -10 -4 -23l-133 -368q-16 -43 -55 -185l350 275l264 215q156 127 248 127q63 0 63 -49q0 -80 -129 -197q-117 -106 -516 -414q125 -111 230.5 -303t127.5 -348 q2 -16 13.5 -43t11.5 -43q0 -18 -10 -43q-31 -86 -161 -183.5t-212 -97.5q-53 0 -66.5 46.5t-23.5 89.5q-4 20 -16 73q-29 119 -123 275q-88 145 -174 229q-12 -47 -47 -149l-89 -195q0 -12 -4 -35q-35 -86 -166 -184t-215 -98q-63 0 -63 51z" />
<glyph unicode="L" horiz-adv-x="1441" d="M283 -18q2 47 34 159l97 334q115 381 237 715q27 78 82 225q37 86 169 182.5t218 96.5q68 0 68 -54q0 -10 -4 -22l-111 -303q-82 -225 -182 -565l-68 -252q-18 -57 -51 -170l111 22q223 61 417 62q240 0 240 -82q0 -92 -154.5 -211t-250.5 -119q-6 0 -86 8t-86 8 q-96 0 -226 -24l-231 -49q-135 -27 -146 -27q-83 0 -77 66z" />
<glyph unicode="M" horiz-adv-x="2142" d="M254 45q0 20 8 47q6 16 66 133q63 129 96 185q74 127 311 491q125 195 187 283q111 154 215 270q100 111 227 160l76 28q90 33 116 33q66 0 66 -53q0 -25 -35 -121t-57 -215q-20 -109 -35 -442l262 299q113 141 283 287q223 193 346 192q72 0 72 -55q0 -10 -4 -21 l-117 -325q-10 -33 -27 -95q-27 -76 -74 -223l-77 -319q-2 -27 -11 -80q-41 -174 -74.5 -267.5t-158.5 -195.5q-135 -109 -238 -109q-67 0 -67 49q0 8 2 17q25 84 69 254q6 49 29 162q16 76 57 233l70 217q-98 -123 -215 -307l-197 -313q-49 -78 -165.5 -154t-188.5 -76 q-47 0 -55 4q-18 8 -19 50v29q0 197 47 765q-205 -309 -286 -500q-2 -6 -6 -12l-7 -8q-137 -182 -176 -221q-127 -129 -252 -129q-63 0 -63 53z" />
<glyph unicode="N" horiz-adv-x="1699" d="M295 -8q0 25 22 110q76 281 205 637q2 4 84 209t84 209l98 273q2 4 33 47q55 76 160 145q113 76 186 76q61 0 62 -49q0 -29 -21.5 -67t-21.5 -69q8 -319 182 -825l29 74l241 661q2 8 33 54q57 80 165 150.5t179 70.5q57 0 58 -39q0 -27 -27 -96q-260 -651 -453 -1241 q4 -45 0 -60q-35 -92 -157 -199q-135 -115 -238 -114q-47 0 -61 33q-8 -2 -19 -2q-57 0 -71.5 51t-26.5 100q-49 117 -168 492q-47 -137 -92 -291q-4 -43 -23 -127q-35 -90 -158.5 -183.5t-207.5 -93.5q-76 1 -76 64z" />
<glyph unicode="O" horiz-adv-x="1765" d="M344 195q0 100 47 225q143 399 512 776q391 399 739 453q6 0 95 18q59 12 94 12q137 0 221 -87t84 -232q0 -57 -14 -119q-20 -88 -47 -162q-100 -279 -344 -528q-266 -274 -650 -459q-285 -137 -481 -137q-256 0 -256 240zM797 459q0 -129 127 -129q102 0 276 82t256 170 q123 133 184 303q41 111 41 205q0 115 -65 172q-47 41 -107 41q-80 0 -192 -54q-33 -16 -72 -28q-94 -33 -250 -285q-123 -203 -168 -324q-30 -87 -30 -153z" />
<glyph unicode="P" horiz-adv-x="1443" d="M303 27q0 23 8 55q82 317 156 520l104 285q2 4 16.5 59t16.5 62l96 262q-6 45 -2 51l45 72q51 96 172 185t205 89q49 0 60 -31q248 68 389 68q303 0 399 -166q23 -37 23 -78q0 -33 -15 -74q-70 -193 -358 -403q-256 -188 -506 -272q-74 -25 -248 -64l-110 -375 q-35 -94 -158 -196q-129 -106 -225 -107q-68 1 -68 58zM985 1022q16 -4 33 -18q129 14 262 51q31 10 156 69q43 20 57 29q35 20 41 39q2 4 2 9q0 24 -45 56q-39 29 -66 39q-47 14 -82 17q-112 9 -111 10h3q-18 0 -156 -23q-59 -182 -94 -278z" />
<glyph unicode="Q" horiz-adv-x="1804" d="M362 373q0 100 41 211q27 76 119 229q158 268 459 524q330 281 600 330q133 27 150 27q14 0 35.5 -14.5t29.5 -14.5q74 -2 127 -29q225 -119 225 -364q0 -131 -67 -316q-39 -109 -115 -247q-96 -180 -182 -271q-12 -12 -39 -37l-14 -14q-4 -8 30.5 -31.5t34.5 -56.5 q0 -16 -8 -33q-33 -96 -169 -190t-220 -94q-59 0 -101 81q-12 -8 -47 -24q-211 -98 -383 -98q-238 0 -374 122q-132 117 -132 310zM815 635q0 -137 96 -223q100 -92 277 -93h8q-16 41 -37 82l-35 64q-20 41 -20 74q0 90 158 206q152 115 247 115q61 0 62 -49q0 -12 -4 -31 q10 -33 32 -73l11 -17q33 72 39 88q55 153 55 227q0 14 -2 25q-53 266 -299 266q-12 0 -54 -12t-59 -12q-6 0 -30 10q-29 0 -134 -94q-86 -76 -167.5 -195t-116.5 -217q-27 -71 -27 -141z" />
<glyph unicode="R" horiz-adv-x="1632" d="M266 -8q0 6 2 14l277 758l57 184l68 182q-49 10 -49 54q0 16 8 37q23 63 82 114l14 15q23 18 49.5 65t59.5 80q61 61 141 109q88 51 147 51q55 0 68 -39q150 55 323 55q158 0 289 -39q174 -49 228 -153q8 -16 8 -39q0 -39 -21 -92q-51 -139 -215 -291 q-156 -143 -358 -250q96 -117 123 -170q41 -76 61 -213q6 -41 27 -117q8 -18 -4 -55q-33 -88 -161 -186.5t-218 -98.5q-70 0 -90 117l-29 172q-25 68 -72 135q-57 86 -107 106.5t-147 45.5q-2 -4 -92 -252q0 -33 -8 -51q-31 -88 -162 -193q-135 -111 -229 -110 q-23 0 -46.5 15t-23.5 40zM981 961q47 18 106 20q80 6 103 10q57 10 143 41l144 55q104 39 104 80q0 63 -219 111q-82 16 -176 16q6 0 -96 -6l-11 -28q-14 -53 -45 -152z" />
<glyph unicode="S" horiz-adv-x="1462" d="M350 66q0 27 12 57q33 94 191 235q172 154 285 154q61 0 61 -51q0 -18 -10 -43q-14 -43 -55 -88h47q70 0 192 28q106 25 160 48q10 27 10 57q0 78 -65.5 139.5t-133.5 61.5l-126 -37q-268 -74 -361 -74q-115 0 -115 94q0 41 25 107q92 256 436 544q322 270 604 369 q59 20 195 21q217 0 217 -125q0 -37 -16 -84l-25 -60q-43 -86 -166 -172t-201 -86q-66 0 -65 43q0 16 9 43t9 39q0 23 -59 23h-17h-14q-70 0 -92 -6q-86 -23 -227.5 -156t-157.5 -213q31 6 223 53q238 55 248 55q123 0 219 -77q109 -84 115 -220v-12q0 -47 -27 -119 q-49 -135 -209 -292q-61 -61 -159 -134q-104 -74 -172 -102q-123 -51 -295 -92q-180 -43 -289 -43q-201 0 -201 115z" />
<glyph unicode="T" horiz-adv-x="1748" d="M532 1255q0 84 148 201q137 109 229 123q127 20 381 53q166 14 486 33q270 16 299 16q98 0 133 -6q82 -16 82 -67q0 -90 -158 -209q-150 -117 -244 -117q-14 0 -36.5 7t-32.5 7q-18 2 -70 2q-35 0 -186 -6l-62 -6l-119 -383l-79 -219l-48 -145l-47 -146l-60 -161 q-34 -87 -172 -191t-222 -104q-66 0 -66 47q0 49 22.5 85.5t51.5 116.5q2 6 28.5 95.5t30.5 95.5l78 217q2 6 59.5 191.5t59.5 191.5l104 285h-30q-4 0 -244 -35t-248 -35q-68 0 -68 63z" />
<glyph unicode="U" horiz-adv-x="1648" d="M342 131q0 129 96 389l172 426l95 240q63 156 112 233q45 72 156.5 149t183.5 77q61 0 62 -50q0 -18 -13 -53q-2 -6 -172 -417.5t-172 -419.5q-82 -223 -82 -308q0 -49 21 -71q14 -14 100 -15q176 0 251 72t153 111q207 635 243 737l70 186q33 76 149 164q125 94 209 94 q66 0 66 -51q0 -10 -4 -20l-90 -250l-50 -156q-53 -150 -133 -397l-143 -504q-35 -96 -147 -195q-125 -109 -228 -108q-63 0 -63 47q0 -4 28 117q-152 -96 -328.5 -157.5t-301.5 -61.5q-141 0 -195 51q-45 45 -45 141z" />
<glyph unicode="V" horiz-adv-x="1376" d="M639 717q-1 89 -1 160t1 124q6 158 23 304q-4 18 0 61q33 92 166 187.5t216 95.5q61 0 62 -43q0 -16 -10 -60q-10 -51 -17 -155q-5 -96 -4 -290q0 -145 2 -345l236 370l135 195q119 180 240 262q98 66 165 66q63 0 64 -47q0 -18 -10.5 -48t-85.5 -137 q-246 -352 -357 -543l-186 -321q-109 -188 -170 -322q-41 -88 -165 -183t-208 -95q-39 0 -53 18q-8 12 -14 58q-27 229 -27 391q1 28 1 70q0 85 -3 227z" />
<glyph unicode="W" horiz-adv-x="1892" d="M520 10q0 8 2 26.5t2 29.5q-1 44 -1 84q0 162 20 262l69 471q43 283 109 463l22 57q43 84 166 168t195 84q66 0 65 -58q0 -33 -22 -88q-49 -133 -92 -381q-10 -59 -54 -380q76 115 181 292q164 283 172 295q43 74 157.5 151t188.5 77q61 0 61 -50q0 -12 -2 -40 q-8 -63 -33 -191q-63 -334 -81 -530q106 162 161 262l224 452q33 59 122 144q100 90 179 116q57 20 82 21q66 0 65 -49q0 -18 -10 -49q-29 -45 -76 -127q-55 -125 -180 -373q-14 -27 -207 -328l-369 -555q-57 -88 -176 -172q-127 -90 -207 -90q-57 0 -75 45q0 2 -17 94 q-4 14 3 46t7 40q4 49 41 367l-208 -311q-141 -195 -263 -262q-104 -59 -159 -60q-62 0 -62 47z" />
<glyph unicode="X" horiz-adv-x="1722" d="M168 8q0 18 6 37q16 45 59 100l78 97q119 154 185 219q49 49 415 375l41 32q6 14 -88 222l-106 223q-6 15 -6 31q0 19 8 38q31 90 173 195.5t241 105.5q37 0 76.5 -14t47 -26.5t7.5 -26.5q0 -27 -29 -76q63 -141 119 -283q152 123 315 228q219 139 303 139q70 0 70 -51 q0 -18 -10 -45q-51 -139 -353 -299q-61 -33 -161 -113q-92 -72 -97 -84q2 4 39 -92l70 -172q31 -84 104 -317q8 -27 29 -56l39 -55q10 -18 -2 -53q-35 -96 -177.5 -199.5t-234.5 -103.5q-45 0 -57 14q-39 51 -88 213q-23 74 -160 426q-166 -143 -223 -203q-86 -86 -195 -233 q-66 -88 -172 -166q-119 -84 -203 -84q-63 0 -63 57z" />
<glyph unicode="Y" horiz-adv-x="1415" d="M545 834q0 121 61 290q2 6 121 277q39 86 166 182t211 96q70 0 70 -61q0 -16 -7 -33q-23 -31 -55 -86q-35 -66 -78 -184q-49 -131 -49 -221q0 -186 207 -187q137 0 186 51q59 59 125 240q14 43 15 143q0 8 12 41q31 86 153.5 186.5t214.5 100.5q16 0 39 -10t23 -25 q3 -30 3 -59q0 -98 -36 -197q-190 -522 -704 -760l-90 -299q-4 -31 -19 -90q-31 -86 -163 -187t-216 -101q-66 0 -65 53q0 6 37 137q20 59 55 174q16 78 69 236q-286 33 -286 293z" />
<glyph unicode="Z" horiz-adv-x="1849" d="M170 20q0 18 8 41q20 59 107 156q74 86 143 143l82 70q311 291 1024 868q-92 -2 -178 -10q-72 -6 -240 -24q-147 -14 -151 -15q-109 0 -109 54q0 16 8 38q31 88 168 192.5t228 104.5q10 0 26.5 -5t24.5 -5h-1q0 1 76 8l275 29q137 14 299 14t278 -22q29 -6 39 -35 q4 -13 4 -25q0 -15 -6 -30q-20 -53 -102 -129q-70 -68 -131 -103q-39 -23 -105 -43q-80 -25 -106 -37q-70 -33 -535 -424q-403 -342 -528 -456q145 18 436 45q43 2 209 2q203 0 227 -2l140 -25q14 -4 43 -35q53 -24 53 -62q0 -13 -10 -42q-33 -90 -165 -185.5t-214 -95.5 q-63 0 -94 43q-18 25 -308 25q-207 0 -204 2q-59 -6 -381 -45q-39 -4 -148 -23l-69 -12q-31 -4 -39 -4q-74 0 -74 59z" />
<glyph unicode="[" horiz-adv-x="1218" d="M336 39q0 8 2 14l82 226l6 28l14 70q37 193 148 497q100 274 184 474q23 53 116 134t165 107q82 29 118 29h275q8 0 30.5 7t32.5 7q61 0 62 -49q0 -86 -133 -197q-123 -104 -215 -120q-57 -12 -152 -13q-23 -55 -67 -178q-100 -279 -162 -577l-51 -152q150 27 315 31 q10 0 33.5 7t36.5 7q57 0 57 -51q0 -80 -113 -184q-98 -92 -186 -125q-43 -16 -70 -19q-66 0 -194 -8q-45 -4 -152 -18l-67 -11q-33 -4 -39 -4q-20 0 -48 21.5t-28 46.5z" />
<glyph unicode="\" horiz-adv-x="1550" d="M731 1356q31 82 155 178t210 96q53 0 61 -24q18 -47 33 -123q23 -119 24 -127l48 -191l98 -434q70 -272 149 -409q20 -37 4 -86q-33 -86 -156.5 -181.5t-207.5 -95.5q-49 0 -59 23q-70 147 -103 290q-35 106 -96 328q-66 258 -141 596q-31 129 -19 160z" />
<glyph unicode="]" horiz-adv-x="1271" d="M295 53q0 86 151 205q145 113 236 113h166l63 176q12 47 39 133l213 586q-8 0 -23.5 4t-25.5 4h-194q-53 0 -54 57q0 18 6 33q29 80 152 175t203 97q59 2 106 2q84 0 150 -8q133 -16 133 -76q0 -6 -2 -12l-418 -1145q-2 -6 -18 -30q-14 -41 -50 -123q-45 -90 -163.5 -173 t-202.5 -83q-6 0 -131 9t-131 9q-4 0 -71 -5t-71 -5q-63 0 -63 57z" />
<glyph unicode="^" horiz-adv-x="1314" d="M651 1092q0 66 140 180l196 151l105 95q145 117 241 116q41 0 49 -16l50 -131q49 -109 98 -168q35 -39 18 -86q-27 -72 -136 -152t-183 -80q-35 0 -84 68q-35 47 -55 88l-37 88l-166 -127q-106 -74 -174 -74q-62 1 -62 48z" />
<glyph unicode="_" horiz-adv-x="1333" d="M55 45q25 68 139.5 144.5t192.5 76.5h483q6 0 41 -4t39 -4h416q31 0 46 -27.5t7 -54.5q-23 -63 -139.5 -142t-192.5 -79q-12 0 -24 8h-406q-6 0 -40.5 4t-41.5 4h-473q-29 0 -43 23.5t-4 50.5z" />
<glyph unicode="`" horiz-adv-x="1087" d="M842 1253q-4 137 10 179q27 72 132.5 153.5t176.5 81.5q57 0 58 -59q0 10 -7 -70q-4 -49 48 -172q6 -16 -7 -49q-25 -74 -134 -155t-179 -81q-31 0 -45 23q-4 6 -23 49q-16 32 -30 100z" />
<glyph unicode="a" d="M238 27q0 23 12 57q20 59 59 119l381 555q201 287 397 536q274 344 457 344q63 0 64 -51q0 -18 -11 -53q-6 -25 -6 -59v-60q-37 -543 -39 -987q0 -90 -26 -166q-31 -84 -152 -184q-129 -106 -223 -107q-59 0 -59 58q0 10 4 24q16 49 20 113q2 22 2 50t-2 63q-2 86 -2 106 q-418 -209 -489 -264q-113 -86 -148 -107q-84 -49 -162 -49q-77 1 -77 62zM801 471l327 172l13 313z" />
<glyph unicode="b" horiz-adv-x="1558" d="M252 117q0 18 10 47q18 51 90 123q35 35 72 67l68 199l79 227q43 129 95 330q-10 4 -29 18q-10 16 -10 37q0 16 6 35q33 41 82 113q55 98 176 186t205 88q53 0 63 -49l92 33q184 68 373 67q96 0 203 -43q147 -57 147 -159q0 -90 -123 -234q-92 -106 -196 -186 q168 -90 168 -211q0 -41 -17 -88q-51 -135 -221 -289q-156 -141 -358 -246q-96 -51 -232 -98q-150 -51 -247 -64q-72 -2 -232 -12q-2 -2 -8 -6q-66 -39 -121 -39q-68 0 -68 49q0 14 7 31q-74 31 -74 74zM813 393q66 -8 90 -8q37 0 176 16q41 4 140 39q135 45 151 88 q3 8 3 16q0 29 -36 56q-80 59 -140 78.5t-159 19.5q-90 0 -137 -12q-59 -191 -88 -293zM1026 1032q37 10 209 43q129 25 211 60q81 34 81 52q0 20 -57 42q-39 16 -72.5 22t-105.5 6q-98 0 -209 -28z" />
<glyph unicode="c" horiz-adv-x="1353" d="M328 227q0 125 59 285q92 256 309 541q250 328 531 501q125 78 209 78q119 0 192 -166q10 -23 23 -43q14 -27 14 -49q0 -80 -135 -186.5t-219 -106.5q-41 0 -66 35q0 2 -35 68q-23 47 -49 73q-256 -260 -366 -565q-51 -137 -52 -219q0 -139 136 -139h7h15q35 0 139 39 q33 8 86 33q20 27 58 67q49 47 123 92q88 51 139 51q55 0 55 -51q0 -29 -16 -57q-82 -133 -139 -197q-86 -96 -199 -151q-190 -94 -397 -158q-90 -27 -172 -27q-250 0 -250 252z" />
<glyph unicode="d" horiz-adv-x="1601" d="M303 63q0 27 21 99q61 221 131 432l245 676q6 20 17 65l-8 23q2 8 2 12l2 8q2 14 6 27q33 90 166 188.5t225 98.5q68 0 68 -58q0 -12 -2 -32q166 49 342 49q170 0 348 -47q242 -64 242 -179q0 -57 -24 -122q-22 -59 -75 -136l-92 -125q-164 -231 -612 -550 q-432 -307 -701 -400q-39 -12 -143 -65q-45 -25 -90 -25q-68 0 -68 61zM788 446l9 5q139 41 407 227q276 193 361 315q35 41 82 119l8 23q14 80 -195 114q-121 20 -264 21q-98 0 -137 -13l-133 -366q-19 -50 -138 -445z" />
<glyph unicode="e" horiz-adv-x="1536" d="M393 57q-6 31 -6 71q0 69 19 163q4 47 20 147q37 145 80 262l246 680q23 59 130 147.5t169 104.5q53 14 69 15q49 0 60 -29v-6q6 2 22 6l58 8q86 14 122 19q328 27 471 26q102 0 121 -6q49 -14 49 -57q0 -16 -8 -35q-33 -94 -163 -188.5t-214 -94.5q-6 0 -53 3t-51 3 q-135 0 -463 -28l-63 -174q23 -2 34 -2q23 4 48 10q311 72 534 72q133 0 133 -58q0 -68 -115 -170q-98 -88 -178 -123q-51 -23 -107.5 -24.5t-111.5 -1.5q-154 -16 -174 -19q-96 -14 -174 -33q-29 -90 -55 -278q-6 -40 -7 -68q0 -17 3 -30q4 -14 24 -15q51 0 234 56 q106 35 151 59q8 4 125 88q31 20 84 40.5t80 20.5q57 0 57 -61q0 -80 -139 -203q-115 -104 -307 -198q-94 -47 -295 -109q-223 -70 -315 -70q-128 0 -144 80z" />
<glyph unicode="f" horiz-adv-x="1329" d="M283 16q0 8 4 17l207 569q2 6 40.5 142.5t43.5 142.5l194 536q23 61 133 152q104 88 168 104q51 14 70 15q61 0 61 -37q0 -8 -2 -17l139 19q141 18 150 18h283q2 0 10 2l20 2q37 6 45 7q78 0 78 -56q0 -16 -8 -37q-27 -76 -141 -170q-121 -100 -219 -114q-82 -12 -99 -13 h-276q-4 0 -41 -4q-43 -6 -68 -8l-84 -280q270 106 551 106q92 0 92 -57q0 -14 -6 -35q-29 -74 -138.5 -167t-182.5 -108q-43 -8 -207 -18q-125 -8 -215 -41l-168 -461q-8 -23 -27 -37q-45 -76 -153 -147q-113 -78 -189 -78q-23 0 -44 15t-21 38z" />
<glyph unicode="g" horiz-adv-x="1648" d="M381 270q0 123 49 258q35 96 133 263q225 375 631 620q369 223 672 223q182 0 182 -106q0 -25 -12 -58q-31 -84 -158 -184t-217 -100q-59 0 -62 57q0 23 -49 23q-150 0 -303 -80q-160 -84 -243 -211l-82 -125q-37 -63 -64 -133q-37 -102 -37 -197q0 -162 115 -186 q102 -20 111 -21q49 0 155 37q100 33 166 70l59 158h-149q-35 0 -154 -29q-27 -6 -51 -6q-92 0 -92 61q0 18 8 39q29 78 151 176.5t212 104.5q347 21 347 22h-1q18 0 65 2q33 2 54 0q29 -2 61 -16q20 -8 20 -35q0 -31 -26 -90l-37 -80l-88 -244q-8 -20 -15.5 -60t-13.5 -61 q-31 -84 -155.5 -180t-210.5 -96q-47 0 -64 35q-104 -55 -278 -115q-195 -66 -283 -65q2 0 -115 22q-37 6 -100 27q-131 87 -131 280z" />
<glyph unicode="h" horiz-adv-x="1783" d="M276 -25q0 31 32 96.5t59 149.5l258 887l92 242q35 86 171 187t224 101q59 0 59 -45q0 -31 -28 -90q-20 -43 -103 -286q-23 -63 -55 -191q33 -4 37 -4q8 0 131 10t129 10h246q37 96 74 238q0 25 6 72q31 84 163 188.5t224 104.5q51 0 61 -37q6 -20 6 -45q0 -39 -14 -90 q-31 -123 -86 -273l-94 -258q-14 -41 -76 -250q-72 -240 -84 -309q-4 -53 -20 -141q-33 -88 -163 -187.5t-220 -99.5q-68 0 -68 63l12 93q16 111 66 278l84 279l-518 -15l-45 -159l-99 -271q-31 -86 -168 -190.5t-225 -104.5q-68 0 -68 47z" />
<glyph unicode="i" horiz-adv-x="1024" d="M408 12q0 10 4 23l49 158l153 505l93 252l94 318l-2 2q-22 11 -22 40q0 19 9 46q35 94 187 207q145 109 227 108q58 0 58 -46q0 -37 -19 -85q-29 -74 -33 -90q-6 -25 -21.5 -76t-164.5 -502l-135 -434l-41 -164q-31 -88 -156 -196q-131 -115 -219 -115q-61 0 -61 49z" />
<glyph unicode="j" horiz-adv-x="1576" d="M338 270q0 39 14 80q53 145 268.5 333.5t337.5 188.5q59 0 60 -49q0 -20 -8 -41q-33 -90 -181 -196q-20 -14 -47 -43q-4 -10 -4 -23q0 -57 103 -117q72 -41 108 -49q76 -18 133 -22q20 39 31 65q20 55 61 236l80 350q72 303 104 392t152 192q129 109 230 108q55 0 55 -47 q0 -23 -39 -166q-29 -104 -80 -311l-61 -283q-35 -160 -78 -274q-88 -246 -283 -424q-225 -209 -485 -209q-152 0 -299 80q-172 92 -172 229z" />
<glyph unicode="k" horiz-adv-x="1628" d="M297 35q0 70 65 176q47 115 99 278l198 633q0 8 105 271q33 82 156.5 176t212.5 94q63 0 63 -51q0 -10 -4 -23l-133 -368q-16 -43 -55 -185l350 275l264 215q156 127 248 127q63 0 63 -49q0 -80 -129 -197q-117 -106 -516 -414q125 -111 230.5 -303t127.5 -348 q2 -16 13.5 -43t11.5 -43q0 -18 -10 -43q-31 -86 -161 -183.5t-212 -97.5q-53 0 -66.5 46.5t-23.5 89.5q-4 20 -16 73q-29 119 -123 275q-88 145 -174 229q-12 -47 -47 -149l-89 -195q0 -12 -4 -35q-35 -86 -166 -184t-215 -98q-63 0 -63 51z" />
<glyph unicode="l" horiz-adv-x="1441" d="M283 -18q2 47 34 159l97 334q115 381 237 715q27 78 82 225q37 86 169 182.5t218 96.5q68 0 68 -54q0 -10 -4 -22l-111 -303q-82 -225 -182 -565l-68 -252q-18 -57 -51 -170l111 22q223 61 417 62q240 0 240 -82q0 -92 -154.5 -211t-250.5 -119q-6 0 -86 8t-86 8 q-96 0 -226 -24l-231 -49q-135 -27 -146 -27q-83 0 -77 66z" />
<glyph unicode="m" horiz-adv-x="2142" d="M254 45q0 20 8 47q6 16 66 133q63 129 96 185q74 127 311 491q125 195 187 283q111 154 215 270q100 111 227 160l76 28q90 33 116 33q66 0 66 -53q0 -25 -35 -121t-57 -215q-20 -109 -35 -442l262 299q113 141 283 287q223 193 346 192q72 0 72 -55q0 -10 -4 -21 l-117 -325q-10 -33 -27 -95q-27 -76 -74 -223l-77 -319q-2 -27 -11 -80q-41 -174 -74.5 -267.5t-158.5 -195.5q-135 -109 -238 -109q-67 0 -67 49q0 8 2 17q25 84 69 254q6 49 29 162q16 76 57 233l68 217q-96 -123 -213 -307l-197 -313q-49 -78 -165.5 -154t-188.5 -76 q-47 0 -55 4q-18 8 -19 50v29q0 197 47 765q-205 -309 -286 -500q-2 -6 -6 -12l-7 -8q-137 -182 -176 -221q-127 -129 -252 -129q-63 0 -63 53z" />
<glyph unicode="n" horiz-adv-x="1699" d="M295 -8q0 25 22 110q76 281 205 637q2 4 84 209t84 209l98 273q2 4 33 47q55 76 160 145q113 76 186 76q61 0 62 -49q0 -29 -21.5 -67t-21.5 -69q8 -319 182 -825l29 74l241 661q2 8 33 54q57 80 165 150.5t179 70.5q57 0 58 -39q0 -27 -27 -96q-260 -651 -453 -1241 q4 -45 0 -60q-35 -92 -157 -199q-135 -115 -238 -114q-47 0 -61 33q-8 -2 -19 -2q-57 0 -71.5 51t-26.5 100q-49 117 -168 492q-47 -137 -92 -291q-4 -43 -23 -127q-35 -90 -158.5 -183.5t-207.5 -93.5q-76 1 -76 64z" />
<glyph unicode="o" horiz-adv-x="1765" d="M344 195q0 100 47 225q143 399 512 776q391 399 739 453q6 0 95 18q59 12 94 12q137 0 221 -87t84 -232q0 -57 -14 -119q-20 -88 -47 -162q-100 -279 -344 -528q-266 -274 -650 -459q-285 -137 -481 -137q-256 0 -256 240zM797 459q0 -129 127 -129q102 0 276 82t256 170 q123 133 184 303q41 111 41 205q0 115 -65 172q-47 41 -107 41q-80 0 -192 -54q-33 -16 -72 -28q-94 -33 -250 -285q-123 -203 -168 -324q-30 -87 -30 -153z" />
<glyph unicode="p" horiz-adv-x="1443" d="M303 27q0 23 8 55q82 317 156 520l104 285q2 4 16.5 59t16.5 62l96 262q-6 45 -2 51l45 72q51 96 172 185t205 89q49 0 60 -31q248 68 389 68q303 0 399 -166q23 -37 23 -78q0 -33 -15 -74q-70 -193 -358 -403q-256 -188 -506 -272q-74 -25 -248 -64l-110 -375 q-35 -94 -158 -196q-129 -106 -225 -107q-68 1 -68 58zM985 1022q16 -4 33 -18q129 14 262 51q31 10 156 69q43 20 57 29q35 20 41 39q2 4 2 9q0 24 -45 56q-39 29 -66 39q-47 14 -82 17q-112 9 -111 10h3q-18 0 -156 -23q-59 -182 -94 -278z" />
<glyph unicode="q" horiz-adv-x="1804" d="M362 373q0 100 41 211q27 76 119 229q158 268 459 524q330 281 600 330q133 27 150 27q14 0 35.5 -14.5t29.5 -14.5q74 -2 127 -29q225 -119 225 -364q0 -131 -67 -316q-39 -109 -115 -247q-96 -180 -182 -271q-12 -12 -39 -37l-14 -14q-4 -8 30.5 -31.5t34.5 -56.5 q0 -16 -8 -33q-33 -96 -169 -190t-220 -94q-59 0 -101 81q-12 -8 -47 -24q-211 -98 -383 -98q-238 0 -374 122q-132 117 -132 310zM815 635q0 -137 96 -223q100 -92 277 -93h8q-16 41 -37 82l-35 64q-20 41 -20 74q0 90 158 206q152 115 247 115q61 0 62 -49q0 -12 -4 -31 q10 -33 32 -73l11 -17q33 72 39 88q55 153 55 227q0 14 -2 25q-53 266 -299 266q-12 0 -54 -12t-59 -12q-6 0 -30 10q-29 0 -134 -94q-86 -76 -167.5 -195t-116.5 -217q-27 -71 -27 -141z" />
<glyph unicode="r" horiz-adv-x="1632" d="M266 -8q0 6 2 14l277 758l57 184l68 182q-49 10 -49 54q0 16 8 37q23 63 82 114l14 15q23 18 49.5 65t59.5 80q61 61 141 109q88 51 147 51q55 0 68 -39q150 55 323 55q158 0 289 -39q174 -49 228 -153q8 -16 8 -39q0 -39 -21 -92q-51 -139 -215 -291 q-156 -143 -358 -250q96 -117 123 -170q41 -76 61 -213q6 -41 27 -117q8 -18 -4 -55q-33 -88 -161 -186.5t-218 -98.5q-70 0 -90 117l-29 172q-25 68 -72 135q-57 86 -107 106.5t-147 45.5q-2 -4 -92 -252q0 -33 -8 -51q-31 -88 -162 -193q-135 -111 -229 -110 q-23 0 -46.5 15t-23.5 40zM981 961q47 18 106 20q80 6 103 10q57 10 143 41l144 55q104 39 104 80q0 63 -219 111q-82 16 -176 16q6 0 -96 -6l-11 -28q-14 -53 -45 -152z" />
<glyph unicode="s" horiz-adv-x="1462" d="M350 66q0 27 12 57q33 94 191 235q172 154 285 154q61 0 61 -51q0 -18 -10 -43q-14 -43 -55 -88h47q70 0 192 28q106 25 160 48q10 27 10 57q0 78 -65.5 139.5t-133.5 61.5l-126 -37q-268 -74 -361 -74q-115 0 -115 94q0 41 25 107q92 256 436 544q322 270 604 369 q59 20 195 21q217 0 217 -125q0 -37 -16 -84l-25 -60q-43 -86 -166 -172t-201 -86q-66 0 -65 43q0 16 9 43t9 39q0 23 -59 23h-17h-14q-70 0 -92 -6q-86 -23 -227.5 -156t-157.5 -213q31 6 223 53q238 55 248 55q123 0 219 -77q109 -84 115 -220v-12q0 -47 -27 -119 q-49 -135 -209 -292q-61 -61 -159 -134q-104 -74 -172 -102q-123 -51 -295 -92q-180 -43 -289 -43q-201 0 -201 115z" />
<glyph unicode="t" horiz-adv-x="1748" d="M532 1255q0 84 148 201q137 109 229 123q127 20 381 53q166 14 486 33q270 16 299 16q98 0 133 -6q82 -16 82 -67q0 -90 -158 -209q-150 -117 -244 -117q-14 0 -36.5 7t-32.5 7q-18 2 -70 2q-35 0 -186 -6l-62 -6l-119 -383l-79 -219l-48 -145l-47 -146l-60 -161 q-34 -87 -172 -191t-222 -104q-66 0 -66 47q0 49 22.5 85.5t51.5 116.5q2 6 28.5 95.5t30.5 95.5l78 217q2 6 59.5 191.5t59.5 191.5l104 285h-30q-4 0 -244 -35t-248 -35q-68 0 -68 63z" />
<glyph unicode="u" horiz-adv-x="1648" d="M342 131q0 129 96 389l172 426l95 240q63 156 112 233q45 72 156.5 149t183.5 77q61 0 62 -50q0 -18 -13 -53q-2 -6 -172 -418.5t-172 -418.5q-82 -223 -82 -308q0 -49 21 -71q14 -14 100 -15q176 0 251 72t153 111q207 635 243 737l70 186q33 76 149 164q125 94 209 94 q66 0 66 -51q0 -10 -4 -20l-90 -250l-50 -156q-53 -150 -133 -397l-143 -504q-35 -96 -147 -195q-125 -109 -228 -108q-63 0 -63 47q0 -4 28 117q-152 -96 -328.5 -157.5t-301.5 -61.5q-141 0 -195 51q-45 45 -45 141z" />
<glyph unicode="v" horiz-adv-x="1376" d="M639 717q-1 89 -1 160t1 124q6 158 23 304q-4 18 0 61q33 92 166 187.5t216 95.5q61 0 62 -43q0 -16 -10 -60q-10 -51 -17 -155q-5 -96 -4 -290q0 -145 2 -345l236 370l135 195q119 180 240 262q98 66 165 66q63 0 64 -47q0 -18 -10.5 -48t-85.5 -137 q-246 -352 -357 -543l-186 -321q-109 -188 -170 -322q-41 -88 -165 -183t-208 -95q-39 0 -53 18q-8 12 -14 58q-27 229 -27 391q1 28 1 70q0 85 -3 227z" />
<glyph unicode="w" horiz-adv-x="1892" d="M520 10q0 8 2 26.5t2 29.5q-1 44 -1 84q0 162 20 262l69 471q43 283 109 463l22 57q43 84 166 168t195 84q66 0 65 -58q0 -33 -22 -88q-49 -133 -92 -381q-10 -59 -54 -380q76 115 181 292q164 283 172 295q43 74 157.5 151t188.5 77q61 0 61 -50q0 -12 -2 -40 q-8 -63 -33 -191q-63 -334 -81 -530q106 162 161 262l224 452q33 59 122 144q100 90 179 116q57 20 82 21q66 0 65 -49q0 -18 -10 -49q-29 -45 -76 -127q-55 -125 -180 -373q-14 -27 -207 -328l-369 -555q-57 -88 -176 -172q-127 -90 -207 -90q-57 0 -75 45q0 2 -17 94 q-4 14 3 46t7 40q4 49 41 367l-208 -311q-141 -195 -263 -262q-104 -59 -159 -60q-62 0 -62 47z" />
<glyph unicode="x" horiz-adv-x="1722" d="M168 8q0 18 6 37q16 45 59 100l78 97q119 154 185 219q49 49 415 375l41 32q6 14 -88 222l-106 223q-6 15 -6 31q0 19 8 38q31 90 173 195.5t241 105.5q37 0 76.5 -14t47 -26.5t7.5 -26.5q0 -27 -29 -76q63 -141 119 -283q152 123 315 228q219 139 303 139q70 0 70 -51 q0 -18 -10 -45q-51 -139 -353 -299q-61 -33 -161 -113q-92 -72 -97 -84q2 4 39 -92l70 -172q31 -84 104 -317q8 -27 29 -56l39 -55q10 -18 -2 -53q-35 -96 -177.5 -199.5t-234.5 -103.5q-45 0 -57 14q-39 51 -88 213q-23 74 -160 426q-166 -143 -223 -203q-86 -86 -195 -233 q-66 -88 -172 -166q-119 -84 -203 -84q-63 0 -63 57z" />
<glyph unicode="y" horiz-adv-x="1415" d="M545 834q0 121 61 290q2 6 121 277q39 86 166 182t211 96q70 0 70 -61q0 -16 -7 -33q-23 -31 -55 -86q-35 -66 -78 -184q-49 -131 -49 -221q0 -186 207 -187q137 0 186 51q59 59 125 240q14 43 15 143q0 8 12 41q31 86 153.5 186.5t214.5 100.5q16 0 39 -10t23 -25 q3 -30 3 -59q0 -98 -36 -197q-190 -522 -704 -760l-90 -299q-4 -31 -19 -90q-31 -86 -163 -187t-216 -101q-66 0 -65 53q0 6 37 137q20 59 55 174q16 78 69 236q-286 33 -286 293z" />
<glyph unicode="z" horiz-adv-x="1849" d="M170 20q0 18 8 41q20 59 107 156q74 86 143 143l82 70q311 291 1024 868q-92 -2 -178 -10q-72 -6 -240 -24q-147 -14 -151 -15q-109 0 -109 54q0 16 8 38q31 88 168 192.5t228 104.5q10 0 26.5 -5t24.5 -5h-1q0 1 76 8l275 29q137 14 299 14t278 -22q29 -6 39 -35 q4 -13 4 -25q0 -15 -6 -30q-20 -53 -102 -129q-70 -68 -131 -103q-39 -23 -105 -43q-80 -25 -106 -37q-70 -33 -535 -424q-403 -342 -528 -456q145 18 436 45q43 2 209 2q203 0 227 -2l140 -25q14 -4 43 -35q53 -24 53 -62q0 -13 -10 -42q-33 -90 -165 -185.5t-214 -95.5 q-63 0 -94 43q-18 25 -308 25q-207 0 -204 2q-59 -6 -381 -45q-39 -4 -148 -23l-69 -12q-31 -4 -39 -4q-74 0 -74 59z" />
<glyph unicode="{" horiz-adv-x="1286" d="M494 70q0 94 149 217q143 119 240 119q43 0 163.5 49t161.5 49q61 0 62 -53q0 -16 -6 -39q-49 -131 -250 -244q-152 -84 -281 -115q-14 -2 -76 -26q-43 -16 -88 -17q-75 1 -75 60zM549 567q0 18 8 43q35 92 165 193.5t220 101.5q6 0 16.5 -2t14.5 -2t146.5 26.5 t150.5 26.5q70 0 69 -59q0 -66 -106 -168q-88 -84 -166 -125q-59 -29 -139 -45l-135 -20q-139 -27 -162 -27q-82 0 -82 57zM905 1290q-6 29 2 49q35 96 167 195.5t231 99.5q31 0 131 -94q72 -68 114 -117q29 -31 9 -84q-33 -88 -163 -190t-220 -102q-25 0 -123 86l-123 110 q-21 14 -25 47z" />
<glyph unicode="|" horiz-adv-x="985" d="M393 18q0 47 31 136q2 6 66.5 156.5t66.5 158.5l162 442q2 4 22.5 49.5t22.5 51.5l72 192q41 117 106 228q45 76 152.5 154.5t173.5 78.5q55 0 55 -45q0 -23 -14 -64q-2 -6 -115 -277t-115 -278l-141 -389q-47 -98 -125 -295q-6 -31 -29 -94q-41 -82 -155.5 -173 t-188.5 -91q-47 0 -47 59z" />
<glyph unicode="}" horiz-adv-x="1198" d="M362 254q31 84 156 181t209 97q31 0 45 -17l29 -36q31 -37 94 -78q78 -51 99.5 -69.5t2.5 -69.5q-29 -80 -155.5 -181t-210.5 -101q-53 0 -158 83q-86 70 -104 97q-27 39 -7 94zM543 694q33 88 157.5 186.5t208.5 98.5q-6 0 54 -2q82 -2 247 -4q63 0 64 -58 q0 -80 -131 -190q-123 -104 -209 -121q-37 -6 -191 -6q-223 0 -108 -2q-78 0 -90 22q-18 31 -2 76zM772 1094q0 113 305 329q295 209 416 209q63 0 63 -51q0 -14 -6 -33q-23 -59 -88 -123q-96 -92 -202 -143q-53 -25 -125 -78l-119 -90q-111 -76 -180 -76q-64 1 -64 56z" />
<glyph unicode="~" horiz-adv-x="1697" d="M778 1262q0 14 6 32q25 70 175.5 180.5t244.5 127.5q49 18 123 18q92 0 143 -23q16 -8 93 -65q61 -47 98 -47q59 0 146 58.5t151 58.5q57 0 57 -43q0 -49 -94 -138q-102 -94 -246.5 -157.5t-265.5 -63.5q-90 0 -178 71.5t-164 67.5q-127 -119 -233 -118q-56 0 -56 41z " />
<glyph unicode="&#xa3;" horiz-adv-x="2095" d="M360 106q0 47 25 113q2 4 70 148q66 133 225 274q182 160 321 160q12 0 95 -21l84 228q74 205 325 422q276 238 506 237q72 0 148.5 -37t93.5 -90q2 -14 10 -41q27 -33 12 -76q-35 -94 -169 -188t-214 -94q-51 0 -65 37q-23 59 -27 65q-49 51 -110 51q-41 0 -70 -80 l-41 -112q106 27 260 26q102 0 103 -57q0 -86 -144 -197q-133 -104 -223 -116q-45 0 -133 -2q-14 -27 -39 -99q74 -51 162 -131l151 -135q8 -10 88 -20q51 -6 138 -27q39 -12 14 -80t-116 -147.5t-177 -112.5q-53 -18 -115 -18q-31 0 -106 14q-102 18 -158 72l-110 106 q-18 16 -58 47q-68 -70 -162 -129q-104 -66 -174 -78q-193 -33 -262 -32q-158 -1 -158 120zM809 379q-6 -20 35 -21q4 0 18.5 -2t24.5 -2q-35 16 -74 31z" />
<glyph unicode="&#xa5;" horiz-adv-x="2324" d="M508 850q0 94 160 209q143 104 247 123q2 14 9 39q20 35 55 102q25 51 82 152q47 72 163.5 147.5t184.5 75.5q72 0 64 -72q111 25 176 25q279 0 538 -135q113 -59 137 -222q51 4 130 4q100 0 116 -4q72 -10 72 -57q0 -78 -143 -193q-135 -113 -218 -120q-18 -2 -90 2 q-55 4 -88 -8q-4 -2 -78 -56q-88 -66 -127 -90q-147 -88 -327 -158q-205 -76 -324 -75h-180q-27 -68 -37 -109l-33 -131q-37 -98 -161 -203q-135 -113 -238 -112q-68 0 -68 51q0 25 23 86q14 39 31 125l202 569q-49 2 -157 -14q-37 -10 -49 -10q-72 0 -72 59zM1219 950 q150 -33 245 -32q119 0 187 14q92 20 209 82q-2 92 -117 153q-76 39 -238 80q-68 16 -100 17h-72z" />
<glyph unicode="&#xa9;" horiz-adv-x="2076" d="M268 532q0 186 62 355q39 102 180 310t321.5 324.5t354.5 116.5q57 0 71 -4q37 -8 74 -45q49 0 144 -14q387 -119 387 -660q0 -403 -254 -671q-260 -270 -662 -271q-154 0 -328 64q-350 128 -350 495zM489 670q0 -152 64 -248q78 -115 262 -176q143 -47 264 -47 q281 0 418 133q143 143 143 450q0 176 -55 314q-82 197 -260 254q-41 12 -156 12q-6 0 -36.5 -3t-36.5 -3q-14 0 -36 13t-22 32q0 4 2 10h-30q-4 0 -84 -20q-113 -29 -240 -197q-92 -121 -151 -252q-46 -100 -46 -272zM731 766q0 244 217 371q100 59 187 59q53 0 119.5 -39 t66.5 -92q0 -57 -60.5 -116.5t-113.5 -59.5q-20 0 -64.5 41t-83.5 41q-37 0 -45 -21q-2 -6 -2 -49q0 -86 23 -125q29 -53 108 -53q6 0 106.5 24.5t106.5 24.5q47 0 47 -41q0 -33 -34 -84q-39 -57 -88 -82q-16 -10 -111 -33q-152 -37 -160 -36q-219 0 -219 270z" />
<glyph unicode="&#xaa;" d="M238 27q0 23 12 57q20 59 59 119l381 555q201 287 397 536q274 344 457 344q63 0 64 -51q0 -18 -11 -53q-6 -25 -6 -59v-60q-37 -543 -39 -987q0 -90 -26 -166q-31 -84 -152 -184q-129 -106 -223 -107q-59 0 -59 58q0 10 4 24q16 49 20 113q2 22 2 50t-2 63q-2 86 -2 106 q-418 -209 -489 -264q-113 -86 -148 -107q-84 -49 -162 -49q-77 1 -77 62zM801 471l327 172l13 313z" />
<glyph unicode="&#xad;" horiz-adv-x="1476" d="M614 721q23 61 128.5 139t185.5 84h108q63 0 215 -8q162 -8 174.5 -16.5t16.5 -32.5q4 -20 0 -31q-18 -53 -110.5 -125t-162.5 -86q-45 -10 -73 -10q-4 0 -118 8t-120 8h-199q-29 0 -42 21.5t-3 48.5z" />
<glyph unicode="&#xae;" horiz-adv-x="2111" d="M272 664q0 117 29 219q18 72 76 211q98 236 309 389q43 31 176 88q154 68 303 67q82 0 127 -10q37 -14 109 -35q37 -2 112 -20q8 -16 35 -41q211 -98 248 -223q57 -205 57 -348q0 -41 -16 -127q-23 -117 -27 -144q-27 -190 -217 -379q-174 -176 -323 -207 q-41 -18 -129 -53q-123 -47 -228 -47q-104 0 -272 62q-193 70 -289 260q-80 152 -80 338zM498 805q0 -150 65 -281q84 -174 254 -233q156 -53 238 -53q88 0 288 86q219 98 207 172q-76 2 -223 8q-117 8 -323 65q-12 -49 -74 -108.5t-107 -59.5q-12 0 -20 5q-18 18 -21 26 q-14 55 -20 150q-2 59 -6 120q-4 43 -19 134q-12 84 -12 88q0 55 6 71q27 59 80 107.5t107 48.5q6 0 9 -2t9 -2q121 33 139 33q66 0 142 -31q106 -45 106 -121q0 -104 -141 -235q268 -59 309 -58h131q0 16 3 50t3 38q0 78 -20.5 182.5t-42.5 149.5q-35 72 -109 115l-129 61 q-23 12 -67 17q-53 6 -64 8q-6 10 -22 30q-39 20 -148 21q-78 0 -106 -8q-119 -31 -211 -86q-53 -31 -78 -78q-82 -147 -107.5 -231t-25.5 -199zM969 942q12 -90 10 -94q72 35 102 53q-69 33 -112 41z" />
<glyph unicode="&#xb2;" horiz-adv-x="1384" d="M256 45q0 18 8 43q27 70 191 231q82 86 301 297l354 320q111 94 225 207q10 25 -13.5 61.5t-45 44.5t-45.5 8q-53 -88 -171 -168.5t-192 -80.5q-72 0 -71 67q0 25 8 51q27 70 106 158q139 154 323.5 254t317.5 100q94 0 164 -61t70 -154q0 -45 -19 -90 q-47 -133 -307 -372l-284 -250l-338 -314q41 2 104 6q57 4 62 5q139 0 241 -23q14 -4 29 -18l24 -25q39 -25 39 -63q0 -90 -144 -208t-237 -118q-33 0 -54 27.5t-40 33.5q-51 16 -184 17q-68 0 -218.5 -17.5t-137.5 -17.5q-66 0 -66 49z" />
<glyph unicode="&#xb3;" horiz-adv-x="1531" d="M133 -207q0 63 92 156q74 72 148 114l153 74q96 43 291 139l275 148q152 88 249 199q31 35 68 88q4 12 4 22q0 33 -39 62q-10 10 -28 26q-78 63 -269 64q-39 0 -162 -13q-14 -2 -59 -12q-37 -8 -55 -8q-63 0 -64 66q0 14 4 26q55 152 377 307q-166 2 -231 -6l-25 -4 q-12 -2 -20 -2q-68 0 -68 57q0 86 139 199q131 104 224 119q84 14 88 14h518q6 0 62.5 5t62.5 5q102 0 102 -57q0 -16 -8 -35q-18 -49 -95 -127t-147 -112q-35 -14 -123 -66q268 -74 269 -242q0 -45 -21 -98q-33 -90 -162 -244q-104 -119 -208 -215q-158 -143 -324 -239 q-203 -119 -377 -211q-61 -33 -227 -109l-176 -88q-117 -55 -172 -55q-66 0 -66 53z" />
<glyph unicode="&#xb9;" horiz-adv-x="1050" d="M403 29q0 16 9.5 33.5t21.5 37.5l82 226q10 27 39 84l233 647q-37 -12 -53 -13q-61 0 -61 52q0 20 10 49q29 74 207 237q135 123 186 158q127 86 195 86q59 0 59 -51q0 -18 -26 -92q-31 -66 -64 -148l-295 -807q-2 -10 -14 -28.5t-17 -28.5l-77 -217q-12 -33 -80 -107 q-59 -63 -146 -118q-92 -57 -149 -58q-60 1 -60 58z" />
<glyph unicode="&#xba;" horiz-adv-x="1765" d="M344 195q0 100 47 225q143 399 512 776q391 399 739 453q6 0 95 18q59 12 94 12q137 0 221 -87t84 -232q0 -57 -14 -119q-20 -88 -47 -162q-100 -279 -344 -528q-266 -274 -650 -459q-285 -137 -481 -137q-256 0 -256 240zM797 459q0 -129 127 -129q102 0 276 82t256 170 q123 133 184 303q41 111 41 205q0 115 -65 172q-47 41 -107 41q-80 0 -192 -54q-33 -16 -72 -28q-94 -33 -250 -285q-123 -203 -168 -324q-30 -87 -30 -153z" />
<glyph unicode="&#xc0;" d="M1526 1974q-4 137 10 179q27 72 132.5 153.5t176.5 81.5q57 0 58 -59q0 10 -7 -70q-4 -49 48 -172q6 -16 -7 -49q-25 -74 -134 -155t-179 -81q-31 0 -45 23q-4 6 -23 49q-16 32 -30 100zM238 27q0 23 12 57q20 59 59 119l381 555q201 287 397 536q274 344 457 344 q63 0 64 -51q0 -18 -11 -53q-6 -25 -6 -59v-60q-37 -543 -39 -987q0 -90 -26 -166q-31 -84 -152 -184q-129 -106 -223 -107q-59 0 -59 58q0 10 4 24q16 49 20 113q2 22 2 50t-2 63q-2 86 -2 106q-418 -209 -489 -264q-113 -86 -148 -107q-84 -49 -162 -49q-77 1 -77 62z M801 471l327 172l13 313z" />
<glyph unicode="&#xc2;" d="M1200 1893q0 66 140 180l196 151l105 95q145 117 241 116q41 0 49 -16l50 -131q49 -109 98 -168q35 -39 18 -86q-27 -72 -136 -152t-183 -80q-35 0 -84 68q-35 47 -55 88l-37 88l-166 -127q-106 -74 -174 -74q-62 1 -62 48zM238 27q0 23 12 57q20 59 59 119l381 555 q201 287 397 536q274 344 457 344q63 0 64 -51q0 -18 -11 -53q-6 -25 -6 -59v-60q-37 -543 -39 -987q0 -90 -26 -166q-31 -84 -152 -184q-129 -106 -223 -107q-59 0 -59 58q0 10 4 24q16 49 20 113q2 22 2 50t-2 63q-2 86 -2 106q-418 -209 -489 -264q-113 -86 -148 -107 q-84 -49 -162 -49q-77 1 -77 62zM801 471l327 172l13 313z" />
<glyph unicode="&#xc3;" d="M1048 1864q0 14 6 32q25 70 175.5 180.5t244.5 127.5q49 18 123 18q92 0 143 -23q16 -8 93 -65q61 -47 98 -47q59 0 146 58.5t151 58.5q57 0 57 -43q0 -49 -94 -138q-102 -94 -246.5 -157.5t-265.5 -63.5q-90 0 -178 71.5t-164 67.5q-127 -119 -233 -118q-56 0 -56 41z M238 27q0 23 12 57q20 59 59 119l381 555q201 287 397 536q274 344 457 344q63 0 64 -51q0 -18 -11 -53q-6 -25 -6 -59v-60q-37 -543 -39 -987q0 -90 -26 -166q-31 -84 -152 -184q-129 -106 -223 -107q-59 0 -59 58q0 10 4 24q16 49 20 113q2 22 2 50t-2 63q-2 86 -2 106 q-418 -209 -489 -264q-113 -86 -148 -107q-84 -49 -162 -49q-77 1 -77 62zM801 471l327 172l13 313z" />
<glyph unicode="&#xc8;" horiz-adv-x="1536" d="M1825 1974q-4 137 10 179q27 72 132.5 153.5t176.5 81.5q57 0 58 -59q0 10 -7 -70q-4 -49 48 -172q6 -16 -7 -49q-25 -74 -134 -155t-179 -81q-31 0 -45 23q-4 6 -23 49q-16 32 -30 100zM393 57q-6 31 -6 71q0 69 19 163q4 47 20 147q37 145 80 262l246 680 q23 59 130 147.5t169 104.5q53 14 69 15q49 0 60 -29v-6q6 2 22 6l58 8q86 14 122 19q328 27 471 26q102 0 121 -6q49 -14 49 -57q0 -16 -8 -35q-33 -94 -163 -188.5t-214 -94.5q-6 0 -53 3t-51 3q-135 0 -463 -28l-63 -174q23 -2 34 -2q23 4 48 10q311 72 534 72 q133 0 133 -58q0 -68 -115 -170q-98 -88 -178 -123q-51 -23 -107.5 -24.5t-111.5 -1.5q-154 -16 -174 -19q-96 -14 -174 -33q-29 -90 -55 -278q-6 -40 -7 -68q0 -17 3 -30q4 -14 24 -15q51 0 234 56q106 35 151 59q8 4 125 88q31 20 84 40.5t80 20.5q57 0 57 -61 q0 -80 -139 -203q-115 -104 -307 -198q-94 -47 -295 -109q-223 -70 -315 -70q-128 0 -144 80z" />
<glyph unicode="&#xca;" horiz-adv-x="1536" d="M1499 1893q0 66 140 180l196 151l105 95q145 117 241 116q41 0 49 -16l50 -131q49 -109 98 -168q35 -39 18 -86q-27 -72 -136 -152t-183 -80q-35 0 -84 68q-35 47 -55 88l-37 88l-166 -127q-106 -74 -174 -74q-62 1 -62 48zM393 57q-6 31 -6 71q0 69 19 163q4 47 20 147 q37 145 80 262l246 680q23 59 130 147.5t169 104.5q53 14 69 15q49 0 60 -29v-6q6 2 22 6l58 8q86 14 122 19q328 27 471 26q102 0 121 -6q49 -14 49 -57q0 -16 -8 -35q-33 -94 -163 -188.5t-214 -94.5q-6 0 -53 3t-51 3q-135 0 -463 -28l-63 -174q23 -2 34 -2q23 4 48 10 q311 72 534 72q133 0 133 -58q0 -68 -115 -170q-98 -88 -178 -123q-51 -23 -107.5 -24.5t-111.5 -1.5q-154 -16 -174 -19q-96 -14 -174 -33q-29 -90 -55 -278q-6 -40 -7 -68q0 -17 3 -30q4 -14 24 -15q51 0 234 56q106 35 151 59q8 4 125 88q31 20 84 40.5t80 20.5 q57 0 57 -61q0 -80 -139 -203q-115 -104 -307 -198q-94 -47 -295 -109q-223 -70 -315 -70q-128 0 -144 80z" />
<glyph unicode="&#xcc;" horiz-adv-x="1388" d="M1567 1974q-4 137 10 179q27 72 132.5 153.5t176.5 81.5q57 0 58 -59q0 10 -7 -70q-4 -49 48 -172q6 -16 -7 -49q-25 -74 -134 -155t-179 -81q-31 0 -45 23q-4 6 -23 49q-16 32 -30 100zM256 25q0 16 6 32q35 94 170 191q129 90 207 90q2 0 57 -6q2 16 4 22l101 275 l149 483q18 57 60 174q-39 -2 -103.5 -8t-68.5 -6q-68 0 -68 57q0 82 137 195q127 102 217 116q131 25 367 25q14 0 68 2q20 1 36.5 1t28.5 -1q37 -2 63.5 -11t26.5 -38q0 -88 -129 -197q-117 -100 -209 -121l-112 -370l-123 -342q-4 -14 -11 -47q-16 -59 -57 -191l144 8 q59 0 79 -4q41 -10 41 -47q0 -18 -8 -41q-27 -72 -121 -152.5t-186 -113.5q-36 -13 -78 -13q-6 0 -12 1h-84q-326 -33 -430 -33q-162 0 -162 70z" />
<glyph unicode="&#xce;" horiz-adv-x="1388" d="M1241 1893q0 66 140 180l196 151l105 95q145 117 241 116q41 0 49 -16l50 -131q49 -109 98 -168q35 -39 18 -86q-27 -72 -136 -152t-183 -80q-35 0 -84 68q-35 47 -55 88l-37 88l-166 -127q-106 -74 -174 -74q-62 1 -62 48zM256 25q0 16 6 32q35 94 170 191 q129 90 207 90q2 0 57 -6q2 16 4 22l101 275l149 483q18 57 60 174q-39 -2 -103.5 -8t-68.5 -6q-68 0 -68 57q0 82 137 195q127 102 217 116q131 25 367 25q14 0 68 2q20 1 36.5 1t28.5 -1q37 -2 63.5 -11t26.5 -38q0 -88 -129 -197q-117 -100 -209 -121l-112 -370 l-123 -342q-4 -14 -11 -47q-16 -59 -57 -191l144 8q59 0 79 -4q41 -10 41 -47q0 -18 -8 -41q-27 -72 -121 -152.5t-186 -113.5q-36 -13 -78 -13q-6 0 -12 1h-84q-326 -33 -430 -33q-162 0 -162 70z" />
<glyph unicode="&#xd1;" horiz-adv-x="1699" d="M1081 1883q0 14 6 32q25 70 175.5 180.5t244.5 127.5q49 18 123 18q92 0 143 -23q16 -8 93 -65q61 -47 98 -47q59 0 146 58.5t151 58.5q57 0 57 -43q0 -49 -94 -138q-102 -94 -246.5 -157.5t-265.5 -63.5q-90 0 -178 71.5t-164 67.5q-127 -119 -233 -118q-56 0 -56 41z M295 -8q0 25 22 110q76 281 205 637q2 4 84 209t84 209l98 273q2 4 33 47q55 76 160 145q113 76 186 76q61 0 62 -49q0 -29 -21.5 -67t-21.5 -69q8 -319 182 -825l29 74l241 661q2 8 33 54q57 80 165 150.5t179 70.5q57 0 58 -39q0 -27 -27 -96q-260 -651 -453 -1241 q4 -45 0 -60q-35 -92 -157 -199q-135 -115 -238 -114q-47 0 -61 33q-8 -2 -19 -2q-57 0 -71.5 51t-26.5 100q-49 117 -168 492q-47 -137 -92 -291q-4 -43 -23 -127q-35 -90 -158.5 -183.5t-207.5 -93.5q-76 1 -76 64z" />
<glyph unicode="&#xd2;" horiz-adv-x="1765" d="M1798 1974q-4 137 10 179q27 72 132.5 153.5t176.5 81.5q57 0 58 -59q0 10 -7 -70q-4 -49 48 -172q6 -16 -7 -49q-25 -74 -134 -155t-179 -81q-31 0 -45 23q-4 6 -23 49q-16 32 -30 100zM344 195q0 100 47 225q143 399 512 776q391 399 739 453q6 0 95 18q59 12 94 12 q137 0 221 -87t84 -232q0 -57 -14 -119q-20 -88 -47 -162q-100 -279 -344 -528q-266 -274 -650 -459q-285 -137 -481 -137q-256 0 -256 240zM797 459q0 -129 127 -129q102 0 276 82t256 170q123 133 184 303q41 111 41 205q0 115 -65 172q-47 41 -107 41q-80 0 -192 -54 q-33 -16 -72 -28q-94 -33 -250 -285q-123 -203 -168 -324q-30 -87 -30 -153z" />
<glyph unicode="&#xd4;" horiz-adv-x="1765" d="M1474 1893q0 66 140 180l196 151l105 95q145 117 241 116q41 0 49 -16l50 -131q49 -109 98 -168q35 -39 18 -86q-27 -72 -136 -152t-183 -80q-35 0 -84 68q-35 47 -55 88l-37 88l-166 -127q-106 -74 -174 -74q-62 1 -62 48zM344 195q0 100 47 225q143 399 512 776 q391 399 739 453q6 0 95 18q59 12 94 12q137 0 221 -87t84 -232q0 -57 -14 -119q-20 -88 -47 -162q-100 -279 -344 -528q-266 -274 -650 -459q-285 -137 -481 -137q-256 0 -256 240zM797 459q0 -129 127 -129q102 0 276 82t256 170q123 133 184 303q41 111 41 205 q0 115 -65 172q-47 41 -107 41q-80 0 -192 -54q-33 -16 -72 -28q-94 -33 -250 -285q-123 -203 -168 -324q-30 -87 -30 -153z" />
<glyph unicode="&#xd5;" horiz-adv-x="1765" d="M1321 1864q0 14 6 32q25 70 175.5 180.5t244.5 127.5q49 18 123 18q92 0 143 -23q16 -8 93 -65q61 -47 98 -47q59 0 146 58.5t151 58.5q57 0 57 -43q0 -49 -94 -138q-102 -94 -246.5 -157.5t-265.5 -63.5q-90 0 -178 71.5t-164 67.5q-127 -119 -233 -118q-56 0 -56 41z M344 195q0 100 47 225q143 399 512 776q391 399 739 453q6 0 95 18q59 12 94 12q137 0 221 -87t84 -232q0 -57 -14 -119q-20 -88 -47 -162q-100 -279 -344 -528q-266 -274 -650 -459q-285 -137 -481 -137q-256 0 -256 240zM797 459q0 -129 127 -129q102 0 276 82t256 170 q123 133 184 303q41 111 41 205q0 115 -65 172q-47 41 -107 41q-80 0 -192 -54q-33 -16 -72 -28q-94 -33 -250 -285q-123 -203 -168 -324q-30 -87 -30 -153z" />
<glyph unicode="&#xd9;" horiz-adv-x="1648" d="M1946 1974q-4 137 10 179q27 72 132.5 153.5t176.5 81.5q57 0 58 -59q0 10 -7 -70q-4 -49 48 -172q6 -16 -7 -49q-25 -74 -134 -155t-179 -81q-31 0 -45 23q-4 6 -23 49q-16 32 -30 100zM342 131q0 129 96 389l172 426l95 240q63 156 112 233q45 72 156.5 149t183.5 77 q61 0 62 -50q0 -18 -13 -53q-2 -6 -172 -417.5t-172 -419.5q-82 -223 -82 -308q0 -49 21 -71q14 -14 100 -15q176 0 251 72t153 111q207 635 243 737l70 186q33 76 149 164q125 94 209 94q66 0 66 -51q0 -10 -4 -20l-90 -250l-50 -156q-53 -150 -133 -397l-143 -504 q-35 -96 -147 -195q-125 -109 -228 -108q-63 0 -63 47q0 -4 28 117q-152 -96 -328.5 -157.5t-301.5 -61.5q-141 0 -195 51q-45 45 -45 141z" />
<glyph unicode="&#xdb;" horiz-adv-x="1648" d="M1620 1893q0 66 140 180l196 151l105 95q145 117 241 116q41 0 49 -16l50 -131q49 -109 98 -168q35 -39 18 -86q-27 -72 -136 -152t-183 -80q-35 0 -84 68q-35 47 -55 88l-37 88l-166 -127q-106 -74 -174 -74q-62 1 -62 48zM342 131q0 129 96 389l172 426l95 240 q63 156 112 233q45 72 156.5 149t183.5 77q61 0 62 -50q0 -18 -13 -53q-2 -6 -172 -417.5t-172 -419.5q-82 -223 -82 -308q0 -49 21 -71q14 -14 100 -15q176 0 251 72t153 111q207 635 243 737l70 186q33 76 149 164q125 94 209 94q66 0 66 -51q0 -10 -4 -20l-90 -250 l-50 -156q-53 -150 -133 -397l-143 -504q-35 -96 -147 -195q-125 -109 -228 -108q-63 0 -63 47q0 -4 28 117q-152 -96 -328.5 -157.5t-301.5 -61.5q-141 0 -195 51q-45 45 -45 141z" />
<glyph unicode="&#xe0;" d="M1526 1974q-4 137 10 179q27 72 132.5 153.5t176.5 81.5q57 0 58 -59q0 10 -7 -70q-4 -49 48 -172q6 -16 -7 -49q-25 -74 -134 -155t-179 -81q-31 0 -45 23q-4 6 -23 49q-16 32 -30 100zM238 27q0 23 12 57q20 59 59 119l381 555q201 287 397 536q274 344 457 344 q63 0 64 -51q0 -18 -11 -53q-6 -25 -6 -59v-60q-37 -543 -39 -987q0 -90 -26 -166q-31 -84 -152 -184q-129 -106 -223 -107q-59 0 -59 58q0 10 4 24q16 49 20 113q2 22 2 50t-2 63q-2 86 -2 106q-418 -209 -489 -264q-113 -86 -148 -107q-84 -49 -162 -49q-77 1 -77 62z M801 471l327 172l13 313z" />
<glyph unicode="&#xe2;" d="M1200 1893q0 66 140 180l196 151l105 95q145 117 241 116q41 0 49 -16l50 -131q49 -109 98 -168q35 -39 18 -86q-27 -72 -136 -152t-183 -80q-35 0 -84 68q-35 47 -55 88l-37 88l-166 -127q-106 -74 -174 -74q-62 1 -62 48zM238 27q0 23 12 57q20 59 59 119l381 555 q201 287 397 536q274 344 457 344q63 0 64 -51q0 -18 -11 -53q-6 -25 -6 -59v-60q-37 -543 -39 -987q0 -90 -26 -166q-31 -84 -152 -184q-129 -106 -223 -107q-59 0 -59 58q0 10 4 24q16 49 20 113q2 22 2 50t-2 63q-2 86 -2 106q-418 -209 -489 -264q-113 -86 -148 -107 q-84 -49 -162 -49q-77 1 -77 62zM801 471l327 172l13 313z" />
<glyph unicode="&#xe3;" d="M1048 1864q0 14 6 32q25 70 175.5 180.5t244.5 127.5q49 18 123 18q92 0 143 -23q16 -8 93 -65q61 -47 98 -47q59 0 146 58.5t151 58.5q57 0 57 -43q0 -49 -94 -138q-102 -94 -246.5 -157.5t-265.5 -63.5q-90 0 -178 71.5t-164 67.5q-127 -119 -233 -118q-56 0 -56 41z M238 27q0 23 12 57q20 59 59 119l381 555q201 287 397 536q274 344 457 344q63 0 64 -51q0 -18 -11 -53q-6 -25 -6 -59v-60q-37 -543 -39 -987q0 -90 -26 -166q-31 -84 -152 -184q-129 -106 -223 -107q-59 0 -59 58q0 10 4 24q16 49 20 113q2 22 2 50t-2 63q-2 86 -2 106 q-418 -209 -489 -264q-113 -86 -148 -107q-84 -49 -162 -49q-77 1 -77 62zM801 471l327 172l13 313z" />
<glyph unicode="&#xe8;" horiz-adv-x="1536" d="M1825 1974q-4 137 10 179q27 72 132.5 153.5t176.5 81.5q57 0 58 -59q0 10 -7 -70q-4 -49 48 -172q6 -16 -7 -49q-25 -74 -134 -155t-179 -81q-31 0 -45 23q-4 6 -23 49q-16 32 -30 100zM393 57q-6 31 -6 71q0 69 19 163q4 47 20 147q37 145 80 262l246 680 q23 59 130 147.5t169 104.5q53 14 69 15q49 0 60 -29v-6q6 2 22 6l58 8q86 14 122 19q328 27 471 26q102 0 121 -6q49 -14 49 -57q0 -16 -8 -35q-33 -94 -163 -188.5t-214 -94.5q-6 0 -53 3t-51 3q-135 0 -463 -28l-63 -174q23 -2 34 -2q23 4 48 10q311 72 534 72 q133 0 133 -58q0 -68 -115 -170q-98 -88 -178 -123q-51 -23 -107.5 -24.5t-111.5 -1.5q-154 -16 -174 -19q-96 -14 -174 -33q-29 -90 -55 -278q-6 -40 -7 -68q0 -17 3 -30q4 -14 24 -15q51 0 234 56q106 35 151 59q8 4 125 88q31 20 84 40.5t80 20.5q57 0 57 -61 q0 -80 -139 -203q-115 -104 -307 -198q-94 -47 -295 -109q-223 -70 -315 -70q-128 0 -144 80z" />
<glyph unicode="&#xea;" horiz-adv-x="1536" d="M1499 1893q0 66 140 180l196 151l105 95q145 117 241 116q41 0 49 -16l50 -131q49 -109 98 -168q35 -39 18 -86q-27 -72 -136 -152t-183 -80q-35 0 -84 68q-35 47 -55 88l-37 88l-166 -127q-106 -74 -174 -74q-62 1 -62 48zM393 57q-6 31 -6 71q0 69 19 163q4 47 20 147 q37 145 80 262l246 680q23 59 130 147.5t169 104.5q53 14 69 15q49 0 60 -29v-6q6 2 22 6l58 8q86 14 122 19q328 27 471 26q102 0 121 -6q49 -14 49 -57q0 -16 -8 -35q-33 -94 -163 -188.5t-214 -94.5q-6 0 -53 3t-51 3q-135 0 -463 -28l-63 -174q23 -2 34 -2q23 4 48 10 q311 72 534 72q133 0 133 -58q0 -68 -115 -170q-98 -88 -178 -123q-51 -23 -107.5 -24.5t-111.5 -1.5q-154 -16 -174 -19q-96 -14 -174 -33q-29 -90 -55 -278q-6 -40 -7 -68q0 -17 3 -30q4 -14 24 -15q51 0 234 56q106 35 151 59q8 4 125 88q31 20 84 40.5t80 20.5 q57 0 57 -61q0 -80 -139 -203q-115 -104 -307 -198q-94 -47 -295 -109q-223 -70 -315 -70q-128 0 -144 80z" />
<glyph unicode="&#xec;" horiz-adv-x="1024" d="M1172 1974q-4 137 10 179q27 72 132.5 153.5t176.5 81.5q57 0 58 -59q0 10 -7 -70q-4 -49 48 -172q6 -16 -7 -49q-25 -74 -134 -155t-179 -81q-31 0 -45 23q-4 6 -23 49q-16 32 -30 100zM408 12q0 10 4 23l49 158l153 505l93 252l94 318l-2 2q-22 11 -22 40q0 19 9 46 q35 94 187 207q145 109 227 108q58 0 58 -46q0 -37 -19 -85q-29 -74 -33 -90q-6 -25 -21.5 -76t-164.5 -502l-135 -434l-41 -164q-31 -88 -156 -196q-131 -115 -219 -115q-61 0 -61 49z" />
<glyph unicode="&#xee;" horiz-adv-x="1024" d="M846 1893q0 66 140 180l196 151l105 95q145 117 241 116q41 0 49 -16l50 -131q49 -109 98 -168q35 -39 18 -86q-27 -72 -136 -152t-183 -80q-35 0 -84 68q-35 47 -55 88l-37 88l-166 -127q-106 -74 -174 -74q-62 1 -62 48zM408 12q0 10 4 23l49 158l153 505l93 252 l94 318l-2 2q-22 11 -22 40q0 19 9 46q35 94 187 207q145 109 227 108q58 0 58 -46q0 -37 -19 -85q-29 -74 -33 -90q-6 -25 -21.5 -76t-164.5 -502l-135 -434l-41 -164q-31 -88 -156 -196q-131 -115 -219 -115q-61 0 -61 49z" />
<glyph unicode="&#xf1;" horiz-adv-x="1699" d="M948 1883q0 14 6 32q25 70 175.5 180.5t244.5 127.5q49 18 123 18q92 0 143 -23q16 -8 93 -65q61 -47 98 -47q59 0 146 58.5t151 58.5q57 0 57 -43q0 -49 -94 -138q-102 -94 -246.5 -157.5t-265.5 -63.5q-90 0 -178 71.5t-164 67.5q-127 -119 -233 -118q-56 0 -56 41z M295 -8q0 25 22 110q76 281 205 637q2 4 84 209t84 209l98 273q2 4 33 47q55 76 160 145q113 76 186 76q61 0 62 -49q0 -29 -21.5 -67t-21.5 -69q8 -319 182 -825l29 74l241 661q2 8 33 54q57 80 165 150.5t179 70.5q57 0 58 -39q0 -27 -27 -96q-260 -651 -453 -1241 q4 -45 0 -60q-35 -92 -157 -199q-135 -115 -238 -114q-47 0 -61 33q-8 -2 -19 -2q-57 0 -71.5 51t-26.5 100q-49 117 -168 492q-47 -137 -92 -291q-4 -43 -23 -127q-35 -90 -158.5 -183.5t-207.5 -93.5q-76 1 -76 64z" />
<glyph unicode="&#xf2;" horiz-adv-x="1765" d="M1798 1974q-4 137 10 179q27 72 132.5 153.5t176.5 81.5q57 0 58 -59q0 10 -7 -70q-4 -49 48 -172q6 -16 -7 -49q-25 -74 -134 -155t-179 -81q-31 0 -45 23q-4 6 -23 49q-16 32 -30 100zM344 195q0 100 47 225q143 399 512 776q391 399 739 453q6 0 95 18q59 12 94 12 q137 0 221 -87t84 -232q0 -57 -14 -119q-20 -88 -47 -162q-100 -279 -344 -528q-266 -274 -650 -459q-285 -137 -481 -137q-256 0 -256 240zM797 459q0 -129 127 -129q102 0 276 82t256 170q123 133 184 303q41 111 41 205q0 115 -65 172q-47 41 -107 41q-80 0 -192 -54 q-33 -16 -72 -28q-94 -33 -250 -285q-123 -203 -168 -324q-30 -87 -30 -153z" />
<glyph unicode="&#xf4;" horiz-adv-x="1765" d="M1474 1893q0 66 140 180l196 151l105 95q145 117 241 116q41 0 49 -16l50 -131q49 -109 98 -168q35 -39 18 -86q-27 -72 -136 -152t-183 -80q-35 0 -84 68q-35 47 -55 88l-37 88l-166 -127q-106 -74 -174 -74q-62 1 -62 48zM344 195q0 100 47 225q143 399 512 776 q391 399 739 453q6 0 95 18q59 12 94 12q137 0 221 -87t84 -232q0 -57 -14 -119q-20 -88 -47 -162q-100 -279 -344 -528q-266 -274 -650 -459q-285 -137 -481 -137q-256 0 -256 240zM797 459q0 -129 127 -129q102 0 276 82t256 170q123 133 184 303q41 111 41 205 q0 115 -65 172q-47 41 -107 41q-80 0 -192 -54q-33 -16 -72 -28q-94 -33 -250 -285q-123 -203 -168 -324q-30 -87 -30 -153z" />
<glyph unicode="&#xf5;" horiz-adv-x="1765" d="M1321 1864q0 14 6 32q25 70 175.5 180.5t244.5 127.5q49 18 123 18q92 0 143 -23q16 -8 93 -65q61 -47 98 -47q59 0 146 58.5t151 58.5q57 0 57 -43q0 -49 -94 -138q-102 -94 -246.5 -157.5t-265.5 -63.5q-90 0 -178 71.5t-164 67.5q-127 -119 -233 -118q-56 0 -56 41z M344 195q0 100 47 225q143 399 512 776q391 399 739 453q6 0 95 18q59 12 94 12q137 0 221 -87t84 -232q0 -57 -14 -119q-20 -88 -47 -162q-100 -279 -344 -528q-266 -274 -650 -459q-285 -137 -481 -137q-256 0 -256 240zM797 459q0 -129 127 -129q102 0 276 82t256 170 q123 133 184 303q41 111 41 205q0 115 -65 172q-47 41 -107 41q-80 0 -192 -54q-33 -16 -72 -28q-94 -33 -250 -285q-123 -203 -168 -324q-30 -87 -30 -153z" />
<glyph unicode="&#xf9;" horiz-adv-x="1648" d="M1946 1974q-4 137 10 179q27 72 132.5 153.5t176.5 81.5q57 0 58 -59q0 10 -7 -70q-4 -49 48 -172q6 -16 -7 -49q-25 -74 -134 -155t-179 -81q-31 0 -45 23q-4 6 -23 49q-16 32 -30 100zM342 131q0 129 96 389l172 426l95 240q63 156 112 233q45 72 156.5 149t183.5 77 q61 0 62 -50q0 -18 -13 -53q-2 -6 -172 -418.5t-172 -418.5q-82 -223 -82 -308q0 -49 21 -71q14 -14 100 -15q176 0 251 72t153 111q207 635 243 737l70 186q33 76 149 164q125 94 209 94q66 0 66 -51q0 -10 -4 -20l-90 -250l-50 -156q-53 -150 -133 -397l-143 -504 q-35 -96 -147 -195q-125 -109 -228 -108q-63 0 -63 47q0 -4 28 117q-152 -96 -328.5 -157.5t-301.5 -61.5q-141 0 -195 51q-45 45 -45 141z" />
<glyph unicode="&#xfb;" horiz-adv-x="1648" d="M1620 1893q0 66 140 180l196 151l105 95q145 117 241 116q41 0 49 -16l50 -131q49 -109 98 -168q35 -39 18 -86q-27 -72 -136 -152t-183 -80q-35 0 -84 68q-35 47 -55 88l-37 88l-166 -127q-106 -74 -174 -74q-62 1 -62 48zM342 131q0 129 96 389l172 426l95 240 q63 156 112 233q45 72 156.5 149t183.5 77q61 0 62 -50q0 -18 -13 -53q-2 -6 -172 -418.5t-172 -418.5q-82 -223 -82 -308q0 -49 21 -71q14 -14 100 -15q176 0 251 72t153 111q207 635 243 737l70 186q33 76 149 164q125 94 209 94q66 0 66 -51q0 -10 -4 -20l-90 -250 l-50 -156q-53 -150 -133 -397l-143 -504q-35 -96 -147 -195q-125 -109 -228 -108q-63 0 -63 47q0 -4 28 117q-152 -96 -328.5 -157.5t-301.5 -61.5q-141 0 -195 51q-45 45 -45 141z" />
<glyph unicode="&#x152;" horiz-adv-x="3301" d="M2158 57q-6 31 -6 71q0 69 19 163q4 47 20 147q37 145 80 262l246 680q23 59 130 147.5t169 104.5q53 14 69 15q49 0 60 -29v-6q6 2 22 6l58 8q86 14 122 19q328 27 471 26q102 0 121 -6q49 -14 49 -57q0 -16 -8 -35q-33 -94 -163 -188.5t-214 -94.5q-6 0 -53 3t-51 3 q-135 0 -463 -28l-63 -174q23 -2 34 -2q23 4 48 10q311 72 534 72q133 0 133 -58q0 -68 -115 -170q-98 -88 -178 -123q-51 -23 -107.5 -24.5t-111.5 -1.5q-154 -16 -174 -19q-96 -14 -174 -33q-29 -90 -55 -278q-6 -40 -7 -68q0 -17 3 -30q4 -14 24 -15q51 0 234 56 q106 35 151 59q8 4 125 88q31 20 84 40.5t80 20.5q57 0 57 -61q0 -80 -139 -203q-115 -104 -307 -198q-94 -47 -295 -109q-223 -70 -315 -70q-128 0 -144 80zM344 195q0 100 47 225q143 399 512 776q391 399 739 453q6 0 95 18q59 12 94 12q137 0 221 -87t84 -232 q0 -57 -14 -119q-20 -88 -47 -162q-100 -279 -344 -528q-266 -274 -650 -459q-285 -137 -481 -137q-256 0 -256 240zM797 459q0 -129 127 -129q102 0 276 82t256 170q123 133 184 303q41 111 41 205q0 115 -65 172q-47 41 -107 41q-80 0 -192 -54q-33 -16 -72 -28 q-94 -33 -250 -285q-123 -203 -168 -324q-30 -87 -30 -153z" />
<glyph unicode="&#x153;" horiz-adv-x="3301" d="M2158 57q-6 31 -6 71q0 69 19 163q4 47 20 147q37 145 80 262l246 680q23 59 130 147.5t169 104.5q53 14 69 15q49 0 60 -29v-6q6 2 22 6l58 8q86 14 122 19q328 27 471 26q102 0 121 -6q49 -14 49 -57q0 -16 -8 -35q-33 -94 -163 -188.5t-214 -94.5q-6 0 -53 3t-51 3 q-135 0 -463 -28l-63 -174q23 -2 34 -2q23 4 48 10q311 72 534 72q133 0 133 -58q0 -68 -115 -170q-98 -88 -178 -123q-51 -23 -107.5 -24.5t-111.5 -1.5q-154 -16 -174 -19q-96 -14 -174 -33q-29 -90 -55 -278q-6 -40 -7 -68q0 -17 3 -30q4 -14 24 -15q51 0 234 56 q106 35 151 59q8 4 125 88q31 20 84 40.5t80 20.5q57 0 57 -61q0 -80 -139 -203q-115 -104 -307 -198q-94 -47 -295 -109q-223 -70 -315 -70q-128 0 -144 80zM344 195q0 100 47 225q143 399 512 776q391 399 739 453q6 0 95 18q59 12 94 12q137 0 221 -87t84 -232 q0 -57 -14 -119q-20 -88 -47 -162q-100 -279 -344 -528q-266 -274 -650 -459q-285 -137 -481 -137q-256 0 -256 240zM797 459q0 -129 127 -129q102 0 276 82t256 170q123 133 184 303q41 111 41 205q0 115 -65 172q-47 41 -107 41q-80 0 -192 -54q-33 -16 -72 -28 q-94 -33 -250 -285q-123 -203 -168 -324q-30 -87 -30 -153z" />
<glyph unicode="&#x2c6;" horiz-adv-x="1314" d="M651 1092q0 66 140 180l196 151l105 95q145 117 241 116q41 0 49 -16l50 -131q49 -109 98 -168q35 -39 18 -86q-27 -72 -136 -152t-183 -80q-35 0 -84 68q-35 47 -55 88l-37 88l-166 -127q-106 -74 -174 -74q-62 1 -62 48z" />
<glyph unicode="&#x2dc;" horiz-adv-x="1384" d="M-510 185q0 14 6 32q25 70 175.5 180.5t244.5 127.5q49 18 123 18q92 0 143 -23q16 -8 93 -65q61 -47 98 -47q59 0 146 58.5t151 58.5q57 0 57 -43q0 -49 -94 -138q-102 -94 -246.5 -157.5t-265.5 -63.5q-90 0 -178 71.5t-164 67.5q-127 -119 -233 -118q-56 0 -56 41z " />
<glyph unicode="&#x2000;" horiz-adv-x="1216" />
<glyph unicode="&#x2001;" horiz-adv-x="2435" />
<glyph unicode="&#x2002;" horiz-adv-x="1216" />
<glyph unicode="&#x2003;" horiz-adv-x="2435" />
<glyph unicode="&#x2004;" horiz-adv-x="811" />
<glyph unicode="&#x2005;" horiz-adv-x="608" />
<glyph unicode="&#x2006;" horiz-adv-x="405" />
<glyph unicode="&#x2007;" horiz-adv-x="405" />
<glyph unicode="&#x2008;" horiz-adv-x="303" />
<glyph unicode="&#x2009;" horiz-adv-x="485" />
<glyph unicode="&#x200a;" horiz-adv-x="135" />
<glyph unicode="&#x2010;" horiz-adv-x="1476" d="M614 721q23 61 128.5 139t185.5 84h108q63 0 215 -8q162 -8 174.5 -16.5t16.5 -32.5q4 -20 0 -31q-18 -53 -110.5 -125t-162.5 -86q-45 -10 -73 -10q-4 0 -118 8t-120 8h-199q-29 0 -42 21.5t-3 48.5z" />
<glyph unicode="&#x2011;" horiz-adv-x="1476" d="M614 721q23 61 128.5 139t185.5 84h108q63 0 215 -8q162 -8 174.5 -16.5t16.5 -32.5q4 -20 0 -31q-18 -53 -110.5 -125t-162.5 -86q-45 -10 -73 -10q-4 0 -118 8t-120 8h-199q-29 0 -42 21.5t-3 48.5z" />
<glyph unicode="&#x2012;" horiz-adv-x="1476" d="M614 721q23 61 128.5 139t185.5 84h108q63 0 215 -8q162 -8 174.5 -16.5t16.5 -32.5q4 -20 0 -31q-18 -53 -110.5 -125t-162.5 -86q-45 -10 -73 -10q-4 0 -118 8t-120 8h-199q-29 0 -42 21.5t-3 48.5z" />
<glyph unicode="&#x2013;" horiz-adv-x="1024" d="M205 512v205h614v-205h-614z" />
<glyph unicode="&#x2014;" horiz-adv-x="2048" d="M205 512v205h1638v-205h-1638z" />
<glyph unicode="&#x2018;" horiz-adv-x="1087" d="M842 1253q-4 137 10 179q27 72 132.5 153.5t176.5 81.5q57 0 58 -59q0 10 -7 -70q-4 -49 48 -172q6 -16 -7 -49q-25 -74 -134 -155t-179 -81q-31 0 -45 23q-4 6 -23 49q-16 32 -30 100z" />
<glyph unicode="&#x2019;" horiz-adv-x="921" d="M711 1051q0 20 26 92q8 23 127 299q31 72 136.5 152.5t173.5 80.5q51 0 51 -43q0 -18 -23 -78l-112 -264q0 -10 -7 -35q-27 -80 -134 -168t-181 -88q-57 1 -57 52z" />
<glyph unicode="&#x201c;" horiz-adv-x="1193" d="M647 1053q0 20 25 90q8 23 129 299q31 74 144.5 154.5t187.5 80.5q59 0 59 -47q0 -16 -23 -76l-112 -262l-6 -35q-27 -82 -142.5 -170t-197.5 -88q-64 1 -64 54zM1063 1081q0 16 55 168q33 92 88 211q33 74 145.5 155t186.5 81q61 0 61 -47q0 -10 -4 -19l-127 -352 q-18 -47 -109 -126t-161 -103q-51 -16 -76 -17q-37 0 -53 27q-6 8 -6 22z" />
<glyph unicode="&#x201d;" horiz-adv-x="1193" d="M647 1053q0 20 25 90q8 23 129 299q31 74 144.5 154.5t187.5 80.5q59 0 59 -47q0 -16 -23 -76l-112 -262l-6 -35q-27 -82 -142.5 -170t-197.5 -88q-64 1 -64 54zM1063 1081q0 16 55 168q33 92 88 211q33 74 145.5 155t186.5 81q61 0 61 -47q0 -10 -4 -19l-127 -352 q-18 -47 -109 -126t-161 -103q-51 -16 -76 -17q-37 0 -53 27q-6 8 -6 22z" />
<glyph unicode="&#x2026;" horiz-adv-x="3747" d="M3040 143q23 63 116 137t160 74q47 0 45 -59q-2 -16 12.5 -42t14.5 -42q0 -63 -108.5 -145t-176.5 -82q-37 0 -45 22.5t-14 46.5q-22 43 -4 90zM1790 143q23 63 116 137t160 74q47 0 45 -59q-2 -16 12.5 -42t14.5 -42q0 -63 -108.5 -145t-176.5 -82q-37 0 -45 22.5 t-14 46.5q-22 43 -4 90zM541 143q23 63 116 137t160 74q47 0 45 -59q-2 -16 12.5 -42t14.5 -42q0 -63 -108.5 -145t-176.5 -82q-37 0 -45 22.5t-14 46.5q-22 43 -4 90z" />
<glyph unicode="&#x202f;" horiz-adv-x="485" />
<glyph unicode="&#x2039;" horiz-adv-x="1486" d="M487 674q0 10 5 20q57 160 366 330q158 86 414 276l409 306q102 70 189 69q68 0 67 -55q0 -14 -6 -33q-29 -74 -94 -129q-256 -207 -596 -457l-209 -133q82 -94 117 -141q59 -80 96 -156q20 -41 98 -186q31 -59 46 -104q6 -18 -7 -54q-33 -92 -165 -193.5t-224 -101.5 q-45 0 -53 17l-141 274q-86 164 -172 254l-84 86q-56 66 -56 111z" />
<glyph unicode="&#x203a;" horiz-adv-x="1398" d="M389 49q0 16 4 31q27 68 232 258l129 123l200 172q55 43 111 92q0 -4 -14 27l-76 190l-80 184q-57 145 -57 207q0 16 4 27q29 80 141 174q121 98 211 98q25 0 33 -2q14 -8 33 -59l20 -74l119 -285q96 -231 96 -301q0 -12 -4 -20q-31 -88 -162 -201l-360 -309l-256 -244 q-162 -147 -267 -147q-57 0 -57 59z" />
<glyph unicode="&#x205f;" horiz-adv-x="608" />
<glyph unicode="&#x2122;" horiz-adv-x="2064" d="M246 1384q0 37 36.5 84.5t79.5 53.5q111 18 328 34q178 16 207 17q39 0 39 -37q0 -39 -41 -85t-88 -58q-51 0 -143 -19v-303q0 -45 2 -35q-6 -35 -54.5 -82t-87.5 -47q-8 0 -20 11.5t-12 21.5q0 201 4 414q-6 10 -25 6q-35 -6 -39 -6q-18 -2 -58 -4t-44 -2q-84 -1 -84 36 zM791 961q0 14 2 38q35 74 98 224q70 182 82 204q94 193 186 193q37 0 58 -51q0 -2 16 -64q8 -45 31 -133q16 -61 49 -162q57 131 82 232q16 61 85.5 120.5t118.5 49.5q14 -14 17 -25l57 -227l66 -221q2 -8 20 -43q14 -25 15 -47q0 -45 -49.5 -95.5t-88.5 -50.5 q-20 0 -26 7.5t-18.5 34t-41.5 114.5l-65 213q-29 -84 -72 -197q-6 -20 -24 -65q-16 -31 -59.5 -65t-72.5 -34q-37 0 -47 11q-18 20 -40.5 77.5t-59.5 165.5q-14 49 -39 148l-90 -217q-74 -154 -160 -154q-10 1 -30 19z" />
<glyph unicode="&#xe000;" horiz-adv-x="1685" d="M0 1685h1685v-1685h-1685v1685z" />
<glyph unicode="&#xfb01;" horiz-adv-x="2353" d="M1737 12q0 10 4 23l49 158l153 505l93 252l94 318l-2 2q-22 11 -22 40q0 19 9 46q35 94 187 207q145 109 227 108q58 0 58 -46q0 -37 -19 -85q-29 -74 -33 -90q-6 -25 -21.5 -76t-164.5 -502l-135 -434l-41 -164q-31 -88 -156 -196q-131 -115 -219 -115q-61 0 -61 49z M283 16q0 8 4 17l207 569q2 6 40.5 142.5t43.5 142.5l194 536q23 61 133 152q104 88 168 104q51 14 70 15q61 0 61 -37q0 -8 -2 -17l139 19q141 18 150 18h283q2 0 10 2l20 2q37 6 45 7q78 0 78 -56q0 -16 -8 -37q-27 -76 -141 -170q-121 -100 -219 -114q-82 -12 -99 -13 h-276q-4 0 -41 -4q-43 -6 -68 -8l-84 -280q270 106 551 106q92 0 92 -57q0 -14 -6 -35q-29 -74 -138.5 -167t-182.5 -108q-43 -8 -207 -18q-125 -8 -215 -41l-168 -461q-8 -23 -27 -37q-45 -76 -153 -147q-113 -78 -189 -78q-23 0 -44 15t-21 38z" />
<glyph unicode="&#xfb02;" horiz-adv-x="2770" d="M1612 -18q2 47 34 159l97 334q115 381 237 715q27 78 82 225q37 86 169 182.5t218 96.5q68 0 68 -54q0 -10 -4 -22l-111 -303q-82 -225 -182 -565l-68 -252q-18 -57 -51 -170l111 22q223 61 417 62q240 0 240 -82q0 -92 -154.5 -211t-250.5 -119q-6 0 -86 8t-86 8 q-96 0 -226 -24l-231 -49q-135 -27 -146 -27q-83 0 -77 66zM283 16q0 8 4 17l207 569q2 6 40.5 142.5t43.5 142.5l194 536q23 61 133 152q104 88 168 104q51 14 70 15q61 0 61 -37q0 -8 -2 -17l139 19q141 18 150 18h283q2 0 10 2l20 2q37 6 45 7q78 0 78 -56q0 -16 -8 -37 q-27 -76 -141 -170q-121 -100 -219 -114q-82 -12 -99 -13h-276q-4 0 -41 -4q-43 -6 -68 -8l-84 -280q270 106 551 106q92 0 92 -57q0 -14 -6 -35q-29 -74 -138.5 -167t-182.5 -108q-43 -8 -207 -18q-125 -8 -215 -41l-168 -461q-8 -23 -27 -37q-45 -76 -153 -147 q-113 -78 -189 -78q-23 0 -44 15t-21 38z" />
<glyph unicode="&#xfb03;" horiz-adv-x="3682" d="M3066 12q0 10 4 23l49 158l153 505l93 252l94 318l-2 2q-22 11 -22 40q0 19 9 46q35 94 187 207q145 109 227 108q58 0 58 -46q0 -37 -19 -85q-29 -74 -33 -90q-6 -25 -21.5 -76t-164.5 -502l-135 -434l-41 -164q-31 -88 -156 -196q-131 -115 -219 -115q-61 0 -61 49z M1612 16q0 8 4 17l207 569q2 6 40.5 142.5t43.5 142.5l194 536q23 61 133 152q104 88 168 104q51 14 70 15q61 0 61 -37q0 -8 -2 -17l139 19q141 18 150 18h283q2 0 10 2l20 2q37 6 45 7q78 0 78 -56q0 -16 -8 -37q-27 -76 -141 -170q-121 -100 -219 -114q-82 -12 -99 -13 h-276q-4 0 -41 -4q-43 -6 -68 -8l-84 -280q270 106 551 106q92 0 92 -57q0 -14 -6 -35q-29 -74 -138.5 -167t-182.5 -108q-43 -8 -207 -18q-125 -8 -215 -41l-168 -461q-8 -23 -27 -37q-45 -76 -153 -147q-113 -78 -189 -78q-23 0 -44 15t-21 38zM283 16q0 8 4 17l207 569 q2 6 40.5 142.5t43.5 142.5l194 536q23 61 133 152q104 88 168 104q51 14 70 15q61 0 61 -37q0 -8 -2 -17l139 19q141 18 150 18h283q2 0 10 2l20 2q37 6 45 7q78 0 78 -56q0 -16 -8 -37q-27 -76 -141 -170q-121 -100 -219 -114q-82 -12 -99 -13h-276q-4 0 -41 -4 q-43 -6 -68 -8l-84 -280q270 106 551 106q92 0 92 -57q0 -14 -6 -35q-29 -74 -138.5 -167t-182.5 -108q-43 -8 -207 -18q-125 -8 -215 -41l-168 -461q-8 -23 -27 -37q-45 -76 -153 -147q-113 -78 -189 -78q-23 0 -44 15t-21 38z" />
<glyph unicode="&#xfb04;" horiz-adv-x="4100" d="M2941 -18q2 47 34 159l97 334q115 381 237 715q27 78 82 225q37 86 169 182.5t218 96.5q68 0 68 -54q0 -10 -4 -22l-111 -303q-82 -225 -182 -565l-68 -252q-18 -57 -51 -170l111 22q223 61 417 62q240 0 240 -82q0 -92 -154.5 -211t-250.5 -119q-6 0 -86 8t-86 8 q-96 0 -226 -24l-231 -49q-135 -27 -146 -27q-83 0 -77 66zM1612 16q0 8 4 17l207 569q2 6 40.5 142.5t43.5 142.5l194 536q23 61 133 152q104 88 168 104q51 14 70 15q61 0 61 -37q0 -8 -2 -17l139 19q141 18 150 18h283q2 0 10 2l20 2q37 6 45 7q78 0 78 -56q0 -16 -8 -37 q-27 -76 -141 -170q-121 -100 -219 -114q-82 -12 -99 -13h-276q-4 0 -41 -4q-43 -6 -68 -8l-84 -280q270 106 551 106q92 0 92 -57q0 -14 -6 -35q-29 -74 -138.5 -167t-182.5 -108q-43 -8 -207 -18q-125 -8 -215 -41l-168 -461q-8 -23 -27 -37q-45 -76 -153 -147 q-113 -78 -189 -78q-23 0 -44 15t-21 38zM283 16q0 8 4 17l207 569q2 6 40.5 142.5t43.5 142.5l194 536q23 61 133 152q104 88 168 104q51 14 70 15q61 0 61 -37q0 -8 -2 -17l139 19q141 18 150 18h283q2 0 10 2l20 2q37 6 45 7q78 0 78 -56q0 -16 -8 -37q-27 -76 -141 -170 q-121 -100 -219 -114q-82 -12 -99 -13h-276q-4 0 -41 -4q-43 -6 -68 -8l-84 -280q270 106 551 106q92 0 92 -57q0 -14 -6 -35q-29 -74 -138.5 -167t-182.5 -108q-43 -8 -207 -18q-125 -8 -215 -41l-168 -461q-8 -23 -27 -37q-45 -76 -153 -147q-113 -78 -189 -78 q-23 0 -44 15t-21 38z" />
</font>
</defs>
</svg>
